<svg xmlns="http://www.w3.org/2000/svg" data-kind="player" width="129" height="180" fill-rule="evenodd" clip-rule="evenodd" image-rendering="optimizeQuality" shape-rendering="geometricPrecision" text-rendering="geometricPrecision" viewBox="0 0 5453 7622">
    <path class="hair" fill="#000000" d="M2068 169c33 3 52-18 73-32 66-42 189-66 257-35-23 41-70 26-62 88 66 21 211-10 258 1 23 6 57 17 66 32-8 20-56 26 3 57l102 58c14 10 117 81 100 111-9 9-24 11-36 20-1 72 36 110 31 189-2 42-4 141-33 166-31-8-2-25-57-22-25 57-28 242-81 263-11-8-24-51-77 1-23 23-36 52-62 65-17-10-12-12-25-25-10-10-25-14-32-21-19-19-6-60-5-85 3-85 13-308-116-304-65 2-79 80-121 91-55-25-69-170-96-232-41-93-111-89-222-78-49 5-97 12-132-10-120-77-9-290 46-314 7 37 1 66 18 94 49-5 18-37 105-106 31-25 91-77 137-86-6 45-54 60-39 114z"/>
    <path class="shirt" fill="#FF0000" d="M2749 2138c3 43 42 49 72 65 53 28 253 151 291 181 20 16 17 18 22 51 8 48 12 87 8 134-8 83-28 142-46 214-18 68-34 142-43 213-20 150 11 93-53 143-78 62-88 150-109 163-9 6-42 18-55 23-97 39-499 150-589 151-74 1-61-88-112-175-43-74-21-45-47-100-134-284-122-220-182-553-14-75-42-327-44-395-1-47 10-160-3-181-9-14-33-21-52-7-18 25 36 409 41 480 3 42 31 119 11 147-33 31-256-33-329-122-113-139 9-329 44-547 5-29 12-64 25-87 26-47 142-141 180-186 20-23 97-106 127-118 1 45-9 83 23 116 68 69 278 13 342-12 80-31 184-117 241-178 19-20 40-61 59-76 52-40 163-48 233-35 66 12 143 33 206 51 94 26 313 93 392 133 64 33 108 69 163 105 90 59 73 64 58 179-13 100-82 200-126 271-73 118-84 93-124 152-75 112-195 36-273-15-50-32-119-67-168-100-37-24-121-96-183-85z"/>
    <path class="shorts" fill="#FFFFFF" d="M3372 3626c129 317-20 498-144 688-32 49-57 102-87 140-36 46-68 81-105 131-18 25-31 42-52 65-61 64-90 132-155 197-19 20-39 39-55 59-17 22-31 46-47 70-30 43-114 167-152 199-64 53-129-117-165-180-31-55-168-229-212-269-42-40-78-66-138-95-48-24-130-23-170-55-6-46 51-158 71-193 28-50 53-137 71-194 46-144 82-268 144-392 29-58 60-121 65-198 6-92 45-82 182-109 97-18 259-62 355-96 38-13 74-31 112-42 15 114 38 120 124 215 17 19 35 42 52 58 50 46 91 24 156 54 57 26 126-42 150-53zm-185 1723c-19-13-138-213-154-245-45-94-53-150-81-224-40-101-41-56 14-125l108-152c53-69 108-121 153-199 50-87 163-250 196-321 16-35 23-105 45-124 47 23 91 141 116 198 33 77 73 140 109 214 35 74 66 151 97 228 33 80 67 148 100 225 66 151 4 116-101 165l-216 107c-73 39-132 83-188 130-57 46-125 108-198 123z"/>
    <path class="socks" fill="#FF0000" d="M1854 5462c108-6 117 85 373 3 86-27 90-42 149-83 37-26 56-19 69 23 10 31-19 56-31 73-56 76-195 131-321 148-74 10-137 12-192-13-82-37-64-69-47-151zm2108 267c6-20 29-50 40-66 15-22 28-42 40-68 39-86 85-230 83-328-1-32-9-74-16-105s-22-65-25-92c216-29 532 246 740 342 69 32 120 54 194 77 22 7 56 6 72 18 34 26 51 92 35 140-13 36-25 25-63 23-47-1-49 7-84 20-27 11-46-5-67-10-180-48-220-39-407-12-62 9-124 14-185 23-63 8-120 16-181 25-43 7-137 30-176 13zm34-657c42 6 46 20 58 63 9 29 18 74 21 105 13 114-42 264-90 359-23 45-50 119-127 110-111-15-19-72-11-80 89-89 148-255 136-379-12-128-74-190 13-178zm-1514 396c66 101 8 603-13 722-10 55-22 107-33 163-11 58-40 294-36 349 4 38 28 173-21 166-15-3-39-33-61-43-27-12-53-10-72-29-27-25-41-130-47-176-19-134-73-215-115-330-28-76-22-93-67-154-30-42-51-100-71-148-44-104-90-221-101-348 49 6 52 42 172 36 143-7 318-48 415-154 16-16 30-45 50-54z"/>
    <path class="outline" fill="#000000" d="M3587 5574c-29-24 18-49 30-59 20-20 20-37 55-40 13 44-57 120-85 99zM2276 7201c-13-20-108-40-138-48-23-5-49-11-71-19-30-11-52-26-65 11 27 30 86 34 130 42 35 6 119 27 144 14zm-8-159c-19-11-75 6-103 4-27-1-65-20-89-14 54 76 169 45 192 10zm-227-42c-8-43-52-64-97-53 19 22 20 6 48 28 17 13 22 24 49 25zm151 4c122-4 152-111 111-140-44-32-65 12-81 38-15 26-38 61-30 102zm-100-251c-101-28-173 85-154 125 22 49 71-27 81-39 47-56 73-50 73-86zm2982-794c-26-3-55 5-86 4-84-3-73 66 27 37 12-4 22-8 34-14 27-14 21-21 25-27zm265-102c-35 11-88 58-120 79-46 31-72 59-58 127 31-5 90-62 114-82 46-35 74-47 64-124zm-258 42c57-24 51-152-1-180-79-42-11 157 1 180zm-202-110c-46 19-98 147-47 200 44-4 44-40 41-82-4-58 2-70 6-118zm-2397-321c-20 9-34 38-50 54-97 106-272 147-415 154-120 6-123-30-172-36 11 127 57 244 101 348 20 48 41 106 71 148 45 61 39 78 67 154 42 115 96 196 115 330 6 46 20 151 47 176 19 19 45 17 72 29 22 10 46 40 61 43 49 7 25-128 21-166-4-55 25-291 36-349 11-56 23-108 33-163 21-119 79-621 13-722zm-581 145c55 25 118 23 192 13 126-17 265-72 321-148 12-17 41-42 31-73-13-42-32-49-69-23-59 41-63 56-149 83-256 82-265-9-373-3-17 82-35 114 47 151zm2095-541c-87-12-25 50-13 178 12 124-47 290-136 379-8 8-100 65 11 80 77 9 104-65 127-110 48-95 103-245 90-359-3-31-12-76-21-105-12-43-16-57-58-63zm-34 657c39 17 133-6 176-13 61-9 118-17 181-25 61-9 123-14 185-23 187-27 227-36 407 12 21 5 40 21 67 10 35-13 37-21 84-20 38 2 50 13 63-23 16-48-1-114-35-140-16-12-50-11-72-18-74-23-125-45-194-77-208-96-524-371-740-342 3 27 18 61 25 92s15 73 16 105c2 98-44 242-83 328-12 26-25 46-40 68-11 16-34 46-40 66zm-27-473c-21-289-94-90-175-120-28-71 72-25 51-94-47-6-256 115-299 142-28 17-233 172-238 186 0 48 34 112 53 153 33 72 19 74 102 89 65 11 115-10 178-3 39 5 128 34 152 29 96-22 186-251 176-382zm-1482-87c-2-25-21-44-33-67-44-88-81-170-153-240-77-76-68-92-146-142-41-26-68-46-125-60-161-38-139-14-205 127-20 44-43 76-51 131-22 147 11 196 61 314 94 220 23 170 179 210 65 16 90 15 163-3 52-13 107-23 150-53 66-45 94-52 93-100-2-96 10-74 67-117zm734 180c73-15 141-77 198-123 56-47 115-91 188-130l216-107c105-49 167-14 101-165-33-77-67-145-100-225-31-77-62-154-97-228-36-74-76-137-109-214-25-57-69-175-116-198-22 19-29 89-45 124-33 71-146 234-196 321-45 78-100 130-153 199l-108 152c-55 69-54 24-14 125 28 74 36 130 81 224 16 32 135 232 154 245zm185-1723c-24 11-93 79-150 53-65-30-106-8-156-54-17-16-35-39-52-58-86-95-109-101-124-215-38 11-74 29-112 42-96 34-258 78-355 96-137 27-176 17-182 109-5 77-36 140-65 198-62 124-98 248-144 392-18 57-43 144-71 194-20 35-77 147-71 193 40 32 122 31 170 55 60 29 96 55 138 95 44 40 181 214 212 269 36 63 101 233 165 180 38-32 122-156 152-199 16-24 30-48 47-70 16-20 36-39 55-59 65-65 94-133 155-197 21-23 34-40 52-65 37-50 69-85 105-131 30-38 55-91 87-140 124-190 273-371 144-688zm147-1266c-73 2-78-29-143 34-40 38-76 49-129 39-35-7-32-12-64-8 2 19 2 68 0 86-8 82-3 156-32 247-15 49-71 265-66 309l3 27c21-2 43-8 67-12 61-12 181-40 216-95 42-64 49-153 59-224 3-22 3-40 5-62 9-80 39-242 73-313l11-28zm-55 1041c-28 6-31 28-40 53-39 110-141 127-140 53 1-38 41-96 59-126 33-56 66-41 96-93 43-75 19-102 49-133 20-22 25-27 44-51 51-67 124-150 159-211 64-111 134-142 188-273 83-202 33-302 51-384 6-29 17-41 15-74-6-70-63-139-107-185-31-33-111-116-157-113-39 89 10 119-149 341-12 17-21 36-32 54-14 25-30 19-34 48 16 21 46 18 74 7 15-5 15-10 26-19 36-33 57 18 12 50-23 16-25 26-35 51-23 54-61 205-71 263-14 79 0 208-38 292-16 37-40 90-67 107-165 100-359-4-439 287-17 61 28 91 55 122 30 33 51 61 84 95 68 72 129 50 158 56 27 5 28 24 101-12 46-23 57-59 78-99 15-28 57-75 60-106zM289 1780c-50 0-93 60-120 86-67 66-162 160-108 261 15 26 83 72 109 90 29 18 42 2 69-15 69-42 116-73 156-147 34-64 7-102-29-145-74-90-46-89-77-130zm2460 358c62-11 146 61 183 85 49 33 118 68 168 100 78 51 198 127 273 15 40-59 51-34 124-152 44-71 113-171 126-271 15-115 32-120-58-179-55-36-99-72-163-105-79-40-298-107-392-133-63-18-140-39-206-51-70-13-181-5-233 35-19 15-40 56-59 76-57 61-161 147-241 178-64 25-274 81-342 12-32-33-22-71-23-116-30 12-107 95-127 118-38 45-154 139-180 186-13 23-20 58-25 87-35 218-157 408-44 547 73 89 296 153 329 122 20-28-8-105-11-147-5-71-59-455-41-480 19-14 43-7 52 7 13 21 2 134 3 181 2 68 30 320 44 395 60 333 48 269 182 553 26 55 4 26 47 100 51 87 38 176 112 175 90-1 492-112 589-151 13-5 46-17 55-23 21-13 31-101 109-163 64-50 33 7 53-143 9-71 25-145 43-213 18-72 38-131 46-214 4-47 0-86-8-134-5-33-2-35-22-51-38-30-238-153-291-181-30-16-69-22-72-65zm-1297 387c-48 28-13 59 12 86 43 46 2 71-35 25-36-44-29-40-79-67-30-16-54-34-93-43-38-8-78-6-117-18-41-12-64-24-105-34-70-18-140-39-211-60-75-23-133-58-176-110-31-38-7-30-11-118-1-20 4-39 4-60-1-128-18-202-108-270-31-23-133-101-185-90 6 99 63 120 120 151 50 27 40 27 34 85-4 38 16 89 1 119-40 12-17-12-50-16-22 29 6 48-30 60-14-9-15-16-25-30-28 14-41 47-74 69-31 21-56 34-83 57 8 36 63 72 92 81 52 16 99-21 143 18 32 28 61 46 92 80 30 33 51 57 83 92 28 32 51 68 79 96l180 167c30 27 67 44 95 71 91 88 292 183 467 198 46 5 108 9 154 6 65-5 89-31 115-65 35-46 83-178 60-262-24-12-81-15-112-26-140-50-155-77-237-192zm834-1500c2-64 85-20 127-72 27-34 37-101 21-155-15-51-74-96-100-25-11 31-10 42-39 56-74 36-123-66-144-131-40-119-8-200-200-181-81 8-145 0-139 54 55 6 181-14 151 66-38 14-88-28-138-19-21 4-10 1-16 8-16 19 9 68 21 83 46 2 80-5 122 8 30 9 79 32 61 72-32 16-34-12-62-20-35 12-27 51-71 47-46-3-18-52-54-61-15 22-11 39-17 68-9 51-90 117-74 184 46 14 60 2 90 37 35 42-5 56 9 103 85 29 125-64 154-39 30 29-22 70-49 79-56 18-150-11-23 135 22 25 81 2 115-2 97-12 178 1 228-67 61-82 25-172 100-150 6 31-28 103-41 131-95 202-153 42-205 165-24 56-10 53-24 143-55 6-94-3-132 95-66 166 232 82 298 58 52-18 97-57 142-89 108-77 142-125 144-287 1-85 8-114-42-176-16-20-45-29-54-55-10-28 1-64-3-99-58 6-62 62-156 36zm-145-888c-21 14-40 35-73 32-15-54 33-69 39-114-46 9-106 61-137 86-87 69-56 101-105 106-17-28-11-57-18-94-55 24-166 237-46 314 35 22 83 15 132 10 111-11 181-15 222 78 27 62 41 207 96 232 42-11 56-89 121-91 129-4 119 219 116 304-1 25-14 66 5 85 7 7 22 11 32 21 13 13 8 15 25 25 26-13 39-42 62-65 53-52 66-9 77-1 53-21 56-206 81-263 55-3 26 14 57 22 29-25 31-124 33-166 5-79-32-117-31-189 12-9 27-11 36-20 17-30-86-101-100-111l-102-58c-59-31-11-37-3-57-9-15-43-26-66-32-47-11-192 20-258-1-8-62 39-47 62-88-68-31-191-7-257 35zm24-125c5 48-12 41-11 66 76-11 64-40 220-23 64 7 84 1 97 38-13 24-44 34-48 60 92 11 137-35 235 20 9 4 13 7 23 13 7 4 21 11 25 15 29 23 14 46 12 56l110 74c22 18 83 94 86 120 4 37-35 47-32 76 11 103 46 46 7 246-7 32-9 74-41 91-42 24-48-6-61 62-4 24-6 48-13 72-5 19-53 110-66 112-52 5-55-25-101 18-11 10-18 24-23 40-6 24 0 85-1 118-2 37-6 79 5 112 7 23 21 18 47 12 63-15 122-13 184-2 119 21 243 58 357 99 17 7 30 13 48 18 34 10 69 17 100 29 47 17 93 35 136 61 71 41 138 91 194 149 13 13 19 22 35 34l77 58c28 18 46 44 77 63 22 13 85 89 100 112 84 130 13 197 25 334 17 191-104 373-217 515l-145 197c-39 49-76 107-97 169-13 36-1 83 4 131 6 59-34 94-59 137-53 91-52 44-20 141 9 28 29 93 31 120 17 148-5 101 79 211 64 83 127 220 174 318 11 23 18 43 30 65 36 68 55 146 84 220 17 45 122 248 124 271 6 52 6 71-21 115-21 34-67 29-72 74 89-32 215-36 309-21 17 3 26 4 41 11 12 5 1 1 15 6 45 16 82 21 126 43 24 12 41 22 64 34l185 113c21 14 38 25 60 39 32 19 62 40 95 56 55 27 196 105 245 100 32-3 52-91 164-50 77 27 149 36 199 112 25 38 13 58 56 109 33 39 43 68 15 110-15 21-57 23-44 138 3 24 40 56 51 86-6 10-26 30-37 36-51 27-44-9-59 85-3 21-10 35-8 59 0 1 21 22 23 44 2 16-12 53-21 65-17 23-29 28-35 58-6 27-11 46-8 67 6 45 65 77 0 145-17 18-4 6-27 16-23 9-25 20-39 35-20 22-17 15-32 43 8 24 10 13 14 49-19 7-26 19-44 23-16 4-39 0-63 3-39 4-92 59-126 50-10-3-16-9-26-15-12-8-15-7-23-22-35-62-36-128-27-196l19-124c2-16 3-26 6-41l7-64c8-45-13-97-19-139-5-36-18-64-25-98-38 24-44 19-83 2-17-7-23-17-31-34-31-59 3-141 39-185 16-21 53-50 57-74-113-44-214-45-332-14-13 3-25 7-35 8l-117 14c-30 4-48 1-82 5-48 5-78 16-122 17-113 5-287 56-373-11-16-13-22-17-39-28-23-15-62-36-89-44-74-23-151-14-230-16-58-2-103-3-140-52-41-55-45-139-95-179-29-24-56-7-80-50-9-17-17-31-25-45-9-17-15-30-26-46l-56-79c-11-18-15-26-25-45-32-63-63-131-84-199-15-44-19-69-45-99-26 10-45 50-63 73l-99 139c-16 27-102 125-132 154s-74 35-115 27c-42-9-36 2-33 36 6 51 57 87 80 132 17 31 17 48 23 90 3 27 18 66 17 92-1 61-1 121-7 180-4 32 3 61 1 95-3 32-6 57-8 88-3 32-3 57-7 85-5 30-14 55-18 81-6 41-9 84-22 123-13 41-26 165-31 213-7 72-25 125-16 202 3 30 49-12 95 87 96 210 30 187 21 310-3 41-2 139-61 145-31 4-91-61-104 7-2 11-5 29-10 38-7 16-40 41-59 43-5-13-10-14-18-29-13-23-12-27-38-24-14 2-45 23-53 32-25 30 6 72-48 110-26 18-34-13-76-8-24 3-67 57-69 106-2 46-2 54-68 44-37-5-90-14-105 32-19 57-15 76-77 41-16-9-22-20-41-26-37-11-85-10-131-5-14 1-70 76-114-3-9-15-4-14-10-28-7-16-30-25-48-28-3-28 2-47 6-74 16-125 163-221 249-291l180-181c41-66 15-63 32-135 15-67 79-125 152-133 13-2 99 28 95-11-12-111-42-216-88-317-28-60-45-125-71-184-9-21-19-35-29-56-52-106-122-257-136-372-10-83-68-110-20-289 8-28 9-45 6-77-6-74-122-249-132-346-4-36 1-77 3-112 3-75 41-113 68-176 18-42 28-91 57-127 13-16 18-18 25-38 23-65 6-74 62-182 30-57 54-112 72-176l31-91c27-100 87-268 130-361 16-35 73-141 69-180-2-18-28-74-36-100-12-38-20-73-33-108-24-63-56-127-86-186-69-141-71-147-121-286-40-109-25-88-36-187-46 5-45 2-49 52-5 87-6 152-58 225l-37 40c-23 22-41 38-74 47-69 20-159 6-230-3l-141-32-128-50c-56-25-107-58-158-91-42-27-81-61-119-93-9-7-14-11-23-18-78-62-156-133-217-212l-77-99c-23-27-56-65-87-83-98-57-120 2-210-62l-87-71c-5-4-2-1-7-6l-47-39c-10-7-14-8-24-16-34-26-64-50-89-85-18-25-26-70-24-103 1-12 5-24 9-33 33-77 90-140 151-197 51-48 99-85 181-94 64-7 170 69 216 106 30 23 61 50 84 80 13 17 23 33 27 58 3 18-1 11 5 31 29 115-30 255 65 330 49 38 66 42 127 58l145 40c66 17 119 43 190 50 37 4 68 9 98 22 18 7 27 12 40 22 61 43 73 8 81-57 3-19 6-29 11-45l23-89c4-17 6-29 10-45 8-31 17-60 24-88l46-178c20-63 35-105 78-155 6-7 6-8 13-15 1 0 2-1 2-2l13-14c55-64 121-118 182-176l124-115c80-73 111-32 127-170-40 1-52 6-95 11-91 10-138-84-160-155-3-11-8-30-12-42-6-18-12-24-14-43-5-42 11-65-30-77-49-13-66-2-72-59-10-87 104-176 91-293-3-20-8-29-13-46-15-51 14-104 9-151-2-14-27-45-36-57-50-64-42-133-13-204 16-39 85-137 125-148 9-2 25 5 31 8 19 13 4 10 17 31 84-30 122-124 250-138 10-1 14 2 15 12zm164 912c-7-44 18-23 18-82 0-66 35-46 42-34 9 16 36 141-60 116zm-340 4337c8 61-12 54-58 35-30-12-67-16-57-59 37-16 90 7 115 24z"/>
    <path class="body" fill="#F0DCC8" d="M3672 5475c-35 3-35 20-55 40-12 10-59 35-30 59 28 21 98-55 85-99zM289 1780c31 41 3 40 77 130 36 43 63 81 29 145-40 74-87 105-156 147-27 17-40 33-69 15-26-18-94-64-109-90-54-101 41-195 108-261 27-26 70-86 120-86zm2040-856c96 25 69-100 60-116-7-12-42-32-42 34 0 59-25 38-18 82zm-43 101c94 26 98-30 156-36 4 35-7 71 3 99 9 26 38 35 54 55 50 62 43 91 42 176-2 162-36 210-144 287-45 32-90 71-142 89-66 24-364 108-298-58 38-98 77-89 132-95 14-90 0-87 24-143 52-123 110 37 205-165 13-28 47-100 41-131-75-22-39 68-100 150-50 68-131 55-228 67-34 4-93 27-115 2-127-146-33-117 23-135 27-9 79-50 49-79-29-25-69 68-154 39-14-47 26-61-9-103-30-35-44-23-90-37-16-67 65-133 74-184 6-29 2-46 17-68 36 9 8 58 54 61 44 4 36-35 71-47 28 8 30 36 62 20 18-40-31-63-61-72-42-13-76-6-122-8-12-15-37-64-21-83 6-7-5-4 16-8 50-9 100 33 138 19 30-80-96-60-151-66-6-54 58-46 139-54 192-19 160 62 200 181 21 65 70 167 144 131 29-14 28-25 39-56 26-71 85-26 100 25 16 54 6 121-21 155-42 52-125 8-127 72zm-834 1500c82 115 97 142 237 192 31 11 88 14 112 26 23 84-25 216-60 262-26 34-50 60-115 65-46 3-108-1-154-6-175-15-376-110-467-198-28-27-65-44-95-71l-180-167c-28-28-51-64-79-96-32-35-53-59-83-92-31-34-60-52-92-80-44-39-91-2-143-18-29-9-84-45-92-81 27-23 52-36 83-57 33-22 46-55 74-69 10 14 11 21 25 30 36-12 8-31 30-60 33 4 10 28 50 16 15-30-5-81-1-119 6-58 16-58-34-85-57-31-114-52-120-151 52-11 154 67 185 90 90 68 107 142 108 270 0 21-5 40-4 60 4 88-20 80 11 118 43 52 101 87 176 110 71 21 141 42 211 60 41 10 64 22 105 34 39 12 79 10 117 18 39 9 63 27 93 43 50 27 43 23 79 67 37 46 78 21 35-25-25-27-60-58-12-86zm2012 876c-3 31-45 78-60 106-21 40-32 76-78 99-73 36-74 17-101 12-29-6-90 16-158-56-33-34-54-62-84-95-27-31-72-61-55-122 80-291 274-187 439-287 27-17 51-70 67-107 38-84 24-213 38-292 10-58 48-209 71-263 10-25 12-35 35-51 45-32 24-83-12-50-11 9-11 14-26 19-28 11-58 14-74-7 4-29 20-23 34-48 11-18 20-37 32-54 159-222 110-252 149-341 46-3 126 80 157 113 44 46 101 115 107 185 2 33-9 45-15 74-18 82 32 182-51 384-54 131-124 162-188 273-35 61-108 144-159 211-19 24-24 29-44 51-30 31-6 58-49 133-30 52-63 37-96 93-18 30-58 88-59 126-1 74 101 57 140-53 9-25 12-47 40-53zM1989 5261c-25-17-78-40-115-24-10 43 27 47 57 59 46 19 66 26 58-35zm464-92c-57 43-69 21-67 117 1 48-27 55-93 100-43 30-98 40-150 53-73 18-98 19-163 3-156-40-85 10-179-210-50-118-83-167-61-314 8-55 31-87 51-131 66-141 44-165 205-127 57 14 84 34 125 60 78 50 69 66 146 142 72 70 109 152 153 240 12 23 31 42 33 67zm1307-33c81 30 154-169 175 120 10 131-80 360-176 382-24 5-113-24-152-29-63-7-113 14-178 3-83-15-69-17-102-89-19-41-53-105-53-153 5-14 210-169 238-186 43-27 252-148 299-142 21 69-79 23-51 94z"/>
    <path class="boots" fill="#FFFFFF" d="M2276 7201c-25 13-109-8-144-14-44-8-103-12-130-42 13-37 35-22 65-11 22 8 48 14 71 19 30 8 125 28 138 48zm2603-1412c-4 48-10 60-6 118 3 42 3 78-41 82-51-53 1-181 47-200zm202 110c-12-23-80-222-1-180 52 28 58 156 1 180zm-7 60c-4 6 2 13-25 27-12 6-22 10-34 14-100 29-111-40-27-37 31 1 60-7 86-4zm87 104c-14-68 12-96 58-127 32-21 85-68 120-79 10 77-18 89-64 124-24 20-83 77-114 82zm-2969 941c-8-41 15-76 30-102 16-26 37-70 81-38 41 29 11 136-111 140zm-100-251c0 36-26 30-73 86-10 12-59 88-81 39-19-40 53-153 154-125zm-51 247c-27-1-32-12-49-25-28-22-29-6-48-28 45-11 89 10 97 53zm227 42c-23 35-138 66-192-10 24-6 62 13 89 14 28 2 84-15 103-4z"/>
</svg>
