<svg xmlns="http://www.w3.org/2000/svg" width="129" height="180" fill-rule="evenodd" clip-rule="evenodd" image-rendering="optimizeQuality" shape-rendering="geometricPrecision" text-rendering="geometricPrecision" viewBox="0 0 58939 82373">
    <path class="hair" fill="#000000" d="M36586 1823c-356 33-564-193-787-337-717-463-2039-719-2776-387 245 446 750 284 667 959-715 225-2282-111-2782 11-257 63-620 183-718 338 88 216 606 283-36 616l-1094 634c-155 102-1266 872-1082 1195 94 94 253 121 383 218 11 781-390 1188-335 2046 28 447 46 1517 361 1790 336-81 24-270 615-242 265 619 303 2616 876 2841 117-81 253-545 827 20 247 243 393 555 676 695 179-99 131-130 269-265 108-105 271-149 349-230 201-208 58-643 49-920-30-914-137-3327 1256-3285 702 21 855 868 1308 985 596-267 744-1838 1039-2509 441-1002 1199-959 2399-841 525 52 1045 128 1422-112 1301-833 97-3133-500-3393-73 404-6 717-193 1022-529-55-190-401-1133-1153-337-268-981-827-1476-926 67 491 581 655 416 1230z"/>
    <path class="shirt" fill="#FF0000" d="M29233 23111c-37 464-454 524-783 699-572 303-2731 1637-3150 1960-215 166-179 186-237 544-84 519-131 941-81 1450 88 902 300 1537 498 2311 190 742 366 1538 466 2300 212 1627-120 1015 566 1555 851 670 959 1619 1186 1762 96 60 454 194 589 247 1053 416 5390 1616 6363 1629 801 11 663-949 1209-1886 467-803 231-489 514-1087 1451-3063 1319-2380 1971-5971 148-819 444-3541 466-4279 15-498-102-1727 36-1947 96-152 355-235 564-79 198 273-389 4420-447 5192-35 453-328 1285-121 1584 360 331 2772-357 3556-1317 1228-1506-90-3556-476-5912-51-316-130-697-267-944-280-505-1528-1517-1942-2007-214-254-1046-1150-1379-1273-11 487 99 895-246 1245-738 748-3004 150-3696-120-864-337-1984-1265-2601-1925-209-224-431-665-638-824-569-436-1763-518-2516-379-714 132-1553 357-2231 549-1013 288-3386 1009-4236 1444-690 352-1164 744-1762 1133-973 631-793 693-628 1933 144 1080 885 2164 1361 2929 792 1269 911 1009 1340 1645 816 1210 2107 382 2957-165 536-344 1287-727 1810-1076 401-268 1314-1042 1985-920z"/>
    <path class="shorts" fill="#FFFFFF" d="M22495 39185c-1397 3433 215 5382 1557 7439 345 528 615 1104 940 1518 389 497 735 872 1132 1409 201 272 334 454 567 703 651 697 974 1432 1671 2135 210 212 427 420 595 636 179 231 337 500 509 751 322 470 1233 1813 1645 2156 688 572 1391-1263 1777-1941 339-596 1822-2482 2292-2916 462-427 846-711 1494-1027 524-256 1410-247 1833-591 65-497-544-1705-759-2087-302-537-580-1485-774-2097-490-1552-882-2900-1548-4235-315-630-649-1312-706-2137-68-996-488-893-1971-1178-1047-202-2798-677-3836-1041-411-145-797-340-1208-451-167 1228-413 1292-1346 2321-182 202-373 454-562 630-532 496-978 257-1676 575-619 282-1364-445-1626-572zm1997 18624c213-140 1497-2299 1666-2650 489-1016 570-1622 877-2412 426-1095 446-615-148-1358l-1176-1640c-567-751-1161-1313-1647-2155-540-937-1769-2695-2121-3466-172-378-251-1133-482-1337-516 245-988 1522-1255 2133-364 835-790 1519-1177 2319-387 801-714 1631-1055 2465-353 865-725 1601-1083 2431-703 1630-42 1256 1101 1783l2329 1160c788 417 1425 894 2038 1398 607 499 1344 1170 2133 1329z"/>
    <path class="socks" fill="#FF0000" d="M38903 59035c-1169-68-1271 920-4036 33-928-298-965-453-1606-897-402-279-611-203-750 249-102 332 206 606 342 790 601 817 2101 1413 3470 1598 793 107 1478 129 2075-144 883-404 688-749 505-1629zm-22789 2878c-65-208-309-535-431-713-158-229-304-454-429-725-427-930-921-2488-897-3552 8-344 97-795 170-1134 73-338 244-697 268-996-2325-311-5745 2663-7994 3702-741 343-1297 586-2091 830-239 73-614 67-784 194-370 278-549 992-373 1508 135 399 265 272 674 258 509-16 533 67 905 215 297 117 501-55 729-115 1947-516 2382-421 4402-122 663 98 1337 150 2001 241 671 91 1293 174 1949 276 470 74 1481 323 1901 133zm-363-7093c-458 65-494 216-629 675-95 320-193 798-230 1139-133 1231 462 2855 979 3884 242 483 541 1285 1374 1179 1200-152 198-769 111-857-955-968-1590-2754-1465-4094 129-1391 795-2061-140-1926zm16362 4273c-709 1098-90 6524 140 7811 105 587 239 1155 354 1759 119 626 440 3176 388 3776-35 406-303 1861 233 1784 165-23 425-349 658-459 290-135 570-113 776-309 293-278 445-1414 514-1908 204-1446 789-2322 1241-3564 300-827 235-1003 722-1667 329-448 547-1084 766-1597 479-1122 970-2389 1092-3759-529 61-555 453-1856 389-1542-77-3438-527-4492-1664-168-180-318-490-536-592z"/>
    <path class="outline" fill="#000000" d="M20167 60238c318-250-196-520-319-637-215-206-216-392-593-433-148 483 615 1305 912 1070zm14173 17587c141-218 1163-431 1494-512 245-59 522-120 768-209 319-117 562-283 703 117-296 325-930 371-1409 453-378 65-1289 289-1556 151zm91-1714c196-121 806 60 1111 43 292-16 701-213 958-155-586 826-1830 490-2069 112zm2448-456c86-464 562-692 1046-575-199 241-214 64-520 303-180 141-232 264-526 272zm-1627 38c-1318-37-1649-1192-1207-1506 481-342 709 124 879 413 165 280 408 654 328 1093zm1081-2708c1090-298 1865 918 1662 1355-243 523-773-300-878-427-505-602-791-536-784-928zM4103 64408c277-31 590 55 928 43 907-31 791 711-289 392-139-41-243-83-372-149-294-152-222-226-267-286zm-2871-1106c382 115 950 624 1299 856 500 332 777 632 632 1371-335-60-973-673-1241-884-492-386-796-516-690-1343zm2796 449c-621-256-555-1638 4-1936 853-455 125 1692-4 1936zm2174-1185c501 207 1060 1594 518 2159-482-38-482-434-448-887 47-620-18-751-70-1272zm25911-3473c218 102 368 412 536 592 1054 1137 2950 1587 4492 1664 1301 64 1327-328 1856-389-122 1370-613 2637-1092 3759-219 513-437 1149-766 1597-487 664-422 840-722 1667-452 1242-1037 2118-1241 3564-69 494-221 1630-514 1908-206 196-486 174-776 309-233 110-493 436-658 459-536 77-268-1378-233-1784 52-600-269-3150-388-3776-115-604-249-1172-354-1759-230-1287-849-6713-140-7811zm6285 1571c-597 273-1282 251-2075 144-1369-185-2869-781-3470-1598-136-184-444-458-342-790 139-452 348-528 750-249 641 444 678 599 1606 897 2765 887 2867-101 4036-33 183 880 378 1225-505 1629zm-22647-5844c935-135 269 535 140 1926-125 1340 510 3126 1465 4094 87 88 1089 705-111 857-833 106-1132-696-1374-1179-517-1029-1112-2653-979-3884 37-341 135-819 230-1139 135-459 171-610 629-675zm363 7093c-420 190-1431-59-1901-133-656-102-1278-185-1949-276-664-91-1338-143-2001-241-2020-299-2455-394-4402 122-228 60-432 232-729 115-372-148-396-231-905-215-409 14-539 141-674-258-176-516 3-1230 373-1508 170-127 545-121 784-194 794-244 1350-487 2091-830 2249-1039 5669-4013 7994-3702-24 299-195 658-268 996-73 339-162 790-170 1134-24 1064 470 2622 897 3552 125 271 271 496 429 725 122 178 366 505 431 713zm291-5110c236-3116 1019-964 1893-1295 305-763-771-274-547-1013 505-62 2763 1243 3228 1528 301 185 2517 1862 2576 2018-1 517-374 1213-575 1650-357 775-206 801-1105 959-701 123-1240-105-1925-23-419 50-1379 362-1634 304-1046-237-2018-2704-1911-4128zm16021-939c19-267 226-478 353-726 482-949 884-1834 1661-2595 833-818 730-991 1579-1532 440-280 731-494 1352-644 1730-417 1499-150 2207 1370 222 478 473 824 558 1415 229 1594-117 2121-663 3397-1018 2380-252 1838-1931 2263-709 180-981 164-1761-27-568-138-1162-253-1624-569-718-492-1019-569-1008-1080 24-1038-105-809-723-1272zm-7934 1945c-789-159-1526-830-2133-1329-613-504-1250-981-2038-1398l-2329-1160c-1143-527-1804-153-1101-1783 358-830 730-1566 1083-2431 341-834 668-1664 1055-2465 387-800 813-1484 1177-2319 267-611 739-1888 1255-2133 231 204 310 959 482 1337 352 771 1581 2529 2121 3466 486 842 1080 1404 1647 2155l1176 1640c594 743 574 263 148 1358-307 790-388 1396-877 2412-169 351-1453 2510-1666 2650zm-1997-18624c262 127 1007 854 1626 572 698-318 1144-79 1676-575 189-176 380-428 562-630 933-1029 1179-1093 1346-2321 411 111 797 306 1208 451 1038 364 2789 839 3836 1041 1483 285 1903 182 1971 1178 57 825 391 1507 706 2137 666 1335 1058 2683 1548 4235 194 612 472 1560 774 2097 215 382 824 1590 759 2087-423 344-1309 335-1833 591-648 316-1032 600-1494 1027-470 434-1953 2320-2292 2916-386 678-1089 2513-1777 1941-412-343-1323-1686-1645-2156-172-251-330-520-509-751-168-216-385-424-595-636-697-703-1020-1438-1671-2135-233-249-366-431-567-703-397-537-743-912-1132-1409-325-414-595-990-940-1518-1342-2057-2954-4006-1557-7439zm-1588-13678c787 22 844-309 1548 364 433 413 816 537 1395 422 369-74 340-125 688-86-24 212-20 733-1 935 84 881 36 1686 344 2663 169 537 770 2863 716 3343l-32 294c-230-26-461-84-724-133-661-125-1956-433-2339-1022-455-700-529-1662-635-2430-31-232-27-422-54-668-94-865-426-2609-789-3375l-117-307zm595 11252c302 65 333 304 426 570 421 1195 1529 1378 1518 576-6-408-444-1036-638-1368-352-602-714-439-1033-997-468-818-215-1111-531-1444-221-232-278-289-478-553-550-723-1339-1612-1721-2276-689-1197-1445-1530-2030-2955-895-2179-358-3264-549-4143-68-312-189-448-160-805 60-750 678-1497 1151-2001 332-355 1200-1248 1701-1218 414 963-108 1286 1612 3691 127 177 224 384 336 578 155 267 329 202 377 514-181 230-499 206-807 87-161-63-163-115-275-216-392-353-617 195-131 546 245 176 266 280 378 549 244 588 661 2213 771 2844 147 849-11 2244 401 3158 177 393 437 970 733 1149 1782 1083 3881-39 4744 3107 181 658-306 988-602 1317-324 360-550 659-907 1034-735 773-1393 532-1709 596-289 59-299 264-1088-129-500-250-611-634-840-1062-164-307-621-819-649-1149zm34309-17519c540 2 1014 650 1301 930 729 709 1751 1731 1163 2818-153 284-888 782-1177 969-315 204-451 26-743-153-746-458-1256-797-1681-1594-367-689-80-1099 308-1566 804-970 501-963 829-1404zm-26578 3871c-671-122-1584 652-1985 920-523 349-1274 732-1810 1076-850 547-2141 1375-2957 165-429-636-548-376-1340-1645-476-765-1217-1849-1361-2929-165-1240-345-1302 628-1933 598-388 1072-781 1762-1133 850-435 3223-1156 4236-1444 678-192 1517-417 2231-549 753-139 1947-57 2516 379 207 159 429 600 638 824 617 660 1737 1588 2601 1925 692 270 2958 868 3696 120 345-350 235-758 246-1245 333 123 1165 1019 1379 1273 414 490 1662 1502 1942 2007 137 247 216 628 267 944 386 2356 1704 4406 476 5912-784 960-3196 1648-3556 1317-207-299 86-1131 121-1584 58-772 645-4919 447-5192-209-156-468-73-564 79-138 220-21 1449-36 1947-22 738-318 3460-466 4279-652 3591-520 2908-1971 5971-283 598-47 284-514 1087-546 937-408 1897-1209 1886-973-13-5310-1213-6363-1629-135-53-493-187-589-247-227-143-335-1092-1186-1762-686-540-354 72-566-1555-100-762-276-1558-466-2300-198-774-410-1409-498-2311-50-509-3-931 81-1450 58-358 22-378 237-544 419-323 2578-1657 3150-1960 329-175 746-235 783-699zm14018 4177c511 306 132 642-140 936-457 492-15 758 388 266 387-471 307-429 848-723 320-174 581-368 1010-465 410-93 844-65 1262-194 444-136 693-259 1135-369 759-190 1513-424 2279-654 814-244 1443-624 1903-1185 334-408 74-325 115-1270 9-223-41-421-40-654 10-1383 199-2186 1168-2915 330-248 1438-1097 2004-977-71 1074-683 1294-1300 1634-537 295-431 290-371 918 40 414-170 962-11 1287 437 126 180-126 545-168 233 306-68 512 324 642 146-96 163-176 271-323 300 152 440 507 798 750 335 228 600 364 897 613-83 389-678 783-999 879-560 168-1069-230-1541 188-347 308-659 502-996 869-328 357-556 619-895 995-309 343-554 727-860 1040l-1941 1800c-326 292-721 473-1030 771-979 945-3148 1970-5048 2142-498 44-1160 97-1656 57-705-57-972-329-1251-700-376-501-898-1924-641-2833 252-127 871-156 1207-277 1514-548 1671-833 2566-2080zm-9017-16213c-23-684-923-209-1380-780-287-359-390-1084-218-1671 161-550 791-1035 1078-267 122 327 110 451 416 600 805 392 1330-715 1564-1411 432-1286 84-2163 2158-1956 874 88 1569-8 1499 585-585 64-1953-160-1625 709 407 156 949-306 1489-202 223 43 106 7 169 82 171 212-94 742-228 895-489 26-861-50-1311 85-325 97-858 350-663 779 345 177 367-129 666-213 382 128 300 547 769 512 498-38 195-560 583-659 169 230 124 414 183 732 101 553 972 1260 800 1989-488 146-643 17-967 404-381 453 50 605-96 1110-923 316-1357-692-1670-421-326 309 237 754 528 848 608 197 1624-111 253 1459-235 269-881 29-1242-16-1050-128-1923 11-2466-723-656-889-265-1867-1077-1627-73 342 296 1114 442 1422 1029 2184 1656 449 2219 1786 252 598 103 572 252 1541 597 60 1014-29 1431 1025 711 1795-2506 883-3227 628-563-199-1044-617-1527-961-1171-834-1537-1357-1556-3102-10-916-94-1230 445-1902 172-214 488-317 589-600 106-299-14-687 37-1061 627 63 669 662 1683 381zm1565-9589c223 144 431 370 787 337 165-575-349-739-416-1230 495 99 1139 658 1476 926 943 752 604 1098 1133 1153 187-305 120-618 193-1022 597 260 1801 2560 500 3393-377 240-897 164-1422 112-1200-118-1958-161-2399 841-295 671-443 2242-1039 2509-453-117-606-964-1308-985-1393-42-1286 2371-1256 3285 9 277 152 712-49 920-78 81-241 125-349 230-138 135-91 166-269 265-283-140-429-452-676-695-574-565-710-101-827-20-573-225-611-2222-876-2841-591-28-279 161-615 242-315-273-333-1343-361-1790-55-858 346-1265 335-2046-130-97-289-124-383-218-184-323 927-1093 1082-1195l1094-634c642-333 124-400 36-616 98-155 461-275 718-338 500-122 2067 214 2782-11 83-675-422-513-667-959 737-332 2059-76 2776 387zm-257-1353c-58 519 126 441 119 705-827-110-690-426-2375-243-697 76-914 7-1055 407 139 267 479 376 521 651-999 119-1476-382-2546 211-92 52-134 81-241 143-73 43-226 122-273 161-309 256-148 501-131 614l-1189 794c-232 192-891 1014-922 1296-45 407 370 507 338 819-116 1113-493 506-70 2661 68 349 98 804 435 989 464 253 525-66 662 670 47 253 69 515 139 778 55 204 573 1187 722 1203 557 62 585-268 1088 198 120 111 197 261 243 429 73 268 6 921 18 1276 14 407 62 859-55 1215-83 249-232 194-509 128-684-165-1316-140-1989-23-1286 225-2628 624-3856 1078-187 69-326 130-517 188-371 113-746 185-1088 309-508 184-1006 389-1472 663-760 448-1489 980-2093 1612-135 141-210 237-373 368l-833 628c-304 190-504 472-839 676-239 145-918 966-1077 1212-910 1406-137 2134-268 3612-183 2065 1122 4027 2337 5563l1568 2128c430 532 825 1164 1055 1826 137 394 10 898-45 1417-69 643 368 1018 643 1488 572 981 557 476 214 1524-98 302-312 1004-344 1294-177 1599 56 1093-849 2277-691 904-1374 2382-1881 3434-122 254-192 470-321 711-393 736-593 1575-905 2373-191 485-1323 2680-1350 2929-63 561-63 771 227 1242 227 368 725 319 782 799-960-340-2322-383-3338-223-181 29-283 38-443 114-131 62-7 19-163 74-490 171-888 219-1365 463-252 129-440 229-692 359l-1998 1231c-229 149-406 270-648 413-349 204-665 435-1026 609-596 288-2114 1140-2652 1080-337-37-553-979-1769-542-829 298-1613 395-2147 1210-269 409-143 627-611 1183-351 417-463 735-155 1184 157 230 609 251 471 1492-29 266-435 610-548 928 57 110 284 331 400 393 552 295 473-94 631 919 35 229 116 383 88 642-2 10-224 232-250 467-19 172 132 574 228 707 182 252 315 300 385 627 62 286 119 494 86 720-72 493-704 835-5 1574 183 194 41 58 295 165 244 102 266 216 415 380 222 245 194 163 355 473-90 255-114 139-157 526 207 73 280 201 473 248 180 43 421 0 683 29 428 47 995 640 1362 539 105-30 175-95 278-158 135-82 163-77 254-239 377-670 394-1379 293-2115l-207-1348c-21-165-37-277-60-442l-78-693c-92-486 139-1046 203-1498 55-387 194-691 266-1059 415 259 476 205 906 20 175-76 243-187 334-362 332-636-37-1522-424-2003-178-221-577-540-616-797 1223-483 2313-487 3586-154 145 37 266 77 375 87l1273 155c324 35 512 4 883 47 513 58 839 172 1313 190 1228 47 3107 601 4034-127 174-137 243-181 426-301 241-157 666-382 959-471 805-246 1633-151 2486-175 626-18 1110-32 1509-562 447-594 491-1497 1031-1938 317-259 609-72 863-534 102-184 188-336 273-492 99-182 162-318 275-492l607-854c126-192 170-278 276-490 337-674 679-1412 910-2144 152-479 204-748 478-1072 282 110 489 543 682 790l1077 1496c172 297 1103 1355 1425 1664 325 312 793 381 1235 292 458-92 398 23 357 392-61 551-613 941-866 1421-180 343-176 524-239 980-41 294-199 717-193 994 14 659 21 1311 84 1939 36 355-36 664-9 1031 25 349 61 616 86 955 25 346 28 615 74 920 47 314 149 594 192 870 68 440 98 909 232 1327 144 449 287 1785 340 2309 80 774 267 1352 176 2174-36 326-535-129-1026 943-1037 2268-329 2024-228 3354 33 441 21 1500 652 1570 335 37 991-668 1132 74 22 120 57 310 100 409 77 174 433 439 641 467 57-147 109-154 197-311 143-258 126-296 411-265 154 17 491 248 570 345 268 331-66 780 519 1191 281 197 371-137 827-87 256 29 725 613 743 1141 17 499 25 588 736 485 403-58 970-154 1131 336 205 620 163 826 832 448 178-100 236-215 444-279 402-123 919-114 1422-58 151 17 749 819 1225-26 96-170 46-154 111-306 74-172 328-275 514-303 34-307-19-512-57-800-178-1352-1771-2389-2690-3144l-1946-1959c-445-717-169-684-346-1459-166-728-856-1353-1648-1441-143-15-1073 311-1026-114 134-1202 448-2339 955-3423 302-647 484-1349 766-1991 100-228 202-378 314-609 557-1144 1318-2769 1469-4020 108-899 737-1192 211-3121-83-306-93-490-66-827 66-804 1319-2696 1434-3740 44-391-14-837-33-1220-40-804-448-1219-737-1902-192-452-303-978-621-1373-133-165-191-191-268-409-248-704-58-795-664-1961-324-623-586-1218-785-1908l-330-983c-296-1075-948-2892-1409-3902-173-378-786-1524-739-1945 21-191 299-800 387-1074 132-410 217-795 356-1168 253-680 605-1372 923-2017 746-1517 766-1585 1314-3086 431-1180 265-953 384-2023 495 55 493 26 528 560 63 946 74 1644 627 2433l400 436c254 235 453 408 809 510 742 212 1711 59 2486-41l1515-337 1389-545c600-274 1152-631 1705-984 457-292 881-657 1292-1000 91-77 151-120 245-195 840-672 1689-1446 2347-2294l832-1074c245-293 606-703 932-893 1065-621 1308 19 2271-667l943-768c56-49 27-20 79-68l507-424c105-78 148-85 262-172 363-278 687-538 959-916 193-268 281-759 254-1115-10-125-46-255-91-360-354-830-974-1508-1630-2123-557-522-1079-917-1957-1015-691-77-1842 740-2339 1137-319 255-654 546-905 873-141 183-247 349-296 625-35 193 10 116-47 337-320 1237 317 2754-711 3561-529 416-707 460-1364 630l-1574 425c-714 186-1281 472-2053 550-402 41-732 95-1062 230-184 75-281 130-432 239-650 471-780 92-873-615-28-204-62-311-112-489l-252-956c-43-184-62-314-110-491-90-329-179-642-255-953l-496-1917c-220-685-382-1132-847-1681-64-76-70-80-142-154-7-7-17-18-24-25l-143-153c-593-689-1299-1279-1960-1903l-1338-1244c-871-783-1202-340-1379-1834 434 12 570 64 1026 114 984 109 1494-902 1732-1673 34-114 88-325 129-450 65-196 134-263 157-471 50-446-121-699 321-823 527-148 713-27 781-637 105-944-1124-1905-983-3175 24-212 82-311 137-500 157-545-155-1119-99-1622 17-158 293-491 394-621 539-695 450-1441 134-2205-173-418-917-1482-1345-1595-98-27-273 45-335 87-207 140-47 109-184 328-911-321-1321-1333-2703-1486-112-13-150 17-162 130zm-1779 9849c85-475-196-246-191-877 5-721-375-502-452-373-101 169-394 1521 643 1250zm3674 46881c-79 651 138 582 628 379 332-138 732-174 614-647-390-171-967 81-1242 268z"/>
    <path class="body" fill="#F0DCC8" d="M19255 59168c377 41 378 227 593 433 123 117 637 387 319 637-297 235-1060-587-912-1070zm36556-39928c-328 441-25 434-829 1404-388 467-675 877-308 1566 425 797 935 1136 1681 1594 292 179 428 357 743 153 289-187 1024-685 1177-969 588-1087-434-2109-1163-2818-287-280-761-928-1301-930zM33763 9982c-1037 271-744-1081-643-1250 77-129 457-348 452 373-5 631 276 402 191 877zm471 1093c-1014 281-1056-318-1683-381-51 374 69 762-37 1061-101 283-417 386-589 600-539 672-455 986-445 1902 19 1745 385 2268 1556 3102 483 344 964 762 1527 961 721 255 3938 1167 3227-628-417-1054-834-965-1431-1025-149-969 0-943-252-1541-563-1337-1190 398-2219-1786-146-308-515-1080-442-1422 812-240 421 738 1077 1627 543 734 1416 595 2466 723 361 45 1007 285 1242 16 1371-1570 355-1262-253-1459-291-94-854-539-528-848 313-271 747 737 1670 421 146-505-285-657 96-1110 324-387 479-258 967-404 172-729-699-1436-800-1989-59-318-14-502-183-732-388 99-85 621-583 659-469 35-387-384-769-512-299 84-321 390-666 213-195-429 338-682 663-779 450-135 822-59 1311-85 134-153 399-683 228-895-63-75 54-39-169-82-540-104-1082 358-1489 202-328-869 1040-645 1625-709 70-593-625-497-1499-585-2074-207-1726 670-2158 1956-234 696-759 1803-1564 1411-306-149-294-273-416-600-287-768-917-283-1078 267-172 587-69 1312 218 1671 457 571 1357 96 1380 780zm9017 16213c-895 1247-1052 1532-2566 2080-336 121-955 150-1207 277-257 909 265 2332 641 2833 279 371 546 643 1251 700 496 40 1158-13 1656-57 1900-172 4069-1197 5048-2142 309-298 704-479 1030-771l1941-1800c306-313 551-697 860-1040 339-376 567-638 895-995 337-367 649-561 996-869 472-418 981-20 1541-188 321-96 916-490 999-879-297-249-562-385-897-613-358-243-498-598-798-750-108 147-125 227-271 323-392-130-91-336-324-642-365 42-108 294-545 168-159-325 51-873 11-1287-60-628-166-623 371-918 617-340 1229-560 1300-1634-566-120-1674 729-2004 977-969 729-1158 1532-1168 2915-1 233 49 431 40 654-41 945 219 862-115 1270-460 561-1089 941-1903 1185-766 230-1520 464-2279 654-442 110-691 233-1135 369-418 129-852 101-1262 194-429 97-690 291-1010 465-541 294-461 252-848 723-403 492-845 226-388-266 272-294 651-630 140-936zm-21749 9471c28 330 485 842 649 1149 229 428 340 812 840 1062 789 393 799 188 1088 129 316-64 974 177 1709-596 357-375 583-674 907-1034 296-329 783-659 602-1317-863-3146-2962-2024-4744-3107-296-179-556-756-733-1149-412-914-254-2309-401-3158-110-631-527-2256-771-2844-112-269-133-373-378-549-486-351-261-899 131-546 112 101 114 153 275 216 308 119 626 143 807-87-48-312-222-247-377-514-112-194-209-401-336-578-1720-2405-1198-2728-1612-3691-501-30-1369 863-1701 1218-473 504-1091 1251-1151 2001-29 357 92 493 160 805 191 879-346 1964 549 4143 585 1425 1341 1758 2030 2955 382 664 1171 1553 1721 2276 200 264 257 321 478 553 316 333 63 626 531 1444 319 558 681 395 1033 997 194 332 632 960 638 1368 11 802-1097 619-1518-576-93-266-124-505-426-570zm15935 20104c275-187 852-439 1242-268 118 473-282 509-614 647-490 203-707 272-628-379zm-5011-999c618 463 747 234 723 1272-11 511 290 588 1008 1080 462 316 1056 431 1624 569 780 191 1052 207 1761 27 1679-425 913 117 1931-2263 546-1276 892-1803 663-3397-85-591-336-937-558-1415-708-1520-477-1787-2207-1370-621 150-912 364-1352 644-849 541-746 714-1579 1532-777 761-1179 1646-1661 2595-127 248-334 459-353 726zm-14128-356c-874 331-1657-1821-1893 1295-107 1424 865 3891 1911 4128 255 58 1215-254 1634-304 685-82 1224 146 1925 23 899-158 748-184 1105-959 201-437 574-1133 575-1650-59-156-2275-1833-2576-2018-465-285-2723-1590-3228-1528-224 739 852 250 547 1013z"/>
    <path class="boots" fill="#FFFFFF" d="M34340 77825c267 138 1178-86 1556-151 479-82 1113-128 1409-453-141-400-384-234-703-117-246 89-523 150-768 209-331 81-1353 294-1494 512zM6202 62566c52 521 117 652 70 1272-34 453-34 849 448 887 542-565-17-1952-518-2159zm-2174 1185c129-244 857-2391 4-1936-559 298-625 1680-4 1936zm75 657c45 60-27 134 267 286 129 66 233 108 372 149 1080 319 1196-423 289-392-338 12-651-74-928-43zm-940 1121c145-739-132-1039-632-1371-349-232-917-741-1299-856-106 827 198 957 690 1343 268 211 906 824 1241 884zm32089 10164c80-439-163-813-328-1093-170-289-398-755-879-413-442 314-111 1469 1207 1506zm1081-2708c-7 392 279 326 784 928 105 127 635 950 878 427 203-437-572-1653-1662-1355zm546 2670c294-8 346-131 526-272 306-239 321-62 520-303-484-117-960 111-1046 575zm-2448 456c239 378 1483 714 2069-112-257-58-666 139-958 155-305 17-915-164-1111-43z"/>
</svg>
