<svg xmlns="http://www.w3.org/2000/svg" data-kind="player" width="85" height="180" fill-rule="evenodd" clip-rule="evenodd" image-rendering="optimizeQuality" shape-rendering="geometricPrecision" text-rendering="geometricPrecision" viewBox="0 0 1916 4063">
    <path class="hair" fill="#000000" d="M1409 140c21-7 17-35 21-48 18-2 94 106 78 172-7 26-61 39-77 52-36 30-20 79-32 95-16-7-21-47-48-38-19 6-49 19-60 35-32 48 8 83-16 108-13 15-15 4-31 5-13 11-29 49-53 52-12-9-5-12-15-24-30-6-28 42-56 40-10-12-5-32-16-44-14-15-24 6-40 8-27-12-15-78-45-79-13 8-5 17-18 21-16-10-13-71-11-89 4-24 20-63-14-71-12 9-10 24-30 16-15-15 22-108 36-129 6-9 13-10 18-17 19-24-26-18-32-22 4-32 90-64 120-75 16-7 39-9 42-27l-16-17c21-23 147 10 147 10 23-4 5-28 5-39 15-6 69 26 83 35 62 42 46 58 60 70z"/>
    <path class="shirt" fill="#FF0000" d="M999 1446c11-11 32-27 29-43-3 1-152 116-171 130-29 20-58 44-86 66-44 33-99 44-78 65 13 13 38-10 50-18l89-63c70-52 104-74 167-137zm429-162c8 7 6 9 17 12 30-21 3-63 20-92 15 19 41 109 47 143 3 18 5 38 8 57 4 21 12 30-1 51-5 8-7 13-14 18-61 50-102 37-180 44-23 2-86-2-105-17-16-13-26-71-26-71-2-6-8-9-12-19l-40-89c-7-17-7-31-23-43-22 7-15 16-7 33 43 100 76 117 29 211-43 87-96 116-160 184-28 31-68 109-79 149-45 0-46-13-82-15-46-2-84 12-129 12-48-1-32 8-88-3-12-3-31-3-40-10 8-4 120-37 186-70 36-19 49-17 41-41-14-5-50 21-83 34l-91 32c-33 11-60 20-95 27-26 6-32-3-53-4s-38-3-60-3c0-17-1-37 0-54l4-53c8-8 14-8 23-14 8-5 14-14 21-20 13-12 31-20 44-32s26-29 39-39c16-13 38-25 12-43-22 7-67 75-99 86-4-26 11-90 13-120 2-37 20-74 25-109l23-144c39-163 36-216 163-344 16-15 75-54 58-71-20-9-29 14-46 26-29 22-56 60-80 80-12 9-27 36-37 44-32-14-117-148-100-178-8-10-9-7-11-21-2-9-1-24-1-34 27-12 93-19 124-25 20-5 115-23 127-19-1 15-62 51-57 70l26 2c18-20 37-39 56-58 10-10 20-20 33-25 22-9 12-14 33-24 32-16 86-42 122-51 7-1 45-5 52-5 18 30 9 37 54 85 20 21 58 42 85 55 15 8 32 13 47 21 66 32 86-4 164 117 10 15 20 29 29 43 15 26 40 62 52 88 31 71 36 73 31 139-1 11 0 22-1 34-4 28-8 30-8 63z"/>
    <path class="shorts" fill="#FFFFFF" d="M1339 2307c-32 15-24 12-50 34-7 6-47 13-62 21-20 10-34 17-54 28-12 8-38 34-48 34l-38-97c-7-17-12-34-17-52-13-54-17-116-31-172-6-20-5-41-9-59-6-22-15-30-15-55l251 230c29 35 73 65 73 88zm-209 508c-26-1-24-17-49-20-60-7-59 4-92 8l-83 23c-36 12-72 23-109 31-28 6-121 10-131 0-7-13 4-20 1-38-5-35-16-87-31-118-31-65-66-132-102-194-6-11-10-20-16-32-30-49-64-110-98-151-25-31-53-94-66-132-4-14-21-65-21-77-2-57-3-86 13-136 6-21 2-26 5-44 3-16 18-59 23-77 11-35 10-10 71-9 95 1 153 47 257 33 65-8 115-14 181 2 10 2 62-2 73 24 16 37 45 109 48 150 2 33 22 98 23 126 0 29-7 0 4 38 9 31 20 85 34 116 35 75 38 120 49 197 4 29 7 61 10 91 5 50 8 67 4 115-1 9 1 12 2 22 1 16 0 35 0 52z"/>
    <path class="socks" fill="#FF0000" d="M615 3031c28 71 112 162 183 195 13 6 33 12 47 17 21 6 44 1 56 7 5 21-92 82-115 97-17 11-31 16-47 28-29 21-60 37-88 59-30 23-59 33-89 56-26 21-55 47-81 66-37 25-140 97-157 135-1 1-33 40-34 40-12 8-48 5-58-10-9-12-17-36-22-50-4-13-25-48-25-49-1-10 55-67 65-80 12-15 24-19 35-36 23-33 70-103 83-138 14-39 20-67 43-103 28-41 76-151 108-185 14-15 77-51 96-49zm751-244c12 46-5 122-20 166-18 54-36 85-61 135-9 17-20 50-27 70-9 25-21 42-28 69-8 32-14 46-18 80l-10 87c-11 7-24 8-33 18-14 17-3 18-32 23-15 3-32 3-46-3-20-9-18-5-29-25-8-14-4-29 0-44 5-19 3-31 6-48 1-8 5-15 6-21 2-11-3-10-5-21 0-7 7-73 3-102-3-19-1-35-3-52-3-20-22-71-12-88 25-46 33-57 40-120 2-12 3-40 6-49 32-14 22 4 47-30 25-32 4-28 10-56 25 0 65 49 157 28 12-2 47-17 49-17zm-7-29c-11 8-34 15-47 18l-59 1c-24 0-75-21-94-37-1-17 1-17 3-31 23-1 91 19 172 1 11-3 12-5 25-4v52zm-425 419c2 18 2 17-6 32-50 10-57 10-106-3-91-26-188-167-182-188 7-10 28-23 40-22 6 6 15 23 22 31 6 8 19 22 26 29 33 33 134 112 183 121 16 3 8-2 23 0z"/>
    <path class="outline" fill="#000000" d="M1028 1403c3 16-18 32-29 43-63 63-97 85-167 137l-89 63c-12 8-37 31-50 18-21-21 34-32 78-65 28-22 57-46 86-66 19-14 168-129 171-130zM318 3848c-39-24-28-21-93-4-16 4-21 4-38 6 9 6 17 8 27 12 24 8 48 1 72-3 23-5 26-2 32-11zm93-40c-9-9-10-3-20-16-13-18-38-50-46-66-16 0-24 1-26 17 6 9 31 26 42 38 14 15 25 30 50 27zm856-242c-15 17-21 32-40 48l-43 46c20 0 31 4 52 2 10-12 4-14 20-25 9-6 18-13 26-20 11-9 41-35 43-49l-58-2zm-6-78c-1-15-15-24-26-33-22-17-14-14-25-32-28-2-24 28-14 39 6 5 12 11 18 16 13 13 4 10 10 21 21 1 22 2 37-11zm-646-457c-19-2-82 34-96 49-32 34-80 144-108 185-23 36-29 64-43 103-13 35-60 105-83 138-11 17-23 21-35 36-10 13-66 70-65 80 0 1 21 36 25 49 5 14 13 38 22 50 10 15 46 18 58 10 1 0 33-39 34-40 17-38 120-110 157-135 26-19 55-45 81-66 30-23 59-33 89-56 28-22 59-38 88-59 16-12 30-17 47-28 23-15 120-76 115-97-12-6-35-1-56-7-14-5-34-11-47-17-71-33-155-124-183-195zm319 146c-15-2-7 3-23 0-49-9-150-88-183-121-7-7-20-21-26-29-7-8-16-25-22-31-12-1-33 12-40 22-6 21 91 162 182 188 49 13 56 13 106 3 8-15 8-14 6-32zm77-349c-13 3-32 5-45 9-14 5-24 11-40 15-43 11-86 26-130 35-33 7-72 3-104 5-1 16 8 34 8 57 0 27-4 30 13 51 19 24 36 48 60 65 23 16 52 41 76 53 63 34 40 30 94 26 24-77 47-80 68-104 6-6 6-11 12-17 7-7 7-3 13-12 22-30 21-61 26-89 5-26 16-72 3-99-24-1-32 0-54 5zm355-41c-2 0-37 15-49 17-92 21-132-28-157-28-6 28 15 24-10 56-25 34-15 16-47 30-3 9-4 37-6 49-7 63-15 74-40 120-10 17 9 68 12 88 2 17 0 33 3 52 4 29-3 95-3 102 2 11 7 10 5 21-1 6-5 13-6 21-3 17-1 29-6 48-4 15-8 30 0 44 11 20 9 16 29 25 14 6 31 6 46 3 29-5 18-6 32-23 9-10 22-11 33-18l10-87c4-34 10-48 18-80 7-27 19-44 28-69 7-20 18-53 27-70 25-50 43-81 61-135 15-44 32-120 20-166zm-7-81c-13-1-14 1-25 4-81 18-149-2-172-1-2 14-4 14-3 31 19 16 70 37 94 37l59-1c13-3 36-10 47-18v-52zm-201-29c24 1 48 9 72 9l113-8c8-1 20-9 25-15 8-9 19-39 25-52 21-41 30-84 24-130-8-54 3-9-15-64-9-26-38-99-75-73-23 16-21 21-50 30-22 8-38 8-61 19-16 8-33 21-48 30-52 36-32 43-30 79 3 50 7 61 14 104 3 23 1 48 6 71zm-28 138c0-17 1-36 0-52-1-10-3-13-2-22 4-48 1-65-4-115-3-30-6-62-10-91-11-77-14-122-49-197-14-31-25-85-34-116-11-38-4-9-4-38-1-28-21-93-23-126-3-41-32-113-48-150-11-26-63-22-73-24-66-16-116-10-181-2-104 14-162-32-257-33-61-1-60-26-71 9-5 18-20 61-23 77-3 18 1 23-5 44-16 50-15 79-13 136 0 12 17 63 21 77 13 38 41 101 66 132 34 41 68 102 98 151 6 12 10 21 16 32 36 62 71 129 102 194 15 31 26 83 31 118 3 18-8 25-1 38 10 10 103 6 131 0 37-8 73-19 109-31l83-23c33-4 32-15 92-8 25 3 23 19 49 20zm209-508c0-23-44-53-73-88l-251-230c0 25 9 33 15 55 4 18 3 39 9 59 14 56 18 118 31 172 5 18 10 35 17 52l38 97c10 0 36-26 48-34 20-11 34-18 54-28 15-8 55-15 62-21 26-22 18-19 50-34zM553 1024c-26-18-75-87-86-111-5-10-4-16-11-27-13-22-1-14-17-42-6-10 1-5-9-10-21 10-81 75-97 91-17 17-27 36-41 54-10 14-39 24-55 39-5 30 5 37 17 62 20 41 11 26 19 58 22 92 77 123 124 185 8 11 5 14 16 25 6 6 13 12 18 19 20 25 24 40 36 40l14-121c5-18 8-36 10-56 7-58 25-49-17-87-12-11-28-14-35-22 3-10 5-11 14-18 23 17 8 17 76-10 8-20 27-46 24-69zm743 524c0 22 7 34 16 52 29 59 24 45 59 79 9 9 23 27 33 33 55 36 37 27 78 57 12 9 28 19 40 29 9 8 14 19 46 2 30-15 35-55 57-78s77-11 100-169c7-44 1-85 6-129 4-33-4-63 12-123 14-57 8-46 40-94 14-22 48-52 70-65 12-8 31-21 33-35 6-42-23-143-44-157-28-19-84 1-117 4-8 1-21-1-27 7-21 28 24 23 30 63 3 21 6 103-24 102-15-6 1-69-2-90-1-8-4-18-6-27l-15 1-17 55c-10 45 21 87 11 120-2 9-17 38-23 46-11 13-22 16-35 36-5 9-5 16-11 24-5 7-10 9-15 18-9 14-16 31-25 44-12 17-18 31-18 52 28 20 25 44 39 64 20 29 37 97 7 122-13-11-12-51-18-71-5-15-2-18-11-35-7-14-7-20-17-26-41 66-111 84-184 87l-28-1c-16 0-24 3-40 3zm132-264c0-33 4-35 8-63 1-12 0-23 1-34 5-66 0-68-31-139-12-26-37-62-52-88-9-14-19-28-29-43-78-121-98-85-164-117-15-8-32-13-47-21-27-13-65-34-85-55-45-48-36-55-54-85-7 0-45 4-52 5-36 9-90 35-122 51-21 10-11 15-33 24-13 5-23 15-33 25-19 19-38 38-56 58l-26-2c-5-19 56-55 57-70-12-4-107 14-127 19-31 6-97 13-124 25 0 10-1 25 1 34 2 14 3 11 11 21-17 30 68 164 100 178 10-8 25-35 37-44 24-20 51-58 80-80 17-12 26-35 46-26 17 17-42 56-58 71-127 128-124 181-163 344l-23 144c-5 35-23 72-25 109-2 30-17 94-13 120 32-11 77-79 99-86 26 18 4 30-12 43-13 10-26 27-39 39s-31 20-44 32c-7 6-13 15-21 20-9 6-15 6-23 14l-4 53c-1 17 0 37 0 54 22 0 39 2 60 3s27 10 53 4c35-7 62-16 95-27l91-32c33-13 69-39 83-34 8 24-5 22-41 41-66 33-178 66-186 70 9 7 28 7 40 10 56 11 40 2 88 3 45 0 83-14 129-12 36 2 37 15 82 15 11-40 51-118 79-149 64-68 117-97 160-184 47-94 14-111-29-211-8-17-15-26 7-33 16 12 16 26 23 43l40 89c4 10 10 13 12 19 0 0 10 58 26 71 19 15 82 19 105 17 78-7 119 6 180-44 7-5 9-10 14-18 13-21 5-30 1-51-3-19-5-39-8-57-6-34-32-124-47-143-17 29 10 71-20 92-11-3-9-5-17-12zm-264-699c-5 4-33 34-46 34-21 1-24-37-32-48-17 5-46 43-60 56-30 28-7 52 14 76 36 40 90 51 113 63 13 6 22 18 37 20 6-10 10-26 16-36l21-27c28-38 47-36 52-49-7-11-37-14-50-25-19-16-20-26-27-48-10-2-8 4-20-5-7-5-9-8-18-11zm238-143c-11-3-9-5-16-7-9-3-10 0-17-3-12-5-7-19-14-29-19-5-34 4-43 20-5 10-9 47-6 57 12 13 25 5 31 25l-11 11-18-3c-23 24-23 36-57 38l-29 29c0 5 16 46 20 50l106 38c18 3 43-1 56-15 5-38-14-39 10-79 15-25 4-53 28-66 20 11 6 22 10 39 26 1 6-52-3-78-5-17-5-7-15-20 2-12 6-13-2-26-12-1-14 12-30 19zm43-101c-13 14-15 45-14 63 10 1 7 1 15-1 20-5 27 8 37-1 13-28-27-16-25-41 10-9 20-5 36-3v-19c0-11-2-10-3-20-12 1-38 13-46 22zm-36-201c-14-12 2-28-60-70-14-9-68-41-83-35 0 11 18 35-5 39 0 0-126-33-147-10l16 17c-3 18-26 20-42 27-30 11-116 43-120 75 6 4 51-2 32 22-5 7-12 8-18 17-14 21-51 114-36 129 20 8 18-7 30-16 34 8 18 47 14 71-2 18-5 79 11 89 13-4 5-13 18-21 30 1 18 67 45 79 16-2 26-23 40-8 11 12 6 32 16 44 28 2 26-46 56-40 10 12 3 15 15 24 24-3 40-41 53-52 16-1 18 10 31-5 24-25-16-60 16-108 11-16 41-29 60-35 27-9 32 31 48 38 12-16-4-65 32-95 16-13 70-26 77-52 16-66-60-174-78-172-4 13 0 41-21 48zM100 3893c-10-4-39 17-52-6-6-11-1-21-5-32-3-8-11-13-17-20-81-98 50-222 87-226 25-2 30 21 49-11 12-21 33-45 52-60 8-7 10-13 17-20 52-48 92-108 117-176 33-88 39-79 74-146 9-18 13-33 25-50 46-72 28-76 102-118 27-15 10-15 47-26 4-1 48-21 50-23 11-10 20-39 22-53 3-25-11-31-24-47-23-30 9-72-37-178-38-90-63-117-100-192l-54-96c-17-29-41-57-61-85-39-55-72-139-86-205-15-73 9-183 34-253 15-42 38-59 40-106 1-21-2-47 10-65 10-15 24-22 30-42l17-131c5-40 34-76 3-110-67-71-76-81-133-160-81-110-42-74-72-152-6-18-18-32-24-49-19-51 16-61 46-85 15-11 23-25 34-40 20-25 90-90 115-107 41-28 5-62 58-81 58-22 58-23 121-28 42-3 86-13 129-18 60-7 58-20 105-43 20-10 87-35 108-40 35-8 86 12 106-27 27-52-30-54-49-69-38-29-22-85-19-121 3-42-54 20-52-57 2-51 35-92 36-109 3-35-50-20 11-80 31-32 51-42 93-57 54-18-16-40 45-56 91-24 94 3 127 0 24-2-19-63 69-25 15 7 35 15 49 23 15 8 33 30 43 34 24 9 18-47 75 14 47 51 98 130 66 200-22 47 12 88-16 122-31 39-44 28-21 105 22 73-37 49-54 78-21 34 22 70-40 101-42 20-78-12-117 14-15 11-62 65-56 84 7 20 37 10 82 61 54 62 135 207 162 279 14 36 26 72 39 108 13 37 22 74 38 109 9-17 19-37 32-52 11-13 22-37 33-53 16-21 60-41 30-120-17-44 13-93 25-134 18-63 22-53 104-65 24-4 48-14 70 0 23 14 31 14 41 42 10 24 39 107 37 129-5 94-119 77-143 195-22 114-7 96-15 154-3 24 1 59-1 85 0 16-8 54-12 70-27 116-79 122-106 150-33 36-19 64-82 87-33 12-56-18-79-36-8-6-20-13-25-18-14-12-4-9-24-19-14-7-63-47-71-55-11-14-31-32-39-44-17-24-34-58-45-85-4-9-5-21-9-31-52-20-53-5-78-56-14 11-38 79-55 102-10 13-27 27-39 42l-79 79c-25 18-93 129-83 145 21 18 18-8 40 32 7 14 17 31 27 44 40 49 32 34 71 72 35 34 221 212 259 243 28 22 44 53 56 87 4 9 21 30 28 43 44 80 47 141 15 224-8 19-40 89-40 104 2 41 14 94 12 132-2 32-16 87-24 119-10 35-68 162-86 201-20 42-28 59-38 106-14 70-3 65-5 89-2 11-8 14-5 26 9 7 27 4 45 14 97 50 22 82 27 93 12 12 19 5 31 12 13 7 9 9 27 11 15 1 48 14 64 19 33 10 76 2 137 38 41 23 59 73 12 102-32 20-45 7-57 32-10 18-23 39-46 37-6-10-14-36-19-44l-51-3c-11 11-5 24-18 31-9 5-28 10-39 7l-21-35c-17-2-34-1-50 4-8 12-10 32-32 29-20-3-20-22-30-33-13-2-56-5-67-2-3 15 14 74-46 34-18-12-11-15-20-31-4-3-65-3-98-34-27-24-32-62-32-97 0-41 11-126 34-160 20-28 12-13 37-26 12-31 10-121 9-158 0-22-5-51-9-73-3-15-6-62-16-69-11 3-27 33-32 45-13 29-11 39-16 65-18 85-89 127-147 171-32 23-62 41-95 62-19 13-30 16-48 33-14 13-33 21-50 30-57 31-130 92-181 137-15 14-26 24-43 38-14 11-29 24-42 34 21 15 34-7 66 52 18 33 15 39 45 69 35 35 9 21 63 55 20 14 48 35 68 46 15 8 20 20 29 31 12 14 15 25-1 38-35 28-79 48-124 47-33 0-19 8-37 21-11 9-25 17-40 11-21-10-8-23-19-39-9-4-33-7-42-1-12 8-37 52-54 13-8-19 5-19 4-34-4-4-40-19-47-19-14 6-23 36-52 18-5-3-16-17-17-22-2-9 8-12 13-20-2-3-43-28-48-29-13-2-33 23-61 8-11-17 5-24-5-43zm901-867c-4 14-13 17-27 20-40 9-40 14-60-13-9-11-12-18-1-29 13 0 14 8 22 16 44 3 49-18 66 6zm304-393c-1-28 29-24 49-25 6-9 7-30 24-25 16 3 14 47-32 56-15 3-29 6-41-6z"/>
    <path class="body" fill="#F0DCC8" d="M1001 3026c-17-24-22-3-66-6-8-8-9-16-22-16-11 11-8 18 1 29 20 27 20 22 60 13 14-3 23-6 27-20zm401-2584c16-7 18-20 30-19 8 13 4 14 2 26 10 13 10 3 15 20 9 26 29 79 3 78-4-17 10-28-10-39-24 13-13 41-28 66-24 40-5 41-10 79-13 14-38 18-56 15l-106-38c-4-4-20-45-20-50l29-29c34-2 34-14 57-38l18 3 11-11c-6-20-19-12-31-25-3-10 1-47 6-57 9-16 24-25 43-20 7 10 2 24 14 29 7 3 8 0 17 3 7 2 5 4 16 7zm-238 143c9 3 11 6 18 11 12 9 10 3 20 5 7 22 8 32 27 48 13 11 43 14 50 25-5 13-24 11-52 49l-21 27c-6 10-10 26-16 36-15-2-24-14-37-20-23-12-77-23-113-63-21-24-44-48-14-76 14-13 43-51 60-56 8 11 11 49 32 48 13 0 41-30 46-34zm132 963c16 0 24-3 40-3l28 1c73-3 143-21 184-87 10 6 10 12 17 26 9 17 6 20 11 35 6 20 5 60 18 71 30-25 13-93-7-122-14-20-11-44-39-64 0-21 6-35 18-52 9-13 16-30 25-44 5-9 10-11 15-18 6-8 6-15 11-24 13-20 24-23 35-36 6-8 21-37 23-46 10-33-21-75-11-120l17-55 15-1c2 9 5 19 6 27 3 21-13 84 2 90 30 1 27-81 24-102-6-40-51-35-30-63 6-8 19-6 27-7 33-3 89-23 117-4 21 14 50 115 44 157-2 14-21 27-33 35-22 13-56 43-70 65-32 48-26 37-40 94-16 60-8 90-12 123-5 44 1 85-6 129-23 158-78 146-100 169s-27 63-57 78c-32 17-37 6-46-2-12-10-28-20-40-29-41-30-23-21-78-57-10-6-24-24-33-33-35-34-30-20-59-79-9-18-16-30-16-52zm-743-524c3 23-16 49-24 69-68 27-53 27-76 10-9 7-11 8-14 18 7 8 23 11 35 22 42 38 24 29 17 87-2 20-5 38-10 56l-14 121c-12 0-16-15-36-40-5-7-12-13-18-19-11-11-8-14-16-25-47-62-102-93-124-185-8-32 1-17-19-58-12-25-22-32-17-62 16-15 45-25 55-39 14-18 24-37 41-54 16-16 76-81 97-91 10 5 3 0 9 10 16 28 4 20 17 42 7 11 6 17 11 27 11 24 60 93 86 111zm941-685v19c-16-2-26-6-36 3-2 25 38 13 25 41-10 9-17-4-37 1-8 2-5 2-15 1-1-18 1-49 14-63 8-9 34-21 46-22 1 10 3 9 3 20zm-116 2244c-17-5-18 16-24 25-20 1-50-3-49 25 12 12 26 9 41 6 46-9 48-53 32-56zm-220 94c-5-23-3-48-6-71-7-43-11-54-14-104-2-36-22-43 30-79 15-9 32-22 48-30 23-11 39-11 61-19 29-9 27-14 50-30 37-26 66 47 75 73 18 55 7 10 15 64 6 46-3 89-24 130-6 13-17 43-25 52-5 6-17 14-25 15l-113 8c-24 0-48-8-72-9zm-215 467c-54 4-31 8-94-26-24-12-53-37-76-53-24-17-41-41-60-65-17-21-13-24-13-51 0-23-9-41-8-57 32-2 71 2 104-5 44-9 87-24 130-35 16-4 26-10 40-15 13-4 32-6 45-9 22-5 30-6 54-5 13 27 2 73-3 99-5 28-4 59-26 89-6 9-6 5-13 12-6 6-6 11-12 17-21 24-44 27-68 104z"/>
    <path class="boots" fill="#FFFFFF" d="M318 3848c-6 9-9 6-32 11-24 4-48 11-72 3-10-4-18-6-27-12 17-2 22-2 38-6 65-17 54-20 93 4zm1007-280c-2 14-32 40-43 49-8 7-17 14-26 20-16 11-10 13-20 25-21 2-32-2-52-2l43-46c19-16 25-31 40-48l58 2zm-64-80c-15 13-16 12-37 11-6-11 3-8-10-21-6-5-12-11-18-16-10-11-14-41 14-39 11 18 3 15 25 32 11 9 25 18 26 33zm-850 320c-25 3-36-12-50-27-11-12-36-29-42-38 2-16 10-17 26-17 8 16 33 48 46 66 10 13 11 7 20 16z"/>
</svg>
