<svg xmlns="http://www.w3.org/2000/svg" data-kind="player" width="89" height="179" fill-rule="evenodd" clip-rule="evenodd" image-rendering="optimizeQuality" shape-rendering="geometricPrecision" text-rendering="geometricPrecision" viewBox="0 0 2852 5747">
    <path class="hair" fill="#000000" d="M1090 150zm509 9c35 77 58 226 67 291-5 15-8 29-16 41-6-16-15-32-15-33-74-162-146-125-329-135-71-3-155 39-140 105l-3-8c-12 23-15 40-16 60-7-16-17-30-25-35-92-45-86 140-43 158-10 13-8 74-8 97-21-5-17 30-16 49 0 0-1-1-2-1-17-9-26-16-34 10-57-80-10-180-56-198-49-18 70-155-23-138 9-38 66-114 74-140 12-2 14-4 15-16v6c12-30 0-40-20-35 28-46 78-82 82-89l-1 2c20-16 71-19 26-56 205-8 295 53 247-53 218 127 222 201 236 118z"/>
    <path class="shirt" fill="#FF0000" d="M1404 1055c328 16 210 205 376 460 42 64 103 215 115 307-84-28-297 145-278 294-37-26-78-60-90-98 5-8 1-16-4-25 58-159 99-377 109-494 0-8-7-14-15-14s-14 6-14 14c-13 152-82 491-171 619-63 91-93 110-154 218-2 7 2 15 10 18 7 2 15-3 17-10 24-40 43-69 63-94-12 90-10 238 13 301-220-18-538 119-783 4-10-5-14-9-17-15 0-1-1-3-1-4-2-4-3-8-4-13-1-3-2-5-4-7-2-4-4-9-6-14-2-4-5-12-9-22 1-1 1-3 1-5 0-4 1-16 0-19-12-157-27-222-28-389 39-38 69-84 78-122 148 33 219-294 263-356 1 0 2-1 3-2 7-4 9-13 4-20-4-5-10-8-17-6-37 10-67 224-201 345-59 53-242-80-283-107-42-27-86-86-117-103 24-98 115-302 159-366 301-437 459-261 603-399 5 27 16 58 39 104 166 329 367 278 343 20z"/>
    <path class="shorts" fill="#FFFFFF" d="M1559 2997c148 302 260 351 288 749l-1 105c-159-43-424-13-569 120-2 0-3 1-4 1-2 2-3 4-4 6-21 20-39 42-53 66-31-71-65-288-66-304 0-2-1-4-1-6 10-150 14-300-11-450 16-12 62-29 77-37 8 1 14-6 15-14 0-7-6-14-14-14-147 48-103 44-91 157 19 177-13 436-27 641-9-11-20-20-33-26-68-35-181-15-288 1-76 12-149 21-198 6-28-8-57-16-85-24-45-14-88-29-126-54-10-6-20-14-30-22v-3c76-145 34-331 67-524 48-281 74-195 37-502-5-41-20-132 16-170 2 1 3 1 5 1 23 29 40 59 48 88 18 69 16 288 176 289 41 0 25-24 91-40 56-14-32-22 70-35 45-6 30-45 29-69 53-42-29-220-177-261-64-18-83-41-100-83 136 62 507 21 587 5 97-19 119-13 187-15 7 0 15-1 23-1 3 2 5 3 8 4l1-1c152 122 70 246 153 416z"/>
    <path class="socks" fill="#FF0000" d="M240 3899c-19 20-21 56-18 90-46-72-54-102 18-90zm1560 371l1 8c-23 79-393 88-424 0l2-4c10-23 20-41 28-57h1c74 34 304 75 382 3 4 17 8 33 10 50zm5 48c6 125-36 240-79 372-57 178-59 248-82 426-21 6-43 18-66 37-5 4-10 8-15 13-7 1-13 2-20 1-19-2-34-19-46-43-33-68-44-191-49-211-47-169-77-243-95-426-8-78 0-134 12-176 52 57 190 62 243 61 21 0 143-13 197-54zM420 4056c12 58 28 116 56 163 6 9 20 23 38 40-67-20-107-37-131-73-25-35-33-89-38-182l-1-18c0-4-1-36 6-43h2c16 11 33 20 51 28 5 27 11 56 17 85zm-104-69c2 50 5 91 10 124 4 21 9 39 15 55-39-34-46-59-78-113 0-4-1-7-3-10-1-6-4-17-6-31-4-29-7-70 5-90 2-4 5-7 9-9 2-2 5-3 7-3 3 0 5-1 7-2l19 5c2 0 12 6 21 9l5 4c-13 16-12 40-11 61z"/>
    <path class="outline" fill="#000000" d="M2578 1668c6-15 15-33 23-36 32 14 131 25 160-4 68 117 104 173-17 293-46 45-179-175-181-226 3-1 6-4 8-7 2-1 3-2 5-4 4-4 5-11 2-16zM1172 511l3-1c1-35 16-74 9-90l6 7c29-113 175-78 275-69 111 9 120 58 160 148 34 226 1 198-102 399-40 78-103 81-190 69-42-5-72-79-171-125-25-12-41-86-48-117 3-3 3-8 2-12-3-8-11-12-18-9 6-26 3-68 9-99 3-13-2-29-13-34-18-34-42-101 15-106 5 11 64 163 67 49 0-4-2-7-4-10zm485 16c11-8 23-24 29-52 15-64-80-512-112-319-57-44-288-218-251-133 1 3 23 39 29 49-87 46-365-71-255 42-11 4-23 10-30 19-41 29-158 168-66 136l1-1c-42 49-152 194-53 181 3 43-72 109 5 139-16 71 52 242 82 205-7 45-15 74-16 104-4 0-7 2-9 5-130 140-306-38-615 411-15 22-181 367-165 409-55 70-98 262-173 348-74 85-10 144 25 247 35 101 232 223 348 346v1c5 8 7 12 8 14-28 26-35 117-34 134 14 216 51 199-1 416-51 210-43 256-46 452-1 130-31 148-45 206-2 0-4-1-6-1-17-5-32-8-46-11-30-74-110-108-190-65-148 80-19 384-23 420-17 153 151 531 306 356 89-100 25-287 12-365 6 5 13 9 20 14 3 1 6 2 9 2 35 26 87 44 162 65 3 1 6 1 9 1 50 38 107 73 137 74 119 3 211-102 274-211 61 7 140-16 146-85v-3c4-76 10-151 16-226 18 94 44 214 71 233 0 1 1 2 2 3 29 31 78 24 116 17 11 12 25 22 43 28l-3-1c23 25 25 43 18 63-1 1-2 3-1 5-8 17-21 37-33 64-3 3-5 7-5 11-19 45-34 110-23 216 19 184 48 261 96 432 10 34 17 104 34 165-98-34-88 184-89 193-1 106-8 137 36 162 6 37 66 105 74 30 13 5 27 10 42 15 1 0 2 1 3 1-9 40 66 124 64 47 14 13 28 28 43 44 0 2-1 4-1 6-3 4-4 10-2 14-3 71 66 79 70 39 20 16 42 30 68 42-12 34 85 97 78 25 19 5 41 8 64 9 0 4 2 7 5 9 5 31 56 36 53-8 23-1 47-3 73-6 118-17 38-218-18-265-170-141-97-130-189-218-1-1-3-2-4-2-14-53-72-118-149-114 30-170 17-219 78-410 49-151 95-278 78-420 0-4 0-9-1-15-1-1-1-3-2-4-4-23-9-46-17-69-32-104 98-100 35-310 42 3 38-16 30-139-28-402-143-455-291-759-85-173 8-298-172-434l-1-1-1-1c-22-92-38-256-7-340 2-2 3-5 3-8 15-19 30-39 49-65 17-25 34-58 49-95 25 53 111 132 146 117 13 12 28 25 33 30 212 197 138 97 205 93 186-14 410-132 555-249 124-101 209-42 256-83 23 12 45 12 64-6 140-139 91-207 7-353-2-6-7-9-12-9-6-9-14-19-25-30-118-87-266 51-299 168-8 30-20 67-20 100-151 83-384-6-462 88-11-19-26-35-44-49 81 11-107-360-108-361-161-247-42-454-400-470l-3-18c65-1 117-23 151-90 101-198 137-184 108-391zm-587 255c14-2 16-22 14-50 0-1 1-1 1-1 1 3 1 6 1 8 3 43 33 121 64 136 103 48 119 120 180 128 14 2 27 3 40 4 2 88 6 301-132 211-106-68-210-254-179-382 5-21 7-38 8-51l3-3zm-61-521l3-4c-1 1-2 3-3 4zm82 316c-3-1-6-1-9 0 3-1 6-1 9 0zm56-97c-7-16-17-30-25-35-92-45-86 140-43 158-10 13-8 74-8 97-21-5-17 30-16 49 0 0-1-1-2-1-17-9-26-16-34 10-57-80-10-180-56-198-49-18 70-155-23-138 9-38 66-114 74-140 12-2 14-4 15-16v6c12-30 0-40-20-35 28-46 78-82 82-89l-1 2c20-16 71-19 26-56 205-8 295 53 247-53 218 127 222 201 236 118 35 77 58 226 67 291-5 15-8 29-16 41-6-16-15-32-15-33-74-162-146-125-329-135-71-3-155 39-140 105l-3-8c-12 23-15 40-16 60zm273 16c-30 94 0 127 55 211-22 31-82 20-83 3 1-8-5-14-13-15-8 0-15 6-15 14 1 27 15 34 39 41v-2c12 7 20 10 35 8 135-20 22-90 5-188 17-2 30-19 51-10-11 12-8 27 12 37 29 8 29-14 42-29 16 0 11 6 28 1 14-42-97-53-135-28 0-10 2-21 5-31 3-8 0-16-7-19-7-4-16 0-19 7zm-398 435c5 27 16 58 39 104 166 329 367 278 343 20 328 16 210 205 376 460 42 64 103 215 115 307-84-28-297 145-278 294-37-26-78-60-90-98 5-8 1-16-4-25 58-159 99-377 109-494 0-8-7-14-15-14s-14 6-14 14c-13 152-82 491-171 619-63 91-93 110-154 218-2 7 2 15 10 18 7 2 15-3 17-10 24-40 43-69 63-94-12 90-10 238 13 301-220-18-538 119-783 4-10-5-14-9-17-15l-1-4c-2-4-3-8-4-13-1-3-2-5-4-7-2-4-4-9-6-14-2-4-5-12-9-22 1-1 1-3 1-5 0-4 1-16 0-19-12-157-27-222-28-389 39-38 69-84 78-123 148 34 219-293 263-355 1 0 2-1 3-2 7-4 9-13 4-20-4-5-10-8-17-6-37 10-67 224-201 345-59 53-242-80-283-107-42-27-86-86-117-103 24-98 115-302 159-366 301-437 459-261 603-399zm549-434c-15 5-40-6-59-8-28-3-46 9-60-15 24-34 130-15 119 23zm-324-5c-4-50 106-42 115-34 8 8 8 22-3 26-8 3-29 1-38 1-25 0-53 8-74 7zm98 92c-15 9-51-5-33-32-21-8-65 34-67 3 0-20 45-31 62-34 35-5 116 37 72 47-27 7-10-4-34 16zm137 213s-38 20-86 15c-48-4-60-6-60-6s6 34 35 44c29 11 66 8 79 2s32-55 32-55zm371 1061c57 23 85 63 96 124 1 7 8 13 16 12 8 0 13-7 13-15-4-19-8-35-14-50 5 0 10-2 13-7 60-73 302 7 458-83 1 0 2-1 3-1v-1h1l1-1c1-2 2-3 3-5v-2h1v-5s0-1-1-2c-1-22 16-80 20-97 26-93 153-214 238-164 111 66-34 54-84 48-32-21-54 20-66 50-9 6-16 19-18 33-3 27 69 178 141 239-52 26-120-26-248 78-141 113-359 229-539 242-96 7 33 104-205-105-8-7-20-18-32-26v-5c-1-5-5-9-9-10-7-90 124-223 203-253 2 3 5 5 9 6zm-456 720c3 2 5 3 8 4l1-1c152 122 70 246 153 416 148 302 260 351 288 749l-1 105c-159-43-424-13-569 120-2 0-3 1-4 1-2 2-3 4-4 6-21 20-39 42-53 66-31-71-65-288-66-304 0-2-1-4-1-6 10-150 14-300-11-450 16-12 62-29 77-37 8 1 14-6 15-14 0-7-6-14-14-14-147 48-103 44-91 157 19 177-13 436-27 641-9-11-20-20-33-26-68-35-181-15-288 1-76 12-149 21-198 6-28-8-57-16-85-24-57-17-112-38-156-76v-3c76-145 34-331 67-524 48-281 74-195 37-502-5-41-20-132 16-170 2 1 3 1 5 1 23 29 40 59 48 88 18 69 16 288 176 289 41 0 25-24 91-40 56-14-32-22 70-35 45-6 30-45 29-69 53-42-29-220-177-261-64-18-83-41-100-84 135 63 507 22 587 6 108-21 123-12 210-16zm-11-15L351 3943h1c16 11 33 20 51 28 5 27 11 56 17 85 12 58 28 116 56 163 6 9 20 23 38 40-67-20-107-37-131-73-25-35-33-89-38-182 0-6 0-12-1-18 0-4-1-36 6-43h1l1035-1380zM260 1732c113 95 159 154 320 204-14 96-117 145-197 177-42-25-3-33-101-30-8-1-15 5-15 13-1 8 6 15 13 15 16 0 22-1 27-1 2 1 4 1 6 1h8c73 16 212 386 219 402 3 9 7 18 11 26l2 6v-1c1 5 3 9 6 13 100 220 98 74 221 184 134 121 68 171 69 192 0 106-32-17-76 75-1 0-2 1-3 1-63 15-60 39-82 39-137-1-134-209-149-267-48-177-386-347-428-473-32-94-92-149-32-219 75-85 138-315 181-357zm257 644c-33-79-77-175-123-236 32 1 72-18 108-47 0 87 1 168 11 257 2 10 3 18 4 26zm357 560s-1 0-1 1c0-1 1-1 1-1zM43 4083c47 59 24 34 117 114-13 35-1 74-3 111-38-43-19-24-84-78h-2c-6-42-19-94-28-147zm266 93c-85 22-162-34-124-77 26-1 43 17 62-17h1c24 43 33 67 61 94zm1244 1297c49-13 130-40 137-42l2 10c26 13 42 23 60 31-50 7-108 13-157 27-2-1-4-1-5-1h-4c-11-10-22-18-33-25zm104-185c-4-28-15-87-34-117l3-1c6-4 11-7 16-10 2 0 3 0 5 1 27 5 49 19 64 39 10 13 18 29 22 46-1 0-2 1-3 1-23 6-49 27-73 41zm-79-97c3 2 6 4 9 4 3 1 5 0 7-1 1 0 1 0 2-1 32 27 30 44 32 82 1 8 1 16 2 25-30 9-55-7-64-98 2-1 4-2 5-3 2-3 5-5 7-8zm185 59c-2-12-6-24-10-35-14-33-36-58-68-72 65 2 114 58 117 89 1 17-10 27-39 18zm-119-134c-21 6-43 18-66 37-5 4-10 8-15 13-7 1-13 2-20 1-19-2-34-19-46-43-33-68-44-191-49-211-47-169-77-243-95-426-8-78 0-134 12-176 52 57 190 62 243 61 21 0 143-13 197-54 6 125-36 240-79 372-57 178-59 248-82 426zM240 3899c-19 20-21 56-18 90-46-72-54-102 18-90zm23 154c0-4-1-7-3-10-1-6-4-17-6-31-4-29-7-70 5-90 2-4 5-7 9-9 2-2 5-3 7-3 3 0 5-1 7-2 6 1 12 3 19 5 2 0 12 6 21 9 2 1 4 3 5 4-13 16-12 40-11 61 2 50 5 91 10 124 4 21 9 39 15 55-39-34-46-59-78-113zm171-69c44 16 89 27 134 41 90 26 241-15 359-23 35-3 67-2 94 4l-1 2c-74 186-118 289-316 339-38-6-133-73-178-115-12-11-20-20-24-26-11-18-19-37-27-58-19-52-30-111-41-164zm1367 294c-23 79-393 88-424 0 1-1 1-3 2-4 10-23 20-41 28-57h1c74 34 304 75 382 3 4 17 8 33 10 50 1 2 1 5 1 8zm-21-91c-2 2-4 5-6 6-58 54-243 41-333 9-6-2-11-4-16-6-2-3-4-5-8-6 6-22 2-43-21-72-51-62-10 30-99-135 2-1 4-2 5-4 44-36 119-73 253-97 133-24 213-13 261-5v1c0 1 0 3 1 6 61 200-61 191-37 302v1zm-58-90c-8 2-32 8-54 13-20 4-38 6-44 2v-1c0-8-6-14-14-14s-14 7-14 15c4 56 95 22 125 14 8 0 14-6 15-14 0-8-6-14-14-15zM456 2699c-1 0-2 0-3-1 1 1 2 1 3 1zm681 581c0-2 0-4-1-6 1 2 1 4 1 6z"/>
    <path class="body" fill="#F0DCC8" d="M2761 1628c68 117 104 173-17 293-46 45-179-175-181-226 3-1 6-4 8-7 2-1 3-2 5-4 4-4 5-11 2-16 6-15 15-33 23-36 32 14 131 25 160-4zm-944 2256c61 200-61 191-37 302v1c-2 2-4 5-6 6-58 54-243 41-333 9-6-2-11-4-16-6-2-3-4-5-8-6 6-22 2-43-21-72-51-62-10 30-99-135l5-4c44-36 119-73 253-97 133-24 213-13 261-5v1c0 1 0 3 1 6zM1420 496c-30 94 0 127 55 211-22 31-82 20-83 3 1-8-5-14-13-15-8 0-15 6-15 14 1 27 15 34 39 41v-2c12 7 20 10 35 8 135-20 22-90 4-188 18-2 31-19 52-10-11 12-8 27 12 37 29 8 29-14 42-29 16 0 11 6 28 1 14-42-97-53-135-28 0-10 2-21 5-31 3-8 0-16-7-19-7-4-16 0-19 7zm205 10c34 226 1 198-102 399-40 78-103 81-190 69-42-5-72-79-171-125-25-12-41-86-48-117 3-3 3-8 2-12-3-8-11-12-18-9 6-26 3-68 9-99 3-13-2-29-13-34-18-34-42-101 15-106 5 11 64 163 67 49 0-4-2-7-4-10l3-1c1-35 16-74 9-90l6 7c29-113 175-78 275-69 111 9 120 58 160 148zm-313 46c-18 27 18 41 33 32 24-20 7-9 34-16 44-10-37-52-72-47-17 3-62 14-62 34 2 31 46-11 67-3zm140-78c14 24 32 12 60 15 19 2 44 13 59 8 11-38-95-57-119-23zm-205 18c21 1 49-7 74-7 9 0 30 2 38-1 11-4 11-18 3-26-9-8-119-16-115 34zm235 305s-38 20-86 15c-48-4-60-6-60-6s6 34 35 44c29 11 66 8 79 2s32-55 32-55zm-112 210c2 88 6 301-132 211-106-68-210-254-179-382 5-21 7-38 8-51l3-3c14-2 16-22 14-50 0-1 1-1 1-1 1 3 1 6 1 8 3 43 33 121 64 136 103 48 119 120 180 128 14 2 27 3 40 4zM321 2111c73 16 212 386 219 402 3 9 7 18 11 26l2 5c1 5 3 9 6 13 100 220 98 74 221 184 134 121 68 171 69 192 0 106-32-17-76 75-1 0-2 1-3 1-63 15-60 39-82 39-137-1-134-209-149-267-48-177-386-347-428-473-32-94-92-149-32-219 75-85 138-315 181-357 113 95 159 154 320 204-14 96-117 145-197 177-42-25-3-33-101-30-8-1-15 5-15 13-1 8 6 15 13 15 16 0 22-1 27-1 2 1 4 1 6 1h8zm2105-102c-141 113-359 229-539 242-96 7 33 104-205-105-8-7-20-18-32-26v-5c-1-5-5-9-9-10-7-90 124-223 203-253 2 3 5 5 9 6 57 23 85 63 96 124 1 7 8 13 16 12 8 0 13-7 13-15-4-19-8-35-14-50 5 0 10-2 13-7 60-73 303 7 459-83 0 0 1-1 2-1 3-2 5-5 5-8l1-1c0-2 0-4-1-7-1-22 16-80 20-97 26-93 153-214 238-164 111 66-34 54-84 48-32-21-54 20-66 50-9 6-16 19-18 33-3 27 69 178 141 239-52 26-120-26-248 78zM1020 4008c-74 186-118 289-316 339-38-6-133-73-178-115-12-11-20-20-24-26-11-18-19-37-27-58-19-52-30-111-41-164 44 16 89 27 134 41 90 26 241-15 359-23 35-3 67-2 94 4l-1 2zm702 89c-8 2-32 8-54 13-20 4-38 6-44 2v-1c0-8-6-14-14-14s-14 7-14 15c4 56 95 22 125 14 8 0 14-6 15-14 0-8-6-14-14-15z"/>
    <path class="boots" fill="#FFFFFF" d="M248 4082c24 43 33 67 61 94-85 22-162-34-124-77 26-1 43 17 62-17h1zm1444 1359c26 13 42 23 60 31-50 7-108 13-157 27-2-1-4-1-5-1h-4c-11-10-22-18-33-25 49-13 130-40 137-42l2 10zm-96-248c32 27 30 44 32 82 1 8 1 16 2 25-30 9-55-7-64-98 2-1 4-2 5-3l7-8c3 2 6 4 9 4 3 1 5 0 7-1l2-1zm115 7c10 13 18 29 22 46l-3 1c-23 6-49 27-73 41-4-28-15-87-34-117l3-1c6-4 11-7 16-10l5 1c27 5 49 19 64 39zm-26-57c65 2 114 58 117 89 1 17-10 27-39 18-2-12-6-24-10-35-14-33-36-58-68-72zM160 4197c-13 35-1 74-3 111-38-43-19-24-84-78h-2c-6-42-19-94-28-147 47 59 24 34 117 114z"/>
</svg>
