<svg xmlns="http://www.w3.org/2000/svg" data-kind="player" width="89" height="179" fill-rule="evenodd" clip-rule="evenodd" image-rendering="optimizeQuality" shape-rendering="geometricPrecision" text-rendering="geometricPrecision" viewBox="0 0 1220 2457">
    <path class="hair" fill="#000000" d="M753 64zm-217 4c-15 33-25 97-29 125 3 6 4 12 7 17 3-7 7-14 7-14 31-70 62-54 140-58 30-1 67 17 60 45l1-3c5 10 6 17 7 25 3-7 7-13 11-15 39-19 37 60 18 68 5 6 4 31 4 41 9-2 7 13 6 21h1c8-4 11-7 15 4 24-34 4-77 24-84 21-8-30-67 10-59-4-17-29-49-32-61-5 0-6-1-7-6l1 2c-5-12-1-17 8-15-12-19-33-35-35-38v1c-8-7-30-8-11-24-87-3-126 23-105-22-93 54-95 85-101 50z"/>
    <path class="shirt" fill="#FF0000" d="M619 451c-140 7-90 88-161 197-17 27-44 92-49 131 36-12 127 62 119 126 16-11 33-26 39-42-3-3-1-7 1-11-25-68-42-161-46-211 0-4 3-6 6-6s6 2 6 6c6 65 35 210 73 265 27 38 40 47 66 93 1 3-1 6-4 7s-7-1-8-4c-10-17-18-29-26-40 5 39 4 102-6 129 94-8 230 51 335 1 4-2 6-3 7-6 0-1 0-1 1-2 0-1 1-3 1-5 1-1 1-2 2-3 1-2 2-4 2-6 1-2 3-5 4-10v-2-8c5-67 11-95 12-166-17-16-30-36-33-53-64 15-94-125-113-152h-1c-3-2-4-6-2-9 2-2 4-3 7-3 16 5 29 96 86 148 25 23 104-34 121-46 18-11 37-37 51-44-11-42-50-129-69-156-128-187-196-112-258-171-1 11-6 25-16 44-71 141-157 119-147 9z"/>
    <path class="shorts" fill="#FFFFFF" d="M553 1281c-63 129-111 150-123 320v46c68-19 182-6 244 51h1c1 1 2 2 2 3 9 8 16 18 23 28 13-30 27-123 28-130v-2c-4-65-6-129 5-193-7-5-26-12-33-16-3 1-6-2-6-6 0-3 2-6 6-6 63 21 44 19 38 67-8 76 6 187 12 274 4-4 9-8 14-11 29-14 78-6 123 1 33 5 64 9 85 3 12-4 24-7 36-11 20-6 38-12 54-23 5-3 9-6 13-9v-2c-32-62-14-141-29-224-20-120-31-83-15-214 2-18 8-57-7-73h-2c-10 13-17 25-21 38-8 30-7 123-75 124-18 0-11-11-39-18-24-6 14-9-30-15-19-2-13-19-13-29-22-18 13-94 76-112 28-7 36-17 43-35-58 27-217 9-251 2-42-8-51-6-80-6-3 0-6-1-10-1-1 1-2 2-3 2h-1c-65 52-30 105-65 177z"/>
    <path class="socks" fill="#FF0000" d="M1117 1667c8 9 9 24 7 38 20-30 24-43-7-38zm-667 159l-1 3c10 34 169 38 182 0l-1-2c-4-9-9-17-12-24-32 15-130 32-164 1-2 7-3 15-4 22zm-2 20c-3 53 15 103 33 159 25 76 26 106 35 182 9 3 19 8 29 16l6 6c3 0 6 1 9 0 8-1 14-8 19-18 14-29 19-82 22-90 20-73 32-104 40-182 4-34 0-58-5-76-22 24-81 27-104 26-9 0-61-5-84-23zm592-112c-5 25-12 50-24 70-2 4-8 10-16 17 28-8 45-16 56-31 10-15 14-38 16-78v-8c0-2 1-15-2-18h-1c-7 5-14 8-22 12-2 12-4 24-7 36zm44-29c0 21-2 38-4 53-2 9-4 16-6 23 16-14 19-25 33-48 0-2 0-3 1-4 1-3 2-8 3-13 2-13 3-31-2-39-1-2-2-3-4-4-1-1-2-1-3-1s-2-1-3-1l-8 2c-1 0-5 3-9 4l-3 2c6 6 6 16 5 26z"/>
    <path class="outline" fill="#000000" d="M117 713c-3-6-6-14-9-15-14 6-57 10-69-2-29 50-44 74 7 125 20 20 77-74 78-96-2-1-3-2-4-3 0-1-1-1-2-2-2-2-2-5-1-7zm601-494l-1-1c0-15-7-31-4-38l-2 2c-13-48-75-33-118-29-47 4-51 25-68 63-15 97-1 85 43 171 17 33 44 35 81 30 18-3 31-34 74-54 11-5 17-37 20-50-1-1-1-3-1-5 2-3 5-5 8-4-3-11-1-29-4-42-1-6 1-13 6-15 8-14 18-43-7-45-2 5-27 69-28 21 0-2 0-3 1-4zm-207 6c-5-3-10-10-12-22-7-27 34-219 47-136 25-19 124-94 108-57-1 1-10 16-12 21 37 19 156-30 109 18 4 1 9 4 12 8 18 12 68 72 29 58h-1c18 21 65 82 23 77-2 18 30 47-2 59 6 31-23 104-35 88 3 19 6 32 7 44 1 1 2 1 3 3 56 59 131-17 263 175 7 10 78 157 71 175 23 30 42 112 74 149 31 36 4 62-11 105-15 44-99 96-149 149-2 4-3 5-3 6 12 11 15 50 14 57-6 93-21 85 1 178 21 90 18 109 19 193 1 56 14 64 20 89 1-1 1-1 2-1 7-2 14-3 20-4 13-32 47-47 81-29 63 35 8 165 10 180 7 66-64 227-131 152-38-42-10-123-5-156l-9 6c-1 1-2 1-3 1-15 11-37 19-70 28-1 0-2 1-4 0-21 16-45 31-58 32-51 1-90-44-117-90-26 3-60-7-63-37v-1c-1-32-4-64-7-96-7 40-18 91-30 99 0 1 0 1-1 1-12 14-33 11-49 8-5 5-11 9-19 12l2-1c-10 11-11 19-8 27 0 1 1 2 1 2 3 8 8 16 14 28 1 1 2 3 2 4 8 20 14 48 9 93-8 79-20 111-41 184-4 15-7 45-14 71 42-14 38 79 38 82 0 46 3 59-16 70-2 16-28 45-31 13l-18 6c-1 0-1 0-1 1 3 16-28 53-28 19-6 6-12 13-18 19v3c2 2 2 4 1 6 1 30-28 34-30 17-8 6-18 12-29 17 5 15-36 42-33 11-9 2-18 4-28 4 0 2 0 3-2 4-2 13-24 15-22-3-10-1-20-2-31-3-51-7-17-93 7-113 73-61 42-56 81-93 0-1 1-1 2-2 6-22 31-50 63-48-13-73-7-94-33-176-21-64-41-118-33-179v-6c0-1 1-2 1-2 2-10 4-20 7-30 14-44-42-43-15-132-18 1-16-7-12-60 12-172 60-194 124-324 36-74-4-128 73-186h1c10-40 17-110 3-146-1-1-1-2-1-3-6-8-13-17-21-28-7-11-14-25-21-41-10 23-47 57-62 50-6 5-12 11-15 13-90 84-59 42-87 40-80-6-175-56-237-107-54-43-90-17-110-35-10 5-19 5-27-3-60-59-39-88-3-151 1-2 3-3 5-3 2-4 6-8 10-13 51-38 114 22 128 72 4 12 9 28 9 42 65 36 164-2 198 38 4-8 10-15 18-21-34 5 46-154 46-154 69-106 19-195 172-201 0-3 0-5 1-8-28-1-50-10-65-38-43-85-58-79-46-168zm251 109c-6-1-7-9-6-21h-1v3c-1 18-14 52-27 58-44 21-51 51-77 55-6 1-12 1-17 2-1 37-3 128 56 90 46-29 90-109 77-163-2-10-3-17-4-22 0-1 0-1-1-2zm26-222l-1-2s1 1 1 2zm-35 135c1-1 3-1 4 0-1-1-3-1-4 0zm-24-42c3-7 7-13 11-15 39-19 37 60 18 68 5 6 4 31 4 41 9-2 7 13 6 21h1c8-4 11-7 15 4 24-34 4-77 24-84 21-8-30-67 10-59-4-17-29-49-32-61-5 0-6-1-7-6l1 2c-5-12-1-17 8-15-12-19-33-35-35-38v1c-8-7-30-8-11-24-87-3-126 23-105-22-93 54-95 85-101 50-15 33-25 97-29 125 3 6 4 12 7 17 3-7 7-14 7-14 31-70 62-54 140-58 30-1 67 17 60 45l1-3c5 10 6 17 7 25zm-117 7c13 40 0 54-23 90 9 14 35 9 35 2 0-4 3-7 6-7s6 3 6 6c0 12-6 14-16 18v-1c-6 3-9 4-15 3-58-8-10-38-2-80-8-1-13-8-22-4 4 5 3 11-5 16-13 3-13-7-18-13-7 0-5 3-13 0-5-18 42-22 59-12-1-4-1-8-3-13-1-3 0-7 3-8s7 0 8 3zm170 186c-1 11-6 25-16 44-71 141-157 119-147 9-140 7-90 88-161 197-17 27-44 92-49 131 36-12 127 62 119 126 16-11 33-26 39-42-3-3-1-7 1-11-25-68-42-161-46-211 0-4 3-6 6-6s6 2 6 6c6 65 35 210 73 265 27 38 40 47 66 93 1 3-1 6-4 7s-7-1-8-4c-10-17-18-29-26-40 5 39 4 102-6 129 94-8 230 51 335 1 4-2 6-3 7-6l1-2c0-1 1-3 1-5 1-1 1-2 2-3 1-2 2-4 2-6 1-2 3-5 4-10v-2-8c5-67 11-95 12-166-17-16-30-36-33-53-64 15-94-125-113-152h-1c-3-2-4-6-2-9 2-2 4-3 7-3 16 5 29 96 86 148 25 23 104-34 121-46 18-11 37-37 51-44-11-42-50-129-69-156-128-187-196-112-258-171zM548 212c6 3 17-2 25-3 12-1 20 4 26-6-10-15-56-7-51 9zm138-1c2-22-45-19-49-15-3 3-3 9 2 11 3 1 12 0 16 0 10 1 22 4 31 4zm-41 38c6 5 21-2 14-13 9-3 28 14 28 1 0-8-19-13-26-14-15-2-50 15-31 20 11 3 4-2 15 6zm-59 92s16 8 37 6c20-2 25-2 25-2s-2 14-15 19c-12 4-28 3-33 0-6-2-14-23-14-23zM427 795c-24 9-36 27-41 52 0 4-3 6-7 6-3-1-5-4-5-7 1-8 3-15 6-21-2 0-4-1-6-3-25-31-129 3-196-36h-1v-1h-1c0-1-1-1-1-2v-3-1c1-10-7-34-9-41-11-40-65-92-101-71-48 29 14 23 35 21 14-9 24 8 29 22 3 2 7 7 7 13 2 12-29 77-60 103 22 11 52-12 106 33 60 48 154 98 231 103 41 3-14 45 87-44 4-3 9-8 14-11v-3c1-2 2-3 4-4 3-38-53-96-87-108-1 1-2 2-4 3zm195 307c-1 1-2 2-3 2h-1c-65 52-30 105-65 177-63 129-111 150-123 320v46c68-19 182-6 244 51h1c1 1 2 2 2 3 9 8 16 18 23 28 13-30 27-123 28-130v-2c-4-65-6-129 5-193-7-5-26-12-33-16-3 1-6-2-6-6 0-3 2-6 6-6 63 21 44 19 38 67-8 76 6 187 12 274 4-4 9-8 14-11 29-14 78-6 123 1 33 5 64 9 85 3 12-4 24-7 36-11 25-7 48-16 67-32v-2c-32-62-14-141-29-224-20-120-31-83-15-214 2-18 8-57-7-73h-2c-10 13-17 25-21 38-8 30-7 123-75 124-18 0-11-11-39-18-24-6 14-9-30-15-19-2-13-19-13-29-22-18 13-94 76-112 28-7 36-17 43-35-58 27-217 9-251 2-46-9-53-5-90-7zm5-6l442 590c-7 5-14 8-22 12-2 12-4 24-7 36-5 25-12 50-24 70-2 4-8 10-16 17 28-8 45-16 56-31 10-15 14-38 16-78v-8c0-2 1-15-2-18h-1l-442-590zm482-355c-49 40-69 65-138 87 7 41 51 62 85 75 18-10 1-14 43-13 3 0 6 3 6 6 1 4-2 7-5 7-7-1-10-1-12-1-1 1-2 1-3 0-1 0-1 1-3 1-31 7-90 165-93 172-2 3-3 7-5 11l-1 2c0 2-1 4-2 5-43 94-42 32-95 79-57 52-29 73-29 82-1 45 13-7 32 32h1c27 7 26 17 36 17 58 0 57-89 63-114 21-76 165-148 183-202 14-41 40-64 14-94-32-36-59-135-77-152zm-110 275c14-34 33-75 52-101-14 0-31-8-46-20 0 37 0 72-5 110 0 4-1 8-1 11zm-153 239v0zm355 491c-20 25-10 14-50 49 6 15 1 31 1 47 17-18 8-10 36-33h1c3-18 8-41 12-63zm-114 40c37 9 70-15 53-33-11-1-18 7-26-8-11 19-15 29-27 41zm-531 554c-21-5-56-17-59-18l-1 4c-11 6-18 10-25 13 21 4 45 6 67 12h3c5-4 10-8 15-11zm-45-79c2-12 7-37 15-50l-2-1c-2-1-4-2-7-4h-2c-11 3-21 9-27 17-4 6-8 13-10 20h2c10 3 21 12 31 18zm34-41c-1 1-3 1-4 1h-3s-1 0-1-1c-14 12-13 19-14 35v11c12 4 23-3 27-42-1 0-2-1-2-1l-3-3zm-79 25c1-6 2-11 4-15 6-14 16-25 29-31-28 1-49 25-50 38 0 7 4 12 17 8zm50-58c9 3 19 8 29 16l6 6c3 0 6 1 9 0 8-1 14-8 19-18 14-29 19-82 22-90 20-73 32-104 40-182 4-34 0-58-5-76-22 24-81 27-104 26-9 0-61-5-84-23-3 53 15 103 33 159 25 76 26 106 35 182zm601-520c8 9 9 24 7 38 20-30 24-43-7-38zm-10 66c0-2 0-3 1-4 1-3 2-8 3-13 2-13 3-31-2-39-1-2-2-3-4-4-1-1-2-1-3-1s-2-1-3-1c-3 0-5 1-8 2-1 0-5 3-9 4-1 0-2 1-3 2 6 6 6 16 5 26 0 21-2 38-4 53-2 9-4 16-6 23 16-14 19-25 33-48zm-73-30c-19 7-38 12-57 18-39 11-103-6-154-10-15-1-29-1-40 2v1c32 79 51 123 136 145 16-3 56-31 76-50 5-4 8-8 10-11 4-7 8-16 11-25 8-22 13-47 18-70zm-585 126c10 34 169 38 182 0-1 0-1-1-1-2-4-9-9-17-12-24-32 15-130 32-164 1-2 7-3 15-4 22 0 1 0 2-1 3zm10-39c0 1 1 2 2 3 25 23 104 17 142 4 3-1 5-2 7-3 1-1 2-2 4-3-3-9-1-18 9-30 22-27 4 12 42-58-1 0-2-1-2-2-19-15-51-31-109-41-56-11-90-6-111-2v3c-26 85 26 81 15 129h1zm24-38c4 1 14 3 23 5s17 3 19 1c0-4 3-6 6-6 4 0 6 3 6 6-2 24-40 9-53 6-4 0-6-2-7-6 0-3 3-6 6-6zm542-598h1-1zm-292 248c0-1 1-1 1-2-1 1-1 2-1 2z"/>
    <path class="body" fill="#F0DCC8" d="M39 696c-29 50-44 74 7 125 20 20 77-74 78-96-2-1-3-2-4-3 0-1-1-1-2-2-2-2-2-5-1-7-3-6-6-14-9-15-14 6-57 10-69-2zm404 965c-26 85 26 81 15 129h1c0 1 1 2 2 3 25 23 104 17 142 4 3-1 5-2 7-3 1-1 2-2 4-3-3-9-1-18 9-30 22-27 4 12 42-58l-2-2c-19-15-51-31-109-41-56-11-90-6-111-2v3zM612 212c13 40 0 54-23 90 9 14 35 9 35 2 0-4 3-7 6-7s6 3 6 6c0 12-6 14-16 18v-1c-6 3-9 4-15 3-58-8-10-38-2-80-8-1-13-8-22-4 4 5 3 11-5 16-13 3-13-7-18-13-7 0-5 3-13 0-5-18 42-22 59-12-1-4-1-8-3-13-1-3 0-7 3-8s7 0 8 3zm-87 4c-15 97-1 85 43 171 17 33 44 35 81 30 18-3 31-34 74-54 11-5 17-37 20-50-1-1-1-3-1-5 2-3 5-5 8-4-3-11-1-29-4-42-1-6 1-13 6-15 8-14 18-43-7-45-2 5-27 69-28 21 0-2 0-3 1-4l-1-1c0-15-7-31-4-38l-2 2c-13-48-75-33-118-29-47 4-51 25-68 63zm134 20c7 11-8 18-14 13-11-8-4-3-15-6-19-5 16-22 31-20 7 1 26 6 26 14 0 13-19-4-28-1zm-60-33c-6 10-14 5-26 6-8 1-19 6-25 3-5-16 41-24 51-9zm87 8c-9 0-21-3-31-4-4 0-13 1-16 0-5-2-5-8-2-11 4-4 51-7 49 15zM586 341s16 8 37 6c20-2 25-2 25-2s-2 14-15 19c-12 4-28 3-33 0-6-2-14-23-14-23zm48 90c-1 37-3 128 56 90 46-29 90-109 77-163-2-10-3-17-4-22 0-1 0-1-1-2-6-1-7-9-6-21h-1v3c-1 18-14 52-27 58-44 21-51 51-77 55-6 1-12 1-17 2zm448 472c-31 7-90 165-93 172-2 3-3 7-5 11l-1 2c0 2-1 4-3 5-42 94-41 32-94 79-57 52-29 73-29 82-1 45 13-7 32 32h1c27 7 26 17 36 17 58 0 57-89 63-114 21-76 165-148 183-202 14-41 40-64 14-94-32-36-59-135-77-152-49 40-69 65-138 87 7 41 51 62 85 75 18-10 1-14 43-13 3 0 6 3 6 6 1 4-2 7-5 7-7-1-10-1-12-1-1 1-2 1-3 0l-3 1zm-900-44c60 48 154 98 231 103 41 3-14 45 87-44 4-3 9-8 14-11v-3c1-2 2-3 4-4 3-38-53-96-87-108-1 1-2 2-4 3-24 9-36 27-41 52 0 4-3 6-7 6-3-1-5-4-5-7 1-8 3-15 6-21-2 0-4-1-6-3-25-31-129 3-196-36h-1c-1-1-2-2-2-4v-3c1-10-7-34-9-41-11-40-65-92-101-71-48 29 14 23 35 21 14-9 24 8 29 22 3 2 7 7 7 13 2 12-29 77-60 103 22 11 52-12 106 33zm601 855c32 79 51 123 136 145 16-3 56-31 76-50 5-4 8-8 10-11 4-7 8-16 11-25 8-22 13-47 18-70-19 7-38 12-57 18-39 11-103-6-154-10-15-1-29-1-40 2v1zm-300 38c4 1 14 3 23 5s17 3 19 1c0-4 3-6 6-6 4 0 6 3 6 6-2 24-40 9-53 6-4 0-6-2-7-6 0-3 3-6 6-6z"/>
    <path class="boots" fill="#FFFFFF" d="M1114 1745c-11 19-15 29-27 41 37 9 70-15 53-33-11-1-18 7-26-8zm-618 581c-11 6-18 10-25 13 21 4 45 6 67 12h3c5-4 10-8 15-11-21-5-56-17-59-18l-1 4zm41-106c-14 12-13 19-14 35v11c12 4 23-3 27-42-1 0-2-1-2-1l-3-3c-1 1-3 1-4 1h-3l-1-1zm-49 3c-4 6-8 13-10 20h2c10 3 21 12 31 18 2-12 7-37 15-50l-2-1c-2-1-4-2-7-4h-2c-11 3-21 9-27 17zm11-24c-28 1-49 25-50 38 0 7 4 12 17 8 1-6 2-11 4-15 6-14 16-25 29-31zm652-404c6 15 1 31 1 47 17-18 8-10 36-33h1c3-18 8-41 12-63-20 25-10 14-50 49z"/>
</svg>
