<svg xmlns="http://www.w3.org/2000/svg" xml:space="preserve" width="1106" height="750" fill-rule="evenodd" clip-rule="evenodd" image-rendering="optimizeQuality" shape-rendering="geometricPrecision" text-rendering="geometricPrecision" viewBox="0 0 465.12 315.41">
  <defs>
    <clipPath id="id0">
      <path d="M0 0h465.12v315.41H0V0z"/>
    </clipPath>
      <style>
      .str0,.str1,.str2{stroke:#fff;stroke-width:.97;stroke-miterlimit:22.9256}.str1,.str2{stroke:#000;stroke-width:.1}.fil1{fill:none}
    </style>
  </defs>
    <path fill="#85a566" d="M0 0h465.12v315.41H0z"/>
    <g clip-path="url(#id0)">
        <path id="_1" d="M233.9 205.27c33.44 0 61.1 20.7 61.76 46.21.67 25.5-26.84 46.2-61.68 46.2-34.85 0-62.5-20.7-61.84-46.2.67-25.51 28.33-46.21 61.76-46.21z" class="fil1 str0"/>
        <path d="M390.82 476.08H48.92A14871.63 14871.63 0 0 1 13.89 620.6h440.62a10264.11 10264.11 0 0 1-35.33-144.52h-28.36zM602.39 620.6h-740.01M396.3 43.73c29.55 96.17 60.16 192.63 94.42 288.46 34.46 96.41 72.49 192.29 111.67 288.41M69.51 43.73H396.3m66.35 207.75H3.6M68.17 43.73C38.7 139.9 8.02 236.36-26.17 332.19c-34.39 96.41-72.5 192.29-111.45 288.41m304.21-144.52c13.55-16.16 38.65-27.04 67.31-27.04 28.66 0 53.84 10.88 67.32 27.04H166.59z" class="fil1 str0"/>
        <path fill="#fff" d="M233.9 248.99c1.85 0 3.33 1.1 3.33 2.49 0 1.39-1.48 2.49-3.33 2.49s-3.33-1.1-3.33-2.49c0-1.39 1.48-2.49 3.33-2.49zm.08 269.88c2.77 0 4.96 1.5 4.96 3.35 0 1.86-2.19 3.36-4.96 3.36-2.78 0-5.04-1.5-5.04-3.36 0-1.85 2.26-3.35 5.04-3.35zm-.23-439.88c1.3 0 2.41.84 2.37 1.85-.03 1.02-1.03 1.85-2.29 1.85s-2.37-.84-2.37-1.85c0-1.01 1-1.85 2.29-1.85z"/>
        <path d="M273 99.72c-7.48 8.22-22.29 13.78-39.25 13.78-16.95 0-31.62-5.56-39.17-13.78H273zm60.8 520.88H134.52c1.85-17.02 3.71-34.05 5.63-51.13h187.87c1.85 17.08 3.78 34.11 5.78 51.13zM127.78 99.72h212.09c-3.55-18.65-6.96-37.29-10.44-55.99h-95.75c-30.95 0-61.91-.06-95.68-.06l-10.22 56.05z" class="fil1 str0"/>
        <path d="M277.74 43.73c.45 6.19.82 12.39 1.26 18.52h-90.49c.44-6.13.96-12.33 1.4-18.52h87.83zm120.11 5.09c-.59-1.68-1.03-3.36-1.55-5.09h-6.29c-1.34 2.08 4.73 5.21 6.66 5.21 1.93 0 .74-.06 1.18-.12zm-331.16 0c.45-1.68.96-3.36 1.48-5.09h6.3c1.39 2.09-4.74 5.21-6.67 5.21-1.92 0-.74-.06-1.11-.12zM-125.92 620.6c.67-4.63-2.74-8.57-7.78-9.61-1.33 3.24-2.66 6.42-3.92 9.61h11.7zm716.46 0c-.67-4.63 2.67-8.57 7.7-9.61 1.41 3.24 2.74 6.42 4.15 9.61h-11.85z" class="fil1 str0"/>
      </g>
    <path d="M0 0h465.12v315.41H0z" class="fil1"/>
    <path fill="#ebecec" d="M211.87 42.6c-.04 0-.05.02-.09.05l-.03.02-.11.09-.21.17-.22.16c-.1.04-.24-.01-.24-.14V31.59c0-.09.07-.15.18-.15h42.39c.1 0 .17.06.17.15v11.37c0 .09-.1.18-.22.14l-.11-.08-.11-.08-.36-.29c-.03-.02-.03-.03-.08-.03 0-.04 0-.03-.02-.05a.14.14 0 0 0-.04-.03l-.2-.16-.05-.03c-.01-.03-.06-.05-.08-.07l-.05-.04-.77-.6a.08.08 0 0 0-.04-.04l-.14-.11-.27-.21c-.03-.03-.07-.07-.1-.07h-37.46a.77.77 0 0 0-.17.13l-.19.15-.02.02-.03.02-.03.02-.63.5-.36.28v.01l-.1.07-.03.03-.03.02-.11.08c-.01.02-.04.03-.04.06zm-2.11 1.06c.12.04.57.05.71.04.05 0 .48-.02.51-.05l.03-.06.05-.04.63-.48.18-.14.18-.13.05-.04.03-.02.05-.04.25-.19.03-.02.02-.02.87-.66.02-.02.15-.12c.18-.13.14-.12.39-.12h36.88l.18.01c.08.01.16.09.22.13l.18.14.2.16.16.11.25.2.13.09.03.02.7.54.03.02.53.41.23.18c.06.04.08.09.09.09a3.73 3.73 0 0 0 1.2 0V30.5h-45.15l-.01 13.16z"/>
    <path d="m253.4 31.88-.01.09.01.18c-.1 3.22-.09 6.79 0 9.98l-.01.53a.22.22 0 0 0-.05-.04.22.22 0 0 0-.05-.04s-1.82-1.39-1.97-1.56l-.08-.06a.14.14 0 0 0-.07-.02h-.03c.05-.02.08-.07.08-.13v-7.68l2.18-1.25zm-39.68 8.93c0 .05-.03.1-.07.13h1.7c.05.02 30.18 0 32.98 0 .07.02 2.4 0 2.67 0a.17.17 0 0 1-.07-.13v-7.52h-37.21v7.52zm-.21.13a.15.15 0 0 1-.08-.13v-7.68l-2.14-1.23v10.76l.12-.09.05-.05a51.2 51.2 0 0 0 1.92-1.51l.04-.03.04-.03.05-.01zm-1.96-9.22 2.09 1.2c.03.02.06.04.07.08h37.23a.16.16 0 0 1 .08-.08l2.08-1.2h-41.55zm-1.78-1.22h45.15v13.15a3.73 3.73 0 0 1-1.2 0c-.01 0-.03-.05-.09-.09l-.23-.18-2.21-1.69c-.06-.04-.14-.12-.22-.13l-.18-.01h-36.88c-.25 0-.21-.01-.39.12l-2.46 1.88-.05.04-.03.06a2.1 2.1 0 0 1-.51.05c-.14.01-.59 0-.71-.04l.01-13.16zm-.32-.15v13.34c0 .15.17.23.32.25.3.04.67.05.98.02.11-.01.23-.01.32-.04.19-.06.16-.14.24-.19l.12-.09 2.2-1.68.02-.02.15-.11h37.08c.02 0 .04.03.05.03l2.46 1.88c.02.01.02.02.03.05l.09.08c.08.05.18.06.29.07l.16.02c.33.01.6.02.94-.02.1-.01.16-.03.23-.07.04-.03.11-.1.11-.17V30.35c0-.06-.07-.12-.14-.12h-45.52a.15.15 0 0 0-.09.04c-.02.02-.04.05-.04.08zm3.99 10.99a.77.77 0 0 1 .17-.13h37.46c.03 0 .07.04.1.07.71.53 1.41 1.11 2.1 1.66l.11.08.11.08c.12.04.22-.05.22-.14V31.59c0-.09-.07-.15-.17-.15h-42.39c-.11 0-.18.06-.18.15v11.36c0 .13.14.18.24.14l.21-.16.22-.17c.54-.48 1.23-.97 1.8-1.42z"/>
    <path d="M213.51 40.39H251m-37.49-1.27H251m-37.49-1.27H251m-37.49-1.27H251m-37.49-1.27H251m-37.49-1.28H251m-39.83 7.96 2.36-1.59m-2.36-.22 2.36-1.05m-2.36-.77 2.36-.5m-2.35-1.32 2.35.05m-2.35-1.87 2.35.6m-2.35-2.42 2.35 1.15m39.95 7.94-2.36-1.59m2.36-.22-2.36-1.05m2.36-.77-2.36-.5m2.35-1.32-2.35.05m2.35-1.87-2.35.6m2.35-2.42-2.35 1.15m-39.1-1.92h40.3m-39.54.48h39.1m-37.35.68v7.8" class="fil1 str1"/>
    <path d="M216.71 33.29v7.8m2.17-7.8v7.8m2.17-7.8v7.8m2.17-7.8v7.8m2.17-7.8v7.8m2.17-7.8v7.8m2.18-7.8v7.8m2.17-7.8v7.8m2.17-7.8v7.8m2.17-7.8v7.8m2.17-7.8v7.8m2.17-7.8v7.8m2.17-7.8v7.8m2.18-7.8v7.8m2.17-7.8v7.8" class="fil1 str2"/>
    <path d="M249.28 33.29v7.8m-36.16-8.33v8.64m-.6-9.01v9.37m-.71-9.69V42.4m39.83-9.64v8.64m.6-9.01v9.37m.7-9.8V42.4m-40.2-10.86 1.87 1.63" class="fil1 str1"/>
    <path d="m215.21 31.54 1.58 1.63m.89-1.62 1.3 1.62m1.16-1.62 1.03 1.62m1.44-1.62.75 1.62m1.72-1.62.47 1.62m2-1.62.18 1.62m2.28-1.62-.09 1.62m2.56-1.62-.37 1.62m2.84-1.61-.65 1.61m3.12-1.61-.93 1.61m3.4-1.61-1.21 1.61m3.67-1.61-1.49 1.61m3.96-1.61-1.77 1.61m4.24-1.61-2.05 1.61m4.52-1.61-2.33 1.61" class="fil1 str2"/>
    <path d="m252.22 31.57-2.6 1.6" class="fil1 str1"/>
</svg>
