<svg xmlns="http://www.w3.org/2000/svg" data-kind="player" width="85" height="180" fill-rule="evenodd" clip-rule="evenodd" image-rendering="optimizeQuality" shape-rendering="geometricPrecision" text-rendering="geometricPrecision" viewBox="0 0 686 1455">
    <path class="hair" fill="#000000" d="M182 50c-8-2-6-12-8-17-6-1-34 38-28 61 3 10 22 15 28 19 13 11 7 28 11 34 6-2 8-17 17-14 7 3 18 7 22 13 11 17-3 30 6 39 4 5 5 1 11 1 4 4 10 18 19 19 4-3 1-4 5-8 11-2 10 15 20 14 4-4 2-11 6-16 5-5 8 2 14 3 10-4 6-28 16-28 5 3 2 6 7 7 5-3 4-25 4-32-2-8-7-22 5-25 4 3 3 9 11 6 5-6-9-39-13-46-3-4-5-4-7-6-7-9 9-7 12-8-2-12-33-24-43-28-6-2-14-3-15-9l5-6c-7-8-52 3-52 3-9-1-2-10-2-14-5-2-25 10-30 13-22 15-16 21-21 25z"/>
    <path class="shirt" fill="#FF0000" d="M329 518c-4-4-12-10-11-16 1 1 55 42 61 47 11 7 21 16 31 23 16 12 36 16 28 24-5 4-14-4-18-7l-32-22c-25-19-37-27-59-49zm-154-58c-3 2-2 3-6 4-11-8-1-23-7-33-6 7-15 39-17 51l-3 21c-2 7-4 10 0 18 2 3 3 5 5 6 22 18 37 13 65 16 8 1 31-1 37-6s10-25 10-25c0-3 2-4 4-7l14-32c3-6 3-11 9-15 7 2 5 5 2 11-16 36-27 42-10 76 15 31 34 41 57 66 10 11 24 39 28 53 16 0 17-5 29-5 17-1 31 4 47 4 17 0 11 3 31-1 5-1 11-1 15-4-3-1-44-13-67-25-13-6-18-6-15-15 5-1 18 8 30 13l32 11c12 4 22 7 35 10 9 2 11-1 19-1 7-1 13-1 21-1v-20l-2-19c-2-3-4-3-8-5l-7-7c-5-4-11-7-16-12-4-4-9-10-14-13-6-5-13-9-4-16 8 3 24 27 35 31 2-10-4-32-4-43-1-13-8-26-9-39l-9-52c-13-58-12-77-58-123-6-5-27-19-21-25 8-4 11 5 17 9 10 8 20 21 29 29 4 3 9 13 13 15 11-5 42-52 35-63 3-4 4-3 5-8v-12c-10-4-33-7-44-9-8-2-42-8-46-7 0 6 22 19 20 26h-9c-7-7-13-14-20-21-4-3-7-7-12-9-8-3-4-5-12-8-11-6-30-15-43-18-3-1-16-2-19-2-6 11-3 13-19 30-7 8-21 15-31 20-5 3-11 5-17 7-23 12-30-1-58 42-4 6-7 10-11 16-5 9-14 22-18 31-11 26-13 26-11 50 0 4-1 8 0 12 2 10 3 11 3 23z"/>
    <path class="shorts" fill="#FFFFFF" d="M207 826c11 5 8 4 17 12 3 2 17 5 23 8 7 3 12 6 19 10 4 2 14 12 17 12l14-35c3-6 4-12 6-18 5-20 6-42 11-62 2-7 2-15 4-21 2-8 5-11 5-20l-90 83c-11 12-26 23-26 31zm75 182c9-1 8-6 17-8 21-2 21 2 33 4l30 8c13 4 25 8 39 11 10 2 43 3 47 0 2-5-2-7-1-14 2-12 6-31 11-42 11-23 24-47 37-69 2-4 3-8 6-12 11-18 23-39 35-54 9-11 19-34 23-47 2-5 8-24 8-28 1-20 1-31-5-49-2-7 0-9-2-15 0-6-6-21-8-28-4-12-3-3-25-3-34 0-55 17-92 12-24-3-41-5-65 0-4 1-22 0-26 9-6 13-16 39-17 54-1 12-8 35-8 45-1 10 2 0-2 14-3 11-7 30-12 41-13 27-14 43-18 70l-3 33c-2 18-3 24-2 41 1 4 0 5 0 8-1 6 0 13 0 19z"/>
    <path class="socks" fill="#FF0000" d="M466 1085c-10 25-40 58-66 70-4 2-11 4-16 6-8 2-16 0-21 2-1 8 33 30 42 35 6 4 11 6 17 10 10 8 21 14 31 21 11 8 21 12 32 21 9 7 19 16 29 23 13 9 50 35 56 48 0 1 12 15 12 15 5 3 17 1 21-4 3-4 6-13 8-18 1-4 9-17 9-17 0-4-20-25-23-29-5-5-9-7-13-13-8-12-25-37-30-49-5-14-7-24-15-37-10-15-27-54-39-66-5-6-27-19-34-18zm-269-87c-4 16 2 43 7 59 7 20 13 31 22 48 3 7 7 18 10 26 3 9 7 15 10 24 3 12 5 17 6 29l4 31c4 2 9 3 12 7 5 5 1 6 11 8 5 1 12 1 16-1 8-4 7-2 11-9 3-5 1-11 0-16-2-7-1-11-2-17-1-3-2-6-2-8-1-4 1-3 1-7 1-3-2-26-1-37 1-7 1-13 1-18 1-8 8-26 5-32-9-16-12-20-15-43 0-4-1-14-2-17-11-6-8 1-17-11s-1-10-3-20c-9 0-23 17-56 10-5-1-17-6-18-6zm3-11c3 3 12 6 16 7h22c8 0 27-7 33-13 1-6 0-6-1-11-8-1-32 7-62 0-4-1-4-2-8-1v18zm152 150c-1 7-1 6 2 12 18 3 20 4 38-1 32-10 67-60 65-68-3-3-10-8-14-8-3 3-6 9-8 12-3 3-7 8-9 10-12 12-49 40-66 43-6 1-3-1-8 0z"/>
    <path class="outline" fill="#000000" d="M318 502c-1 6 7 12 11 16 22 22 34 30 59 49l32 22c4 3 13 11 18 7 8-8-12-12-28-24-10-7-20-16-31-23-6-5-60-46-61-47zm254 875c14-8 10-7 34-1 5 2 7 2 13 2-3 3-6 3-10 4-8 3-17 1-25-1-9-1-9 0-12-4zm-33-14c3-3 4-1 7-6 5-6 14-17 17-23 5 0 8 0 9 6-2 3-11 9-15 13-5 6-9 11-18 10zm-306-86c5 6 7 11 14 17l15 16c-7 0-11 2-18 1-4-4-2-5-8-9-3-2-6-5-9-7-4-3-15-13-15-18h21zm2-28c0-6 5-9 9-12 8-6 5-5 9-12 10 0 9 10 5 14l-6 6c-5 5-2 4-4 8-8 0-8 0-13-4zm231-164c7-1 29 12 34 18 12 12 29 51 39 66 8 13 10 23 15 37 5 12 22 37 30 49 4 6 8 8 13 13 3 4 23 25 23 29 0 0-8 13-9 17-2 5-5 14-8 18-4 5-16 7-21 4 0 0-12-14-12-15-6-13-43-39-56-48-10-7-20-16-29-23-11-9-21-13-32-21-10-7-21-13-31-21-6-4-11-6-17-10-9-5-43-27-42-35 5-2 13 0 21-2 5-2 12-4 16-6 26-12 56-45 66-70zm-114 52c5-1 2 1 8 0 17-3 54-31 66-43 2-2 6-7 9-10 2-3 5-9 8-12 4 0 11 5 14 8 2 8-33 58-65 68-18 5-20 4-38 1-3-6-3-5-2-12zm-28-125c5 1 12 2 16 4 5 1 9 4 14 5 16 4 31 9 47 13 12 2 26 1 37 1 1 6-3 12-2 21 0 9 1 10-5 18-7 8-13 17-22 23-8 6-18 15-27 19-23 12-14 11-34 9-8-27-16-28-24-37-2-2-2-4-4-6-3-2-3-1-5-4-8-11-7-22-9-32-2-9-6-26-1-35 9-1 11 0 19 1zm-127-14c1 0 13 5 18 6 33 7 47-10 56-10 2 10-6 8 3 20s6 5 17 11c1 3 2 13 2 17 3 23 6 27 15 43 3 6-4 24-5 32 0 5 0 11-1 18-1 11 2 34 1 37 0 4-2 3-1 7 0 2 1 5 2 8 1 6 0 10 2 17 1 5 3 11 0 16-4 7-3 5-11 9-4 2-11 2-16 1-10-2-6-3-11-8-3-4-8-5-12-7l-4-31c-1-12-3-17-6-29-3-9-7-15-10-24-3-8-7-19-10-26-9-17-15-28-22-48-5-16-11-43-7-59zm3-29c4-1 4 0 8 1 30 7 54-1 62 0 1 5 2 5 1 11-6 6-25 13-33 13h-22c-4-1-13-4-16-7v-18zm71-11c-8 1-17 3-25 3l-41-2c-3-1-7-3-9-6s-7-14-9-18c-7-15-11-30-8-47 3-19-1-3 5-23 3-9 14-35 27-26 8 6 7 7 18 11 8 3 14 3 22 7 5 2 12 7 17 11 19 12 11 15 11 28-1 18-3 21-5 37-1 8-1 17-3 25zm11 50c0-6-1-13 0-19 0-3 1-4 0-8-1-17 0-23 2-41l3-33c4-27 5-43 18-70 5-11 9-30 12-41 4-14 1-4 2-14 0-10 7-33 8-45 1-15 11-41 17-54 4-9 22-8 26-9 24-5 41-3 65 0 37 5 58-12 92-12 22 0 21-9 25 3 2 7 8 22 8 28 2 6 0 8 2 15 6 18 6 29 5 49 0 4-6 23-8 28-4 13-14 36-23 47-12 15-24 36-35 54-3 4-4 8-6 12-13 22-26 46-37 69-5 11-9 30-11 42-1 7 3 9 1 14-4 3-37 2-47 0-14-3-26-7-39-11l-30-8c-12-2-12-6-33-4-9 2-8 7-17 8zm-75-182c0-8 15-19 26-31l90-83c0 9-3 12-5 20-2 6-2 14-4 21-5 20-6 42-11 62-2 6-3 12-6 18l-14 35c-3 0-13-10-17-12-7-4-12-7-19-10-6-3-20-6-23-8-9-8-6-7-17-12zm281-459c10-7 27-32 31-40 2-4 1-6 4-10 4-8 0-5 6-15 2-4 0-2 3-3 8 3 29 26 35 32s10 13 15 20c3 5 14 8 19 14 2 10-1 13-6 22-7 14-4 9-7 20-8 33-27 45-44 67-3 3-2 5-6 9l-6 6c-7 9-9 15-13 15l-5-43c-2-7-3-14-4-21-2-20-9-17 6-31 5-4 11-5 13-8-1-3-2-4-5-6-8 6-3 6-27-4-3-7-10-16-9-24zM222 554c0 8-2 12-6 19-10 21-8 16-21 28-3 3-8 10-11 12-20 13-14 10-28 20-5 4-11 7-15 11-3 3-5 7-16 0-11-5-13-19-21-28-7-8-27-3-35-60-3-16-1-30-3-46-1-12 2-23-4-44-5-21-3-17-14-34-5-8-17-18-25-23-5-3-11-8-12-13-2-15 8-51 16-56 10-7 30 0 41 2 4 0 8-1 10 2 8 10-8 8-11 23-1 7-2 36 9 36 5-2 0-25 1-32 0-3 1-6 2-10l5 1 6 19c4 16-7 31-4 43 1 4 7 14 9 17 4 4 8 5 12 13 2 3 2 5 4 8s4 4 6 7c3 5 5 11 9 15 4 7 6 11 6 19-10 7-9 16-14 23-7 10-13 35-3 44 5-4 5-19 7-26 2-5 1-6 4-12 2-6 2-8 6-10 14 24 40 30 66 32l10-1c6 0 8 1 14 1zm-47-94c0-12-1-13-3-23-1-4 0-8 0-12-2-24 0-24 11-50 4-9 13-22 18-31 4-6 7-10 11-16 28-43 35-30 58-42 6-2 12-4 17-7 10-5 24-12 31-20 16-17 13-19 19-30 3 0 16 1 19 2 13 3 32 12 43 18 8 3 4 5 12 8 5 2 8 6 12 9 7 7 13 14 20 21h9c2-7-20-20-20-26 4-1 38 5 46 7 11 2 34 5 44 9v12c-1 5-2 4-5 8 7 11-24 58-35 63-4-2-9-12-13-15-9-8-19-21-29-29-6-4-9-13-17-9-6 6 15 20 21 25 46 46 45 65 58 123l9 52c1 13 8 26 9 39 0 11 6 33 4 43-11-4-27-28-35-31-9 7-2 11 4 16 5 3 10 9 14 13 5 5 11 8 16 12l7 7c4 2 6 2 8 5l2 19v20c-8 0-14 0-21 1-8 0-10 3-19 1-13-3-23-6-35-10l-32-11c-12-5-25-14-30-13-3 9 2 9 15 15 23 12 64 24 67 25-4 3-10 3-15 4-20 4-14 1-31 1-16 0-30-5-47-4-12 0-13 5-29 5-4-14-18-42-28-53-23-25-42-35-57-66-17-34-6-40 10-76 3-6 5-9-2-11-6 4-6 9-9 15l-14 32c-2 3-4 4-4 7 0 0-4 20-10 25s-29 7-37 6c-28-3-43 2-65-16-2-1-3-3-5-6-4-8-2-11 0-18l3-21c2-12 11-44 17-51 6 10-4 25 7 33 4-1 3-2 6-4zm94-251c2 2 12 13 17 13 7 0 8-14 11-18 6 2 17 16 22 21 10 9 2 18-5 27-13 14-33 18-41 22-4 3-8 7-13 7-2-3-3-9-5-13l-8-9c-10-14-17-13-19-18 3-4 13-5 18-9 7-6 7-9 10-17 3-1 3 1 7-2 3-2 3-3 6-4zm-85-51c4-1 3-1 6-2s3 0 6-1c4-2 3-7 5-11 7-1 12 2 15 8 2 3 3 16 2 20-4 5-8 2-10 9l3 4 7-1c8 8 8 13 20 13l11 11c-1 2-6 16-8 18l-37 13c-7 1-16 0-21-5-1-14 5-14-3-28-5-9-1-19-10-24-7 4-2 8-4 14-9 0-2-19 1-28 2-6 2-3 6-7-1-5-3-5 0-10 5 0 6 5 11 7zm-15-36c4 5 5 16 5 23-4 0-3 0-6-1-7-2-9 3-13 0-4-10 10-6 9-15-4-3-7-2-13-1v-7c0-4 1-3 1-7 5 0 14 5 17 8zm13-72c5-4-1-10 21-25 5-3 25-15 30-13 0 4-7 13 2 14 0 0 45-11 52-3l-5 6c1 6 9 7 15 9 10 4 41 16 43 28-3 1-19-1-12 8 2 2 4 2 7 6 4 7 18 40 13 46-8 3-7-3-11-6-12 3-7 17-5 25 0 7 1 29-4 32-5-1-2-4-7-7-10 0-6 24-16 28-6-1-9-8-14-3-4 5-2 12-6 16-10 1-9-16-20-14-4 4-1 5-5 8-9-1-15-15-19-19-6 0-7 4-11-1-9-9 5-22-6-39-4-6-15-10-22-13-9-3-11 12-17 14-4-6 2-23-11-34-6-4-25-9-28-19-6-23 22-62 28-61 2 5 0 15 8 17zm468 1344c4-2 14 6 19-2 2-4 0-8 2-12 1-3 4-4 6-7 29-35-18-79-32-81-8-1-10 7-17-4-4-8-12-16-19-21-2-3-3-5-6-8-18-17-32-38-41-63-12-31-14-28-27-52-3-6-5-12-9-18-16-25-10-27-37-42-9-6-3-5-16-9-2-1-17-8-18-9-4-3-7-13-8-18-1-9 4-11 9-17 8-11-4-26 13-64 13-32 22-42 36-69l19-34c6-10 15-20 22-30 14-20 26-50 31-74 5-26-4-65-13-90-5-16-13-22-14-38 0-8 1-17-4-24-3-5-8-8-10-15l-6-47c-2-14-12-27-1-39 23-26 27-29 47-57 29-40 15-27 26-55 2-6 6-11 9-17 6-19-6-22-17-31-5-4-8-9-12-14-7-9-32-32-41-38-15-11-2-23-21-30-21-7-21-7-43-9-15-2-31-5-46-7-22-2-21-7-38-15-7-4-31-13-39-14-12-3-31 4-38-10-9-19 11-20 18-25 13-10 8-30 7-43-2-15 19 7 18-21 0-18-12-33-13-39-1-12 18-7-3-28-12-12-19-15-34-21-19-6 6-14-16-20-33-8-34 1-46 0-8 0 7-22-24-9-5 3-13 6-18 8-5 3-11 11-15 13-9 3-7-17-27 5-17 18-35 46-24 71 8 17-4 32 6 44 11 14 16 10 8 38-8 26 13 17 19 27 8 13-8 25 14 37 15 7 28-5 42 5 6 3 22 23 20 30s-13 3-29 22c-19 22-48 74-58 100-5 12-9 25-14 38s-8 27-14 39c-3-6-6-13-11-18-4-5-8-14-12-19-6-8-21-15-11-43 6-16-4-34-9-49-6-22-7-18-37-23-8-1-17-5-25 0s-11 5-15 15c-3 9-13 39-13 47 2 33 43 27 51 69 8 41 3 35 6 55 1 9 0 22 0 31 0 6 3 19 5 25 9 42 28 44 37 54 12 13 7 23 30 31 12 4 20-7 28-13 3-2 7-5 9-6 5-5 2-4 9-7 4-3 22-17 25-20 4-5 11-11 14-16 6-8 12-20 16-30 1-3 2-8 3-11 19-8 19-2 28-20 5 4 14 28 20 36 3 5 9 10 14 15l28 28c9 7 33 47 30 52-8 7-7-2-14 12-3 5-7 11-10 16-14 17-12 12-26 25-12 13-79 76-92 87-10 8-16 19-20 31-2 4-8 11-10 16-16 29-17 51-6 80 3 7 15 32 14 37 0 15-5 34-4 48 1 11 6 31 9 42 3 13 24 58 31 72 7 15 10 21 13 38 5 25 1 23 2 32 1 4 3 5 2 9-3 3-10 2-16 5-35 18-8 29-10 34-4 4-7 2-11 4-5 2-3 3-10 4-5 0-17 5-23 7-12 3-27 0-49 13-14 9-21 26-4 37 12 7 16 2 21 11 3 7 8 14 16 13 2-3 5-13 7-15l18-1c4 4 2 8 6 11 4 1 11 3 14 2l8-12c6-1 12-1 18 1 3 4 3 12 11 10 7-1 7-8 11-11 5-1 20-2 24-1 1 5-5 26 16 12 7-4 4-5 8-11 1-1 23-1 35-12 9-9 11-22 11-35 0-14-4-45-12-57-7-10-4-5-13-9-5-11-4-44-4-57 0-8 2-18 4-26 1-6 2-22 5-25 4 1 10 12 12 16 4 10 4 14 6 23 6 31 31 46 52 62 12 8 23 15 34 22 7 5 11 6 17 12 6 4 12 7 18 11 21 10 47 32 65 49 6 5 10 8 15 13 5 4 11 9 16 12-8 6-13-2-24 19-6 12-6 14-16 25-13 12-3 7-23 20-7 4-17 12-24 16-5 3-7 7-11 11-4 5-5 9 1 13 13 10 28 18 44 18 12-1 7 2 13 7 5 3 10 6 15 4 7-4 3-9 7-14 3-2 11-3 15-1 4 3 13 19 19 5 3-7-2-7-1-12 1-2 14-7 16-7 5 2 9 13 19 7 2-1 6-6 6-8 1-3-3-5-5-8 1-1 16-10 18-10 4-1 12 8 21 3 4-6-1-9 2-15zm-322-311c1 5 4 6 9 7 15 4 15 5 22-4 3-4 4-7 0-10-4-1-5 2-7 5-16 1-18-6-24 2zM219 943c0-10-10-9-17-9-3-4-3-11-9-9-6 1-5 16 11 20 6 1 10 2 15-2z"/>
    <path class="body" fill="#F0DCC8" d="M328 1083c6-8 8-1 24-2 2-3 3-6 7-5 4 3 3 6 0 10-7 9-7 8-22 4-5-1-8-2-9-7zM184 158c-5-2-6-7-11-7-3 5-1 5 0 10-4 4-4 1-6 7-3 9-10 28-1 28 2-6-3-10 4-14 9 5 5 15 10 24 8 14 2 14 3 28 5 5 14 6 21 5l37-13c2-2 7-16 8-18l-11-11c-12 0-12-5-20-13l-7 1-3-4c2-7 6-4 10-9 1-4 0-17-2-20-3-6-8-9-15-8-2 4-1 9-5 11-3 1-3 0-6 1s-2 1-6 2zm85 51c-3 1-3 2-6 4-4 3-4 1-7 2-3 8-3 11-10 17-5 4-15 5-18 9 2 5 9 4 19 18l8 9c2 4 3 10 5 13 5 0 9-4 13-7 8-4 28-8 41-22 7-9 15-18 5-27-5-5-16-19-22-21-3 4-4 18-11 18-5 0-15-11-17-13zm-47 345c-6 0-8-1-14-1l-10 1c-26-2-52-8-66-32-4 2-4 4-6 10-3 6-2 7-4 12-2 7-2 22-7 26-10-9-4-34 3-44 5-7 4-16 14-23 0-8-2-12-6-19-4-4-6-10-9-15-2-3-4-4-6-7s-2-5-4-8c-4-8-8-9-12-13-2-3-8-13-9-17-3-12 8-27 4-43l-6-19-5-1c-1 4-2 7-2 10-1 7 4 30-1 32-11 0-10-29-9-36 3-15 19-13 11-23-2-3-6-2-10-2-11-2-31-9-41-2-8 5-18 41-16 56 1 5 7 10 12 13 8 5 20 15 25 23 11 17 9 13 14 34 6 21 3 32 4 44 2 16 0 30 3 46 8 57 28 52 35 60 8 9 10 23 21 28 11 7 13 3 16 0 4-4 10-7 15-11 14-10 8-7 28-20 3-2 8-9 11-12 13-12 11-7 21-28 4-7 6-11 6-19zm266-187c-1 8 6 17 9 24 24 10 19 10 27 4 3 2 4 3 5 6-2 3-8 4-13 8-15 14-8 11-6 31 1 7 2 14 4 21l5 43c4 0 6-6 13-15l6-6c4-4 3-6 6-9 17-22 36-34 44-67 3-11 0-6 7-20 5-9 8-12 6-22-5-6-16-9-19-14-5-7-9-14-15-20s-27-29-35-32c-3 1-1-1-3 3-6 10-2 7-6 15-3 4-2 6-4 10-4 8-21 33-31 40zM151 121v7c6-1 9-2 13 1 1 9-13 5-9 15 4 3 6-2 13 0 3 1 2 1 6 1 0-7-1-18-5-23-3-3-12-8-17-8 0 4-1 3-1 7zm42 804c6-2 6 5 9 9 7 0 17-1 17 9-5 4-9 3-15 2-16-4-17-19-11-20zm78 33c2-8 2-17 3-25 2-16 4-19 5-37 0-13 8-16-11-28-5-4-12-9-17-11-8-4-14-4-22-7-11-4-10-5-18-11-13-9-24 17-27 26-6 20-2 4-5 23-3 17 1 32 8 47 2 4 7 15 9 18s6 5 9 6l41 2c8 0 17-2 25-3zm77 167c20 2 11 3 34-9 9-4 19-13 27-19 9-6 15-15 22-23 6-8 5-9 5-18-1-9 3-15 2-21-11 0-25 1-37-1-16-4-31-9-47-13-5-1-9-4-14-5-4-2-11-3-16-4-8-1-10-2-19-1-5 9-1 26 1 35 2 10 1 21 9 32 2 3 2 2 5 4 2 2 2 4 4 6 8 9 16 10 24 37z"/>
    <path class="boots" fill="#FFFFFF" d="M572 1377c3 4 3 3 12 4 8 2 17 4 25 1 4-1 7-1 10-4-6 0-8 0-13-2-24-6-20-7-34 1zm-360-100c0 5 11 15 15 18 3 2 6 5 9 7 6 4 4 5 8 9 7 1 11-1 18-1l-15-16c-7-6-9-11-14-17h-21zm23-28c5 4 5 4 13 4 2-4-1-3 4-8l6-6c4-4 5-14-5-14-4 7-1 6-9 12-4 3-9 6-9 12zm304 114c9 1 13-4 18-10 4-4 13-10 15-13-1-6-4-6-9-6-3 6-12 17-17 23-3 5-4 3-7 6z"/>
</svg>
