<svg xmlns="http://www.w3.org/2000/svg" data-kind="player" width="97" height="180" fill-rule="evenodd" clip-rule="evenodd" image-rendering="optimizeQuality" shape-rendering="geometricPrecision" text-rendering="geometricPrecision" viewBox="0 0 1549 2874">
    <path class="hair" fill="#000000" d="M679 20c-2 11 7 13 4 23-7 7-12 4-21 2-13-1-11 4-22 4-14-1-39 1-44 16l20 14c-4 13-63 51-65 66 6 6 19 3 20 19 1 6-8 21-11 28-4 14-13 54-10 68 6 5 11 2 14 10 5 10 1 43 13 62 16 23-6 6 37 61 9 11 16 16 24 26 14 15 8 14 32 17 14 3 30 4 44 6 15 3 21 14 34 7 51-30 81-26 118-80 15-22 17-56 18-82 1-27 13-64 2-90l-14-2c-5-14-1-50-8-69-9 0-9 9-17 0-2-2-6-13-8-17-2-6-13-30-16-34-12-1-3 3-14 6-8-4-31-41-40-45-6 8-1 20-16 14-7-3-17-9-25-12-12-6-35-24-49-18z"/>
    <path class="shirt" fill="#FF0000" d="M592 480c-21 0-110 59-125 77-17 20-73 59-83 69-9 10-15 19-24 28-12 14-12 8-21 28-4 9-12 26-17 34-33 52-49 79-64 140-3 15-2 30-6 45-14 53-13 34 20 58 8 6 17 13 25 19 20 14 41 26 66 26 33 0 81 10 103-34 2-6 3-11 7-16 4-6 6-4 9-13-4-18-19-30-25-49-4-13-20-52-11-58 15-9 18 49 31 67 18 25 46 68 51 100l14 87c3 13 6 29 8 43 5 33 26 102 20 126-6 21-3 19 16 27 89 38 264 15 357-6 46-10 39-7 45-55 4-29 12-59 14-88 2-32 6-56 13-88 4-20-5-12 4-37 3-9 3-11 2-20l11-88c2-9 7-12 7-19 0-15-38-49-23-68 16-3 14 18 22 31 7 13 17 21 25 32 9 15 18 19 26 31 7 10 18 27 30 27 5-15 9-35 19-54 8-15 18-31 28-44 26-37 42-49 84-62-4-32-141-189-181-227-13-12-27-19-43-26-26-10-13-18-94-40-11-3-20-3-30-4-13-2-17-6-27-8-16-4-27 19-39 27-13 10-33 18-48 20-41 7-82 15-123 15-19 0-41-1-59-10-27-13-15-26-14-43z"/>
    <path class="shorts" fill="#FFFFFF" d="M751 1957c14-28 19-86 22-118 2-22-1-46-1-69s0-45-6-66c-13-4-35-2-44-14 7-21 17 3 80-4 50-5 55-35 69-18-9 19-41 20-46 32-6 10 4 100 7 116 4 20 4 34 10 55 4 10 10 45 15 50 9-3 20-22 26-30 5-9 24-16 34-23 53-34 117 0 165 29 9 6 8 10 15 14 6 4 13 4 19 9 11 8 16 27 26 31 14-26 17-102 13-132-8-56-65-324-82-371-13-40-28-64-51-99-10-14-23-27-33-42-15-21-36-15-58-10-41 9-88 19-130 20-41 2-104 10-143 4-18-3-43-7-60-14-21-9-34-22-45 7-15 38-26 74-37 113s-17 82-30 121c-17 50-28 212-31 271-1 24-2 47-1 71 2 20-5 48 14 58 33 17 96 9 134 9 47 0 103 6 149 0z"/>
    <path class="socks" fill="#FF0000" d="M1070 1907c-3 6 5 34 7 43 2 15-1 34-1 50 0 37-30 86-9 79 24-9 33-162 3-172zm-524 354c0 9 21 40 26 51 4 10 9 18 12 27 3 11 4 20 9 30 14 32 29 86 37 121 10 40 24 91 24 134 0 13-3 22 10 28 35 17 90-12 92-16l-8-53c-4-20-2-38-5-56-3-28 6-88 14-116 6-24 1-7-8-47-5-17-10-38-10-56 0-10-2-22-1-30 0-12 4-13 2-28-3-21 15-30 9-50-27 3-27 63-137 63-20 0-49-3-66-2zm-45-73c-2 7 27 45 35 50 12 8 58 10 74 10 18-1 57-7 73-14 15-7 32-31 47-44 11-9 10-17 6-30-9-25-9-4-82 27-29 12-44 12-74 9-9-1-76-9-79-8zm449-315c-6 1-34 14-39 18-32 25-66 76-68 78-6 5-19 5-16 14 2 6 11 4 19 10 9 7 31 41 36 51 5 11 11 42 13 46 8 11 30-3 43-5 39-7 43 19 98-7 28-13 31-110 23-141-3-11-8-34-18-41-23-17-63-30-91-23z"/>
    <path class="outline" fill="#000000" d="M836 2356c-12 5-12 17-10 29 1 13 2 27 22 19 17-6 17-61-12-48zm-228 361c3 18 10 33 10 52-21 6-26-15-30-30-5-19-34-64 8-40 9 5 10 8 12 18zm-13-95c15 0 31 29 13 39-24 13-19-27-13-39zm42 23c-15 6-23-25-18-29 17-12 25 20 18 29zm-91-384c17-1 46 2 66 2 110 0 110-60 137-63 6 20-12 29-9 50 2 15-2 16-2 28-1 8 1 20 1 30 0 18 5 39 10 56 9 40 14 23 8 47-8 28-17 88-14 116 3 18 1 36 5 56l8 53c-2 4-57 33-92 16-13-6-10-15-10-28 0-43-14-94-24-134-8-35-23-89-37-121-5-10-6-19-9-30-3-9-8-17-12-27-5-11-26-42-26-51zm-45-73c3-1 70 7 79 8 30 3 45 3 74-9 73-31 73-52 82-27 4 13 5 21-6 30-15 13-32 37-47 44-16 7-55 13-73 14-16 0-62-2-74-10-8-5-37-43-35-50zm295-188c11-2 45 16 54 25 9 8 21 42 25 55 16 55 24 74 29 130 2 24 1 50 3 74 0 10 3 24 4 35 2 22-9 81-18 100-9 20-21 35-45 34-23-1-39-12-51-31-10-18-26-29-30-50-27-128 5-155 7-172 3-51-10-56-24-96-7-22-9-47 2-68 9-15 26-33 44-36zm-80 126c0 11-7 14-17 19-20 11-48 28-69 33-30 7-98-3-129-8-20-3-8-5-13-19-9-27-22-15-36-67-8-31 10-76 12-87 1-10 1-21 6-28 16-1 13 11 71 6 8-1 10 1 17 1 32-2 6-2 35-1 6 1 10-1 17-1 26-2 85 3 116 3 12 0 17-9 28 3 1 15-12 27-17 39-12 36-10 52-35 79-11 12-37 5-32 23 16 5 37-9 46 5zm234-253c28-7 68 6 91 23 10 7 15 30 18 41 8 31 5 128-23 141-55 26-59 0-98 7-13 2-35 16-43 5-2-4-8-35-13-46-5-10-27-44-36-51-8-6-17-4-19-10-3-9 10-9 16-14 2-2 36-53 68-78 5-4 33-17 39-18zm166 66c10 18 20 25 14 45-3 12-13 36-26 38-2-6 0-47-1-60-1-3-4-27-4-28 3-11 13-1 17 5zm-39 11c-2-9-10-37-7-43 30 10 21 163-3 172-21 7 9-42 9-79 0-16 3-35 1-50zm-257-89c1 7 5 19 6 27l14 55c-12 9-6-3-10 15-15 4-37 25-56 21-3-14 6-17 9-30 2-12 4-21 7-33 20-90-1-136 2-179 0-10-7-24 6-28 7 7 4 22 5 32l15 88c2 12 0 21 2 32zm-69 96c-46 6-102 0-149 0-38 0-101 8-134-9-19-10-12-38-14-58-1-24 0-47 1-71 3-59 14-221 31-271 13-39 19-82 30-121s22-75 37-113c11-29 24-16 45-7 17 7 42 11 60 14 39 6 102-2 143-4 42-1 89-11 130-20 22-5 43-11 58 10 10 15 23 28 33 42 23 35 38 59 51 99 17 47 74 315 82 371 4 30 1 106-13 132-10-4-15-23-26-31-6-5-13-5-19-9-7-4-6-8-15-14-48-29-112-63-165-29-10 7-29 14-34 23-6 8-17 27-26 30-5-5-11-40-15-50-6-21-6-35-10-55-3-16-13-106-7-116 5-12 37-13 46-32-14-17-19 13-69 18-63 7-73-17-80 4 9 12 31 10 44 14 6 21 6 43 6 66s3 47 1 69c-3 32-8 90-22 118zm-588-643c0 18 9 56 1 85-4 17-21 44-36 55-8 5-20 13-28 18-12 7-19 3-31 14-25 26-18 32-30 59-3 5-14 31-21 16-4-8 3-30 5-39 23-108 75-156 83-189s6-37 26-65c10-15 22-47 27-64 14-51 26-96 33-148 2-15 11-63 21-70 4-3 25-15 29-17 5-3 24 8 27 13 9 11 16 11 29 17 11 4 20 10 31 14 52 19 55 3 74 8-1 11-8 6-16 19-6 9-5 14-8 25-5 19-9 28-22 44-2 3-31 28-35 31-42 29-63 64-94 106-23 31-32 46-65 68zm1247-127c-7-12-11-9-17-17l-37-61c-52-73-105-104-127-135-9-12-11-31-20-46-13-21-35-3-47-17-16-18-7-28 3-44 21-35 68-96 112-64 13 10 24 19 39 27 36 22 49 26 57 75 4 25 7 27 15 49 24 68 30 155 54 209 10 23 9 21 26 40 48 53 57 127 68 195 5 28-20 21-33 10-23-20-43-45-60-71-28-42-17-33-32-68-5-12-15-4-15 4-1 6 16 40 17 47 3 14-11 36-31 28-10-27 15-49 7-87-14-67 13-56 21-74zM592 480c-1 17-13 30 14 43 18 9 40 10 59 10 41 0 82-8 123-15 15-2 35-10 48-20 12-8 23-31 39-27 10 2 14 6 27 8 10 1 19 1 30 4 81 22 68 30 94 40 16 7 30 14 43 26 40 38 177 195 181 227-42 13-58 25-84 62-10 13-20 29-28 44-10 19-14 39-19 54-12 0-23-17-30-27-8-12-17-16-26-31-8-11-18-19-25-32-8-13-6-34-22-31-15 19 23 53 23 68 0 7-5 10-7 19l-11 88c1 9 1 11-2 20-9 25 0 17-4 37-7 32-11 56-13 88-2 29-10 59-14 88-6 48 1 45-45 55-93 21-268 44-357 6-19-8-22-6-16-27 6-24-15-93-20-126-2-14-5-30-8-43l-14-87c-5-32-33-75-51-100-13-18-16-76-31-67-9 6 7 45 11 58 6 19 21 31 25 49-3 9-5 7-9 13-4 5-5 10-7 16-22 44-70 34-103 34-25 0-46-12-66-26-8-6-17-13-25-19-33-24-34-5-20-58 4-15 3-30 6-45 15-61 31-88 64-140 5-8 13-25 17-34 9-20 9-14 21-28 9-9 15-18 24-28 10-10 66-49 83-69 15-18 104-77 125-77zm126-21c14 2 13 10 22 10 8 1 12-9 19-12 5-3 16-6 23-9 15-7 29-20 45-20 13 21 27 42 3 60-31 23-213 46-223 16-1-10 22-55 31-60l80 15zm181-156c-4-17 6-43 6-75 10 4 13 39 13 50 0 12-1 24-19 25zm-338 32c-7 7-18 7-22-3-3-8-6-18-8-27-2-13-16-46-1-55 10 11-1 17 3 25 5 12 14-4 18 13 2 7 2 17 4 26s7 13 6 21zM662 45c9 2 14 5 21-2 3-10-6-12-4-23 14-6 37 12 49 18 8 3 18 9 25 12 15 6 10-6 16-14 9 4 32 41 40 45 11-3 2-7 14-6 3 4 14 28 16 34 2 4 6 15 8 17 8 9 8 0 17 0 7 19 3 55 8 69l14 2c11 26-1 63-2 90-1 26-3 60-18 82-37 54-67 50-118 80-13 7-19-4-34-7-14-2-30-3-44-6-24-3-18-2-32-17-8-10-15-15-24-26-43-55-21-38-37-61-12-19-8-52-13-62-3-8-8-5-14-10-3-14 6-54 10-68 3-7 12-22 11-28-1-16-14-13-20-19 2-15 61-53 65-66l-20-14c5-15 30-17 44-16 11 0 9-5 22-4zm194 59c-12-8-22-54-39-60-11 3-3 7-15 8-9-7-36-52-52-46-9 9 1 12-3 21-13 6-62-37-86-25-13 7 0 14 0 27-65 0-61 14-78 25-31 20 5 25 7 30 0 10-69 48-58 75 8 6 9 0 19 5 4 7-5 23-8 32-3 11-2 27-10 33-17 13-31 8-23 57 2 10 15 62 21 67 12 11 26 1 35 2 7 1 25 34 36 48 3 4 19 22 20 24 3 19-27 36-42 41-52 16-114 68-154 105-35 33-54 39-88 83-12 16-19 41-29 56-79 117-62 184-84 219-12 19 0 16 1 31-10 13-26 5-33 23-12 28-22 102-26 133-4 23-17 60-23 84-8 28-17 49-34 72-20 26-12 51-30 79-29 45-49 95-68 145-7 17-19 76-7 88 20 3 34-8 42-25 7-15 13-36 21-49 14-21 62-32 83-58 54-67 21-124 36-137 20-16 33-34 48-55 18-28 39-54 61-80 30-35 86-61 98-111 9-40 14-26 31-39 13-10 24-22 38-32 21-15 13-26 29-40 27 25 26 103 33 140 5 24 8 47 14 72 6 24 16 43 15 70-2 46-25 88-42 130-16 43-21 92-35 136-12 35-18 72-22 109-2 14 0 26-2 40-6 50-12 108-14 157 0 15-3 114 0 125 4 13 12 11 9 28-2 12 1 25-2 34-3 12-8 19-10 33-3 26-4 48 6 73 13 31 21 20 28 60 4 23 52 80 64 107 9 18 21 37 30 56 5 11 6 22 10 33 4 12 9 19 13 31 5 23 11 45 19 67 6 21 40 126 18 135-36 15-106-45-132 11-38 81 38 144 40 152 2 11 3 21 16 26 22 7 19-11 30-9 4 0 28 7 33 8 32 9 12 43 28 58 13 11 12 13 29 5 6-3 26-5 32-3 12 7 6 22 26 29 22 8 16-21 21-30 3-4 22-11 27-9 8 3 10 12 24 1 9-8 9-17 8-28-3-39 29-70-11-148-16-30-20 8-31-77-1-11-1-23-2-34-3-21-2-115 13-127 7 3 17 26 37 37 17 9 39 16 57 9 32-13 52-57 57-90 10-74-3-69-2-133 0-38-20-117-19-126 1-14 40-22 52-20 20 3 42 8 63 4 97-18 56-34 86-58 55-44 76-152 69-219-4-38-14-86-23-123-6-20-10-37-16-57-6-19-7-39-13-59-6-17-9-42-13-61-13-62-43-157-87-204-35-36-32-41-17-107 13-55 10-85 18-129 4-27 15-101 21-123 5-18-1-50 10-59 10 3 23 24 33 32s27 21 32 32c8 15 29 19 44 11 7-4 32-26 35-27 11 8 2 22 36 56 14 14 32 26 48 41 30 31 58 62 79 99 23 41 26 28 12 60-10 24 1 51 0 79 0 27-20 42-5 71 15 28 54-14 57-16 17 18 32 43 55 66 20 19 69 45 68-3-1-52-24-147-53-189-23-34-32-32-47-75-8-25-18-73-22-99-10-69-29-95-41-142-17-67-7-43-83-97-53-37-26-34-55-67-15-18-41-49-54-68-15-21-37-44-53-66-17-22-41-42-61-61-20-21-50-33-75-47-27-15-62-22-93-28-25-5-71-14-71-47 2-4 23-23 30-31 39-51 4-61 45-73 16-4 20-25 18-38-2-10-2-19-4-27s-5-16-7-24-3-19-5-25c-4-11-9-8-14-14-4-4-3-6-6-10-5-4-5-1-10-6-11-11 0-63-16-70-12-1-7 1-16 4zm-41 1946c-6 4-19 64 14 44 22-14 2-56-14-44zm-41 14c-5 3-14 16-14 24 0 10 8 22 19 21 21-3 11-52-5-45zm9 113c13 0 18-1 19-15 2-26-21-42-26-13-2 15 0 17 7 28zm47-59c-16 13-14 44 8 42 20-1 13-39-8-42zm42 112c-15 0-15 6-19 19-10 35 29 40 27 12-1-12-1-21-8-31zm-70 12c-18 3-28 49-10 50 21 0 26-38 10-50zm2 70c-12 5-16 9-12 24 2 8 3 23 16 22 14-1 17-55-4-46zm61-15c-6 5-8 21-8 29 0 10 12 15 20 11 19-10 3-52-12-40z"/>
    <path class="body" fill="#F0DCC8" d="M716 2126c-9-14-30 0-46-5-5-18 21-11 32-23 25-27 23-43 35-79 5-12 18-24 17-39-11-12-16-3-28-3-31 0-90-5-116-3-7 0-11 2-17 1-29-1-3-1-35 1-7 0-9-2-17-1-58 5-55-7-71-6-5 7-5 18-6 28-2 11-20 56-12 87 14 52 27 40 36 67 5 14-7 16 13 19 31 5 99 15 129 8 21-5 49-22 69-33 10-5 17-8 17-19zm-553-812c33-22 42-37 65-68 31-42 52-77 94-106 4-3 33-28 35-31 13-16 17-25 22-44 3-11 2-16 8-25 8-13 15-8 16-19-19-5-22 11-74-8-11-4-20-10-31-14-13-6-20-6-29-17-3-5-22-16-27-13-4 2-25 14-29 17-10 7-19 55-21 70-7 52-19 97-33 148-5 17-17 49-27 64-20 28-18 32-26 65s-60 81-83 189c-2 9-9 31-5 39 7 15 18-11 21-16 12-27 5-33 30-59 12-11 19-7 31-14 8-5 20-13 28-18 15-11 32-38 36-55 8-29-1-67-1-85zm1247-127c-8 18-35 7-21 74 8 38-17 60-7 87 20 8 34-14 31-28-1-7-18-41-17-47 0-8 10-16 15-4 15 35 4 26 32 68 17 26 37 51 60 71 13 11 38 18 33-10-11-68-20-142-68-195-17-19-16-17-26-40-24-54-30-141-54-209-8-22-11-24-15-49-8-49-21-53-57-75-15-8-26-17-39-27-44-32-91 29-112 64-10 16-19 26-3 44 12 14 34-4 47 17 9 15 11 34 20 46 22 31 75 62 127 135l37 61c6 8 10 5 17 17zM638 444c-9 5-32 50-31 60 10 30 192 7 223-16 24-18 10-39-3-60-16 0-30 13-45 20-7 3-18 6-23 9-7 3-11 13-19 12-9 0-8-8-22-10l-80-15zm-77-109c1-8-4-12-6-21s-2-19-4-26c-4-17-13-1-18-13-4-8 7-14-3-25-15 9-1 42 1 55 2 9 5 19 8 27 4 10 15 10 22 3zm338-32c18-1 19-13 19-25 0-11-3-46-13-50 0 32-10 58-6 75zm205 1719c13-2 23-26 26-38 6-20-4-27-14-45-4-6-14-16-17-5 0 1 3 25 4 28 1 13-1 54 1 60z"/>
    <path class="boots" fill="#FFFFFF" d="M836 2356c29-13 29 42 12 48-20 8-21-6-22-19-2-12-2-24 10-29zm-218 413c0-19-7-34-10-52-2-10-3-13-12-18-42-24-13 21-8 40 4 15 9 36 30 30zm19-124c7-9-1-41-18-29-5 4 3 35 18 29zm-42-23c-6 12-11 52 13 39 18-10 2-39-13-39zm209-310c21-9 18 45 4 46-13 1-14-14-16-22-4-15 0-19 12-24zm61-15c15-12 31 30 12 40-8 4-20-1-20-11 0-8 2-24 8-29zm-63-55c16 12 11 50-10 50-18-1-8-47 10-50zm70-12c7 10 7 19 8 31 2 28-37 23-27-12 4-13 4-19 19-19zm-89-53c-7-11-9-13-7-28 5-29 28-13 26 13-1 14-6 15-19 15zm47-59c21 3 28 41 8 42-22 2-24-29-8-42zm-56-54c16-7 26 42 5 45-11 1-19-11-19-21 0-8 9-21 14-24zm41-14c16-12 36 30 14 44-33 20-20-40-14-44zm-19-50c-18 3-35 21-44 36-11 21-9 46-2 68 14 40 27 45 24 96-2 17-34 44-7 172 4 21 20 32 30 50 12 19 28 30 51 31 24 1 36-14 45-34 9-19 20-78 18-100-1-11-4-25-4-35-2-24-1-50-3-74-5-56-13-75-29-130-4-13-16-47-25-55-9-9-43-27-54-25z"/>
</svg>
