<svg xmlns="http://www.w3.org/2000/svg" data-kind="player" width="97" height="181" fill-rule="evenodd" clip-rule="evenodd" image-rendering="optimizeQuality" shape-rendering="geometricPrecision" text-rendering="geometricPrecision" viewBox="0 0 264 491">
    <path class="hair" fill="#000000" d="M101 16c-2 0-1-1-2-1-2 1-4 11-4 13 0 6 1 8 3 14 0 1 0 1 1 1 4-1 0-10 6-17 4-5 9-2 17-2 3 0 9-1 11-1 4 0 8-1 10 6 0 1 1 2 1 3 1 2 2 6 4 8 4 2 1-3 1-6 0-2 4-1 0-8-1-1-1 0-1-2s4-2 4-2c0-3-9-10-10-10 0 0-5 1-5-2 0 0 1 0 1-2-12-7-17 0-21 0-3 0-2-2-2-3-2 0-3 1-4 2-4 2-6 3-8 7-1 1-1 2-2 2z"/>
    <path class="shirt" fill="#FF0000" d="M149 83c0 2-4 9-6 11l-3 5c-2 1-3 3-5 4-9 4-17 3-25-4-3-3-1-2-5-6-6-6-5-13-6-12-2-1-10 1-12 2-5 1-8 5-11 8-1 1-1 0-2 1-5 4-9 9-13 14l-3 2-3 3-1 1-3 3c-3 2 0 3 1 4 2 2 3 5 5 6 1 1 3 2 3 3l4 18c2 0 5-1 7-2s2-2 2-4-2-5 1-5c2 0 1 5 2 7 0 1 1 1 1 2 0 2-2 0 0 5 1 3 3 6 5 9 2 4 3 10 8 12 7 2 4 1 6 4 1 1 2 1 2 2s-2 2-3 1l-2-2c-6-4-4-3-4 3v3l1 18c1 2 1 3 1 4v10c4 1 6 2 9 3 11 3 21 3 32 3h3c7 0 5 0 11-1 4 0 13 1 17-2 1-1 0-2 1-4 0-3 0-5 1-8 1-9 4-19 5-28v-4c-1 0-2 1-4 2l-3 3c-1 0-3 1-4 2s-1 1-2 1c-1 1-3 1-3 1 0-2 0-2 1-3 2-2 5-3 8-4 0-1 1-1 2-2 3-2 3-3 6-6 1-2 5-8 6-10s5-8 5-11c0-1-6-3-8 0-1 1-1 1-3 1 0-3 3-6 6-6s5 1 8 3c1 1 0 1 1 2l7 5c2-1 3-4 4-6 2-3 7-12 8-13 2-2 5-2 8-2-1-3-5-9-6-11l-11-13c-1-2-2-3-4-5-2-3-2-2-4-4l-3-4c-2-2-8-5-10-6-4-2-7-2-13-4-2-2-8-4-11-5-2 0-6-3-5 0 1 2 3 4 3 6z"/>
    <path class="shorts" fill="#FFFFFF" d="M71 295c0 8-1 9 0 18l1 12c0 2 0 3 1 5 2 0 3-4 10-4h8c4 0 15 3 20 5h12c1 0 1 1 2 0 3-1 1-3 2-5 0-3 0-2-1-7v-6-23c0-2-1-1-1-3s1-6 1-7-1-2-2-2l-7-4c-6-2-4-4-2-4 1 1 1 1 2 1l10 5c1 0 2-2 3-2 1-1 8-5 8-2 0 2-5 3-8 5-1 2-1 6-1 9 0 1-1 2-1 3v13s1 1 1 2v13c0 4 1 4 3 2 5-3 12-4 18-4l15 3c2 1 3 1 4 2 2 0 3 0 5 1 1 1 3 1 4 2l3 2c2 1 2 2 4 3 1-3 2-6 2-10v-3c0-4-3-15-3-23 0-5-1-10-1-14-1-4 0-7-1-15-1-1-1-1-1-3l-2-10c-1-4 0-5-1-8-2-3-5-10-7-14l-3-4c-4-6-5-4-12-3l-26 1h-8c-1 0-2-1-4-1-6 0-6 1-12-1l-7-1c-2-1-5-3-7-3h-2c-1 0-2 1-3 1s-1 2-2 4c0 2-1 3-1 5l-5 20c-3 10-5 12-6 26v6c0 2-1 3-1 5l-1 9v3z"/>
    <path class="socks" fill="#FF0000" d="M135 331c-1 0-4-1-5-1 0 1-1 2-1 3 0 3 0 5 2 7 0 2 0 2 2 2 3 2 3 0 3-3 0-2-1-7-1-8zm-57 56c0 1 1 5 2 7s2 3 5 4 3 1 7 0c6-1 8 0 15-2 1-1 4-3 5-4 3-2 2-3 3-6 0-2 1-6-1-7-2 1-2 5-15 7-14 3-16 1-21 1zm19 55c1 1 6 1 8 1 3 0 5 2 4-3-1-10 0-8 0-11v-4c1-4 5-28 4-30-3 0-2 4-14 5-1 1-3 0-4 1-12 1-9-1-13-1 0 1 7 16 8 21 1 4 1 2 2 5 1 2 1 3 2 5l3 11z"/>
    <path class="outline" fill="#000000" d="M84 374c0 3 11 3 11 0 0-2-3-1-7-1-1 0-4-1-4 1zm21 85c2 0 2 0 4 2 2 3 4 7 4 11-1-1-1-2-2-3l-4-7c-1-1-2-1-2-3zm2-5c-1 1-3-1-7-2-1 0-2 0-3-1h3c1 0 7 2 7 3zm-2-4c1-1 3-4 3-4 2 0 5 1 3 4-1 2-4 1-6 0zm-20 0c1-2 1-2 3-3 3-3 5-3 1 1-1 2-1 3-4 2zm12-8l-3-11c-1-2-1-3-2-5-1-3-1-1-2-5-1-5-8-20-8-21 4 0 1 2 13 1 1-1 3 0 4-1 12-1 11-5 14-5 1 2-3 26-4 30v4c0 3-1 1 0 11 1 5-1 3-4 3-2 0-7 0-8-1zm-19-55c5 0 7 2 21-1 13-2 13-6 15-7 2 1 1 5 1 7-1 3 0 4-3 6-1 1-4 3-5 4-7 2-9 1-15 2-4 1-4 1-7 0s-4-2-5-4-2-6-2-7zm64-27v-1-2c1-2 2-2 3-2 0 2 0 2-1 3l-2 2zm-13-2c-2-2-2-2-1-4 1 1 4 3 2 5-1-1-1 0-1-1zm-6-10c0-1 1-3 2-3 0-1 1-2 2-2 1 1 1 5 1 6-3 1-5 3-5-1zm-14 4c-1-2 0-4-2-4s-1 3-1 4c0 6 5 7 1 16-3 6 1 5 2 3 0-2 0-1 1-2 1 1 2 3 2 5 0 4-5 7-7 8s-11 3-14 3c-4 0-10 0-13-2-2-1-2-4-2-7 0-4 5 1 3-5l-2-2c-1-1-1-2-2-4-2-4-3-5-3-11v-4c1-4 0-8 1-10 1-4 0-6 3-9 3-1 2-3 10-3 1 0 3 1 4 1 2 0 9 2 11 2 5 2 10 3 15 4 0 2-5 16-7 17zm24-10c-2 0-2 0-2-2-2-2-2-4-2-7 0-1 1-2 1-3 1 0 4 1 5 1 0 1 1 6 1 8 0 3 0 5-3 3zm4-20c0-4 11-4 14-4l11 2c4 2 9 3 13 5 9 4 6 5 5 11-1 8-2 16-9 21-5 4-10 4-16 1l-11-7c-4-2-5-9-5-13-1-3-1-5-1-7-1-4-1-5-1-9zm-66-27v-3l1-9c0-2 1-3 1-5v-6c1-14 3-16 6-26l5-20c0-2 1-3 1-5 1-2 1-4 2-4 2 0 2-1 5-1 2 0 5 2 7 3l7 1c6 2 6 1 12 1 2 0 3 1 4 1h8l26-1c7-1 8-3 12 3l3 4c2 4 5 11 7 14 1 3 0 4 1 8l2 10c0 2 0 2 1 3 1 8 0 11 1 15 0 4 1 9 1 14 0 8 3 19 3 23v3c0 4-1 7-2 10-2-1-2-2-4-3l-3-2c-1-1-3-1-4-2-2-1-3-1-5-1-1-1-2-1-4-2l-15-3c-6 0-13 1-18 4-2 2-3 2-3-2v-10-3c0-1-1-2-1-2v-13c0-1 1-2 1-3 0-3 0-7 1-9 3-2 8-3 8-5 0-3-7 1-8 2-1 0-2 2-3 2l-10-5c-1 0-1 0-2-1-2 0-4 2 2 4l7 4c1 0 2 1 2 2s-1 5-1 7 1 1 1 3v29c1 5 1 4 1 7-1 2 1 4-2 5-1 1-1 0-2 0h-12c-5-2-16-5-20-5h-8c-7 0-8 4-10 4-1-2-1-3-1-5l-1-12c-1-9 0-10 0-18zm126-145c0-1 1-2 1-2 2-3 5-9 7-11 1-1 1-3 1-3 1-1 3-1 4-2 2-1 3 0 5 3 4 5 4 7 10 11 2 2 3 2 5 5 2 5 3 23 8 32 0 1 1 2 1 3 6 12 7 8 11 9 7 2 6 5 7 7l2 2c3 5 2 3 0 10-1 7-1 6-5 8-1 1-3 2-5 2-2 1-9-1-11-2-2-2-1-10-4-10s1 6 0 8c-2 0-2-1-2-3-2-6 0-8 1-13 0-1-1-6-1-8-2-7-9-11-12-15s-11-10-11-15c0-2 2-7-1-11-1-1-11-3-11-5zM14 216c-1 0-7-2-8-3-5-3-3-2-2-7 0-6 2-9 5-12 1-1 1-1 1-2l3-3c1-1 1-1 1-2 1-1 3-7 3-8 1-2 1-4 2-5l6-17c1-4 3-13 7-16l14-15c5-4 4-5 6-2 4 5 4 1 6 10 3 13 3 9-5 13l-3 3c-1 0-3-1-3 2 0 4 1 3 0 6l-4 5c-4 5-7 6-10 13-2 2-3 4-4 6 0 1-1 2-1 3-1 1-1 2-2 3-6 8 3 6 3 11 0 4 1 7-1 9-3 0 1-7-2-7-6 0 2 9-3 14-2 2-6 1-9 1zM124 85c4 0 6-1 10-2 7-3 5-8 8-10 1 1 1 3 2 5 1 3 1 3 1 6 0 1-2 6-2 7l-5 5c-3 4-8 6-13 6-6 0-12-3-14-6l-2-2-1-1-2-3c-1-1-3-4-3-6 0-3 0-9 3-10 1 2 1 7 3 8 4 3 11 3 15 3zm19 9c2-2 6-9 6-11s-2-4-3-6c-1-3 3 0 5 0 3 1 9 3 11 5 6 2 9 2 13 4 2 1 8 4 10 6l3 4c2 2 2 1 4 4 2 2 3 3 4 5l11 13c1 2 5 8 6 11-3 0-6 0-8 2-1 1-6 10-8 13-1 2-2 5-4 6l-7-5c-1-1 0-1-1-2-3-2-5-3-8-3s-6 3-6 6c2 0 2 0 3-1 2-3 8-1 8 0 0 3-4 9-5 11s-5 8-6 10c-3 3-3 4-6 6-1 1-2 1-2 2-3 1-6 2-8 4-1 1-1 1-1 3 0 0 2 0 3-1 1 0 1 0 2-1s3-2 4-2l3-3c2-1 3-2 4-2v4c-1 9-4 19-5 28-1 3-1 5-1 8-1 2 0 3-1 4-4 3-13 2-17 2-6 1-4 1-11 1h-3c-11 0-21 0-32-3-3-1-5-2-9-3v-10c0-1 0-2-1-4l-1-18v-3c0-6-2-7 4-3l2 2c1 1 3 0 3-1s-1-1-2-2c-2-3 1-2-6-4-5-2-6-8-8-12-2-3-4-6-5-9-2-5 0-3 0-5 0-1-1-1-1-2-1-2 0-7-2-7-3 0-1 3-1 5s0 3-2 4-5 2-7 2l-4-18c0-1-2-2-3-3-2-1-3-4-5-6-1-1-4-2-1-4l3-3 1-1 3-3 3-2c4-5 8-10 13-14 1-1 1 0 2-1 3-3 6-7 11-8 2-1 10-3 12-2 1-1 0 6 6 12 4 4 2 3 5 6 8 7 16 8 25 4 2-1 3-3 5-4l3-5zM98 48c0-2 1-1 3-3 3-2 2-6 3-9 2-12 5-11 12-10 2 0 2 0 3 1h3c4 0 9-1 10-1 9 0 7 0 11 12 2 6 5 3 6 7 2 8 0 11-5 16l-6 12c0 2-2 5-4 6-4 2-13 3-19 2-4 0-4-2-5-5s-3-6-3-9l-1-1c-1-1-2-3-4-4 0-1-1-1-1-2-1-1-2-2-2-4-1-4-1-3-1-8zm3-32c1 0 1-1 2-2 2-4 4-5 8-7 1-1 2-2 4-2 0 1-1 3 2 3 4 0 9-7 21 0 0 2-1 2-1 2 0 3 5 2 5 2 1 0 10 7 10 10 0 0-4 0-4 2s0 1 1 2c4 7 0 6 0 8 0 3 3 8-1 6-2-2-3-6-4-8 0-1-1-2-1-3-2-7-6-6-10-6-2 0-8 1-11 1-8 0-13-3-17 2-6 7-2 16-6 17-1 0-1 0-1-1-2-6-3-8-3-14 0-2 2-12 4-13 1 0 0 1 2 1zm0-6c-1-1-2-3-4 0 0 1 0 2-1 3 0 2-1 2-1 4-1 2-2 3-2 5-3 12 2 19 2 23 0 1-1 2-1 4s2 5 2 7c0 3 1 4 3 6 1 2 2 3 4 5 1 3 1 3 0 6-3 7-2 4-12 6-6 1-8 2-12 5l-18 17c-2 3-5 6-9 9 0 1-1 1-2 2l-2 2c-6 7-2 8-4 10l-6 7-6 6c-1 2-3 2-4 4-4 7-5 15-8 22-1 2-2 3-2 6-2 5-4 14-7 18-2 3-3 4-5 7l-2 2c-2 4-4 10-4 14 0 3 4 5 6 6 4 2 7 3 11 3 0 0 5 0 6-1 2-1 3-3 4-5s0-1 2-2c1 0 1-1 2-1 2-3 1-8 1-11 0-7-8-5-4-10 1-1 3-4 4-6 0-1 1-2 1-3 6-10 10-12 14-18 1-2 3-3 3-5 1-2 0-3 1-4s4-4 5-4c2 0 1 1 5 1l9-3c1 0 2-1 3-1 2 3 1 3 4 10l7 13c2 2 2 3 2 5v7c1 2 1 7 1 10v4c0 2 1 5 1 7v8c0 2-3 4-5 7 0 3-1 6-2 9 0 3-1 5-2 8l-3 12c-1 4-3 7-4 12 0 3-1 5-1 9-1 2-1 6-1 9 0 6-3 20-2 29 0 3 0 6 1 9v15c0 2 0 7 1 9 1 3 0 1 0 4v5c-1 9-1 13 3 20 0 1 2 3 1 5 0 2-1 2-1 8 0 1 4 14 5 16 0 1 0 2 1 3 2 7 5 12 7 19 1 3 2 6 4 9 1 3 4 13 3 14 0 1-4 2-6 3-7 6-4 9-1 9h3c0 2-8 12-10 14-3 1-6 2-7 5-10 14 1 13 2 14 2 1 0 4 7 4 3 0 2-3 4-3 8 0 6 1 7 3s7 1 8-1 1-1 3-1c3 0 6-2 7-3 2-2 1-5 3-7 0-2 3-3 4-5 3-5 3-10 1-15 0-2 0-2-1-4l-2-6c-1-2-1-2-2-3-2-5-1-13-1-18 0-2 1-8 2-10l3-30c1-5 1-11-2-16l-4-6v-4c0-5-2-4 1-9 2-2 5-11 6-14 1-2 1-3 4-3 2 0 1 3 1 4 0 2 0 2-1 4s-1 4-1 6c0 5 3 2 3 7 1 5 1 13 5 16 2 2 4 4 8 4s6-5 7-8 2-6 2-9c1-1 1-1 2-1 5 1 4 3 11 5 5 1 7 1 11-2 2-1 3-1 4-3 2-1 3-3 4-4 3-3 5-9 5-14s1-4 3-8l3-5c4-12-2-22-2-37 0-4-2-12-2-14v-9c0-1 0-3-1-4l-3-17c0-2 1-1 0-4-1-1-1-3-2-4 0-1-1-2-2-4l-4-7c-1-3-3-5-4-7-2-2-3-2-3-5s1-9 2-12c0-2 0-4 1-6 0-2 1-3 1-5 0-3 1-4 1-6s1-4 1-6 0-4 1-6v-3c1-2 0-1 0-3 3-5 4-6 7-12 1-1 1-2 2-3 3-5 1-8 9-1 1 0 1 0 2 1s1 2 3 2c1 0 1-1 2-1s7 3 8 4c3 3-3 7 2 13 3 5 5 6 7 8l6 8c5 4 3 2 7 8 4 7 0 11 0 18 0 2 1 5 2 7 0 1 0 2 1 2 2 1 2 1 3 1 2 1 2 1 3 2 1 0 2 1 4 1 1 0 2 0 3 1 4 0 2 2 11-2 3-1 4-2 6-5 1-2 1-5 2-7 1-4 2-5 0-8-5-7-4-9-9-11-1-1-2-1-3-2-2 0-3 0-5-1-2 0-3-4-4-6-2-5-4-6-5-14 0-2 0-3-1-4 0-2 0-2-1-4 0-3-1-6-1-9-2-8-10-10-14-16-1-3-3-4-3-7-2-8-7-13-12-19-1-1-1-1-2-3-4-4-7-9-11-13-6-6-7-10-18-13-2-1-5-1-7-2l-11-5c-3 0-5-1-7-3h-1c-2-1-6-1-3-8l3-4c1-1 1-1 1-2 1-1 2-2 2-3 1-2 1-5 1-7s0-5 1-6v-5c0-3 4 1 0-10l-1-2c0-2 6 2 4-5-2-4-6-7-9-10-2-1-2-2-3-3-1-2-3-2-5-2-2-1-5-4-9-4-3 0-5 0-8 1-1 0-2 1-3 1V0c-3 0-13 6-14 7s-3 3-4 3zm16 50c0 2 1 3 2 4 5 4 4 3 9 0s3-7 1-4c-3 3-7 5-9 0-1-1-1-1-2-1s-1 0-1 1zm0 10c-1 0-2 1-2 2 2 3 6 2 8 2 3 1 3 1 6 0 6-2 3-5 2-5-2 0-1 1-3 2l-3 1h-6c-1-1-1-2-2-2zm17-18c3 0 1-2 4-3 1-1 3 2 3-2 0-2-10-2-10 1 0 1 0 2 1 2 1 1 1 2 2 2zm-5-11l6 1c1 0 1 0 4 1 2 1 4 3 4 0s-5-4-7-4c-1 0-8-2-7 2zm-24 2c0 4 4 1 9 0s7 1 7-1c0-4-16-1-16 1zm10 6h4c1-5-6-3-8-2s-4 1-2 3l1 2c1 0 1 1 2 1 3-1 2-2 3-4z"/>
    <path class="body" fill="#F0DCC8" d="M124 85c-4 0-11 0-15-3-2-1-2-6-3-8-3 1-3 7-3 10 0 2 2 5 3 6l2 3 1 1 2 2c2 3 8 6 14 6 5 0 10-2 13-6l5-5c0-1 2-6 2-7 0-3 0-3-1-6-1-2-1-4-2-5-3 2-1 7-8 10-4 1-6 2-10 2zm13 237c0 4 0 5 1 9 0 2 0 4 1 7 0 4 1 11 5 13l11 7c6 3 11 3 16-1 7-5 8-13 9-21 1-6 4-7-5-11-4-2-9-3-13-5l-11-2c-3 0-14 0-14 4zm-49 51c4 0 7-1 7 1 0 3-11 3-11 0 0-2 3-1 4-1zm21-21c2-1 7-15 7-17-5-1-10-2-15-4-2 0-9-2-11-2-1 0-3-1-4-1-8 0-7 2-10 3-3 3-2 5-3 9-1 2 0 6-1 10v4c0 6 1 7 3 11 1 2 1 3 2 4l2 2c2 6-3 1-3 5 0 3 0 6 2 7 3 2 9 2 13 2 3 0 12-2 14-3s7-4 7-8c0-2-1-4-2-5-1 1-1 0-1 2-1 2-5 3-2-3 4-9-1-10-1-16 0-1-1-4 1-4s1 2 2 4zM14 216c3 0 7 1 9-1 5-5-3-14 3-14 3 0-1 7 2 7 2-2 1-5 1-9 0-5-9-3-3-11 1-1 1-2 2-3 0-1 1-2 1-3 1-2 2-4 4-6 3-7 6-8 10-13l4-5c1-3 0-2 0-6 0-3 2-2 3-2l3-3c8-4 8 0 5-13-2-9-2-5-6-10-2-3-1-2-6 2l-14 15c-4 3-6 12-7 16l-6 17c-1 1-1 3-2 5 0 1-2 7-3 8 0 1 0 1-1 2l-3 3c0 1 0 1-1 2-3 3-5 6-5 12-1 5-3 4 2 7 1 1 7 3 8 3zm183-66c0 2 10 4 11 5 3 4 1 9 1 11 0 5 8 11 11 15s10 8 12 15c0 2 1 7 1 8-1 5-3 7-1 13 0 2 0 3 2 3 1-2-3-8 0-8s2 8 4 10c2 1 9 3 11 2 2 0 4-1 5-2 4-2 4-1 5-8 2-7 3-5 0-10l-2-2c-1-2 0-5-7-7-4-1-5 3-11-9 0-1-1-2-1-3-5-9-6-27-8-32-2-3-3-3-5-5-6-4-6-6-10-11-2-3-3-4-5-3-1 1-3 1-4 2 0 0 0 2-1 3-2 2-5 8-7 11 0 0-1 1-1 2zm-80-80c1 0 1 1 2 2h6l3-1c2-1 1-2 3-2 1 0 4 3-2 5-3 1-3 1-6 0-2 0-6 1-8-2 0-1 1-2 2-2zm12-10c2-3 4 1-1 4s-4 4-9 0c-1-1-2-2-2-4 0-1 0-1 1-1s1 0 2 1c2 5 6 3 9 0zm5-8c-1 0-1-1-2-2-1 0-1-1-1-2 0-3 10-3 10-1 0 4-2 1-3 2-3 1-1 3-4 3zm-19-3c-1 2 0 3-3 4-1 0-1-1-2-1l-1-2c-2-2 0-2 2-3s9-3 8 2h-4zm-10-6c0-2 16-5 16-1 0 2-2 0-7 1s-9 4-9 0zm31-4c2 0 7 1 7 4s-2 1-4 0c-3-1-3-1-4-1l-6-1c-1-4 6-2 7-2zm-38 9c0 5 0 4 1 8 0 2 1 3 2 4 0 1 1 1 1 2 2 1 3 3 4 4l1 1c0 3 2 6 3 9s1 5 5 5c6 1 15 0 19-2 2-1 4-4 4-6l6-12c5-5 7-8 5-16-1-4-4-1-6-7-4-12-2-12-11-12-1 0-6 1-10 1h-3c-1-1-1-1-3-1-7-1-10-2-12 10-1 3 0 7-3 9-2 2-3 1-3 3z"/>
    <path class="boots" fill="#FFFFFF" d="M142 360l2-2c1-1 1-1 1-3-1 0-2 0-3 2v3zm-33 101c-2-2-2-2-4-2 0 2 1 2 2 3l4 7c1 1 1 2 2 3 0-4-2-8-4-11zm-9-9c4 1 6 3 7 2 0-1-6-3-7-3h-3c1 1 2 1 3 1zm5-2c2 1 5 2 6 0 2-3-1-4-3-4 0 0-2 3-3 4zm-20 0c3 1 3 0 4-2 4-4 2-4-1-1-2 1-2 1-3 3zm38-102c0 4 2 2 5 1 0-1 0-5-1-6-1 0-2 1-2 2-1 0-2 2-2 3zm7 11c2-2-1-4-2-5-1 2-1 2 1 4 0 1 0 0 1 1z"/>
</svg>
